<svg width="512" height="512" viewBox="0 0 512 512" fill="none" xmlns="http://www.w3.org/2000/svg">
<g clip-path="url(#clip0)">
<path d="M235.507 339.531C218.972 337.081 202.927 332.427 189.821 319.689C177.328 306.338 172.797 290.293 170.714 273.758C167.162 246.567 169.979 220.724 175.001 195.37C176.104 190.103 177.206 184.837 178.431 179.692C132.01 189.981 88.4067 206.393 47.7428 228.44C31.2078 237.381 15.0402 247.057 6.95644 265.185C-1.24982 283.312 -0.0250083 303.399 6.589 324.098C13.448 345.41 43.211 391.831 81.0578 430.29C118.905 468.627 164.958 499.002 186.147 506.228C206.846 513.21 226.811 514.68 245.061 506.841C263.31 499.002 273.231 482.957 282.295 466.544C305.567 424.901 322.836 380.195 333.737 332.427C327.123 333.897 320.509 335.244 313.773 336.469C288.542 341.001 262.698 343.45 235.507 339.531Z" fill="#2F3343"/>
<path d="M505.579 188.021C498.72 166.587 469.08 120.166 431.11 81.8297C393.263 43.4929 347.21 13.1175 326.021 5.89107C305.322 -1.09038 285.357 -2.56016 267.107 5.27866C248.858 13.1175 238.937 29.1626 229.873 45.5751C206.601 87.2189 189.332 131.925 178.431 179.692C185.045 178.223 191.659 176.875 198.395 175.651C223.871 170.996 249.715 168.547 276.906 172.466C293.441 174.916 309.486 179.57 322.592 192.308C335.085 205.659 339.616 221.704 341.699 238.239C345.251 265.43 342.434 291.273 337.412 316.627C336.309 321.894 335.207 327.16 333.982 332.305C380.403 322.016 424.006 305.604 464.67 283.557C481.205 274.616 497.373 264.94 505.457 246.812C513.418 228.685 512.315 208.721 505.579 188.021Z" fill="#00957B"/>
<path d="M341.576 238.239C339.372 221.704 334.962 205.659 322.469 192.308C309.364 179.57 293.319 174.916 276.783 172.466C249.593 168.547 223.749 170.996 198.273 175.651C191.536 176.875 184.922 178.223 178.308 179.693C177.083 184.837 175.981 190.103 174.879 195.37C169.857 220.724 167.04 246.568 170.592 273.758C172.797 290.293 177.206 306.339 189.699 319.689C202.805 332.427 218.85 337.081 235.385 339.531C262.576 343.451 288.419 341.001 313.895 336.347C320.632 335.122 327.246 333.774 333.86 332.305C335.085 327.16 336.187 321.894 337.289 316.627C342.311 291.273 345.128 265.43 341.576 238.239Z" fill="#2F3343"/>
<path d="M341.576 238.239C339.372 221.704 334.962 205.659 322.469 192.308C309.364 179.57 293.319 174.916 276.783 172.466C249.593 168.547 223.749 170.996 198.273 175.651C191.536 176.875 184.922 178.223 178.308 179.693C177.083 184.837 175.981 190.103 174.879 195.37C169.857 220.724 167.04 246.568 170.592 273.758C172.797 290.293 177.206 306.339 189.699 319.689C202.805 332.427 218.85 337.081 235.385 339.531C262.576 343.451 288.419 341.001 313.895 336.347C320.632 335.122 327.246 333.774 333.86 332.305C335.085 327.16 336.187 321.894 337.289 316.627C342.311 291.273 345.128 265.43 341.576 238.239Z" fill="#00705C"/>
<path d="M397 212.821C397 212.821 341.704 205.445 296.108 219.704C296.108 219.704 348.98 156.89 340.855 88.0532C340.855 88.0532 325.333 87.4386 308.356 90.3887C308.356 90.3887 311.873 140.787 255 221.179C255 221.179 272.098 244.904 280.95 254C341.704 238.143 383.904 242.445 383.904 242.445L397 212.821Z" fill="white"/>
<path d="M117 277.179C117 277.179 173.075 284.555 219.313 270.296C219.313 270.296 165.697 333.11 173.936 401.947C173.936 401.947 189.676 402.561 206.892 399.611C206.892 399.611 203.326 349.213 261 268.821C261 268.821 243.661 245.096 234.684 236C173.075 251.857 130.281 247.555 130.281 247.555L117 277.179Z" fill="white"/>
</g>
<defs>
<clipPath id="clip0">
<rect width="512" height="512" fill="white"/>
</clipPath>
</defs>
</svg>
