<svg width="650" height="223" viewBox="0 0 650 223" fill="none" xmlns="http://www.w3.org/2000/svg">
<g clip-path="url(#clip0)">
<path d="M102.205 147.349C95.0292 146.286 88.066 144.266 82.3785 138.738C76.9567 132.944 74.99 125.981 74.0864 118.805C72.5449 107.005 73.7675 95.7892 75.9468 84.7862C76.4252 82.5005 76.9036 80.2149 77.4351 77.9824C57.2896 82.4474 38.3666 89.5701 20.7194 99.1379C13.5435 103.018 6.52715 107.217 3.01895 115.084C-0.54239 122.951 -0.0108459 131.668 2.85949 140.651C5.83614 149.9 18.7527 170.046 35.1774 186.736C51.6021 203.374 71.5881 216.556 80.7838 219.692C89.7669 222.722 98.4311 223.36 106.351 219.958C114.271 216.556 118.577 209.593 122.51 202.47C132.609 184.398 140.104 164.996 144.835 144.266C141.965 144.904 139.094 145.489 136.171 146.02C125.221 147.987 114.005 149.05 102.205 147.349Z" fill="#2F3343"/>
<path d="M219.411 81.5972C216.434 72.2952 203.571 52.1497 187.093 35.5123C170.668 18.875 150.682 5.69271 141.486 2.5566C132.503 -0.473202 123.839 -1.11106 115.919 2.29083C107.999 5.69271 103.693 12.6559 99.76 19.7786C89.6606 37.8511 82.1659 57.2525 77.4351 77.9827C80.3055 77.3449 83.1758 76.7602 86.0993 76.2286C97.1554 74.2087 108.371 73.1457 120.171 74.8466C127.347 75.9097 134.31 77.9296 139.998 83.4576C145.42 89.2514 147.386 96.2147 148.29 103.391C149.831 115.191 148.609 126.406 146.43 137.409C145.951 139.695 145.473 141.981 144.941 144.213C165.087 139.748 184.01 132.625 201.657 123.058C208.833 119.177 215.849 114.978 219.357 107.111C222.812 99.2445 222.334 90.5803 219.411 81.5972Z" fill="#00957B"/>
<path d="M148.237 103.391C147.28 96.2148 145.366 89.2516 139.945 83.4578C134.257 77.9297 127.294 75.9099 120.118 74.8468C108.318 73.1458 97.1023 74.2089 86.0461 76.2288C83.1227 76.7603 80.2523 77.345 77.382 77.9829C76.8504 80.2154 76.3721 82.501 75.8937 84.7866C73.7143 95.7896 72.4918 107.005 74.0333 118.805C74.99 125.981 76.9036 132.945 82.3253 138.738C88.0129 144.266 94.9761 146.286 102.152 147.349C113.952 149.05 125.168 147.987 136.224 145.967C139.147 145.436 142.018 144.851 144.888 144.213C145.42 141.981 145.898 139.695 146.376 137.41C148.556 126.407 149.778 115.191 148.237 103.391Z" fill="#2F3343"/>
<path d="M148.237 103.391C147.28 96.2148 145.366 89.2516 139.945 83.4578C134.257 77.9297 127.294 75.9099 120.118 74.8468C108.318 73.1458 97.1023 74.2089 86.0461 76.2288C83.1227 76.7603 80.2523 77.345 77.382 77.9829C76.8504 80.2154 76.3721 82.501 75.8937 84.7866C73.7143 95.7896 72.4918 107.005 74.0333 118.805C74.99 125.981 76.9036 132.945 82.3253 138.738C88.0129 144.266 94.9761 146.286 102.152 147.349C113.952 149.05 125.168 147.987 136.224 145.967C139.147 145.436 142.018 144.851 144.888 144.213C145.42 141.981 145.898 139.695 146.376 137.41C148.556 126.407 149.778 115.191 148.237 103.391Z" fill="#00705C"/>
<path d="M172.29 92.3599C172.29 92.3599 148.292 89.1591 128.505 95.3473C128.505 95.3473 151.45 68.0874 147.924 38.2135C147.924 38.2135 141.188 37.9468 133.82 39.2271C133.82 39.2271 135.346 61.099 110.665 95.9874C110.665 95.9874 118.085 106.283 121.927 110.231C148.292 103.349 166.606 105.216 166.606 105.216L172.29 92.3599Z" fill="#F4F6F9"/>
<path d="M50.7755 120.29C50.7755 120.29 75.1109 123.491 95.177 117.303C95.177 117.303 71.9089 144.562 75.4845 174.436C75.4845 174.436 82.3155 174.703 89.7869 173.423C89.7869 173.423 88.2392 151.551 113.268 116.662C113.268 116.662 105.744 106.367 101.848 102.419C75.1109 109.301 56.5392 107.433 56.5392 107.433L50.7755 120.29Z" fill="#F4F6F9"/>
</g>
<path d="M263.804 83.0244H281.96V92.0004H254.42V44.4004H263.804V83.0244Z" fill="#F4F6F9"/>
<path d="M315.187 87.7844C311.696 91.2297 307.435 92.9524 302.403 92.9524C297.371 92.9524 293.11 91.2297 289.619 87.7844C286.174 84.2937 284.451 80.0324 284.451 75.0004C284.451 69.9683 286.174 65.7297 289.619 62.2844C293.11 58.7937 297.371 57.0484 302.403 57.0484C307.435 57.0484 311.696 58.7937 315.187 62.2844C318.678 65.7297 320.423 69.9683 320.423 75.0004C320.423 80.0324 318.678 84.2937 315.187 87.7844ZM295.807 81.7324C297.575 83.5004 299.774 84.3844 302.403 84.3844C305.032 84.3844 307.231 83.5004 308.999 81.7324C310.767 79.9644 311.651 77.7204 311.651 75.0004C311.651 72.2804 310.767 70.0364 308.999 68.2684C307.231 66.5004 305.032 65.6164 302.403 65.6164C299.774 65.6164 297.575 66.5004 295.807 68.2684C294.084 70.0364 293.223 72.2804 293.223 75.0004C293.223 77.7204 294.084 79.9644 295.807 81.7324Z" fill="#F4F6F9"/>
<path d="M342.778 92.9524C337.655 92.9524 333.371 91.2297 329.926 87.7844C326.526 84.339 324.826 80.0777 324.826 75.0004C324.826 69.923 326.526 65.6617 329.926 62.2164C333.371 58.771 337.655 57.0484 342.778 57.0484C346.087 57.0484 349.102 57.8417 351.822 59.4284C354.542 61.015 356.605 63.1457 358.01 65.8204L350.462 70.2404C349.782 68.835 348.739 67.7244 347.334 66.9083C345.974 66.0923 344.433 65.6844 342.71 65.6844C340.081 65.6844 337.905 66.5684 336.182 68.3364C334.459 70.059 333.598 72.2804 333.598 75.0004C333.598 77.675 334.459 79.8964 336.182 81.6644C337.905 83.387 340.081 84.2484 342.71 84.2484C344.478 84.2484 346.042 83.863 347.402 83.0924C348.807 82.2764 349.85 81.1657 350.53 79.7604L358.146 84.1124C356.65 86.787 354.542 88.9403 351.822 90.5723C349.102 92.159 346.087 92.9524 342.778 92.9524Z" fill="#F4F6F9"/>
<path d="M388.094 58.0004H396.866V92.0004H388.094V87.9883C385.465 91.2977 381.77 92.9524 377.01 92.9524C372.477 92.9524 368.578 91.2297 365.314 87.7844C362.096 84.2937 360.486 80.0324 360.486 75.0004C360.486 69.9683 362.096 65.7297 365.314 62.2844C368.578 58.7937 372.477 57.0484 377.01 57.0484C381.77 57.0484 385.465 58.703 388.094 62.0124V58.0004ZM371.91 81.9364C373.678 83.7044 375.922 84.5884 378.642 84.5884C381.362 84.5884 383.606 83.7044 385.374 81.9364C387.188 80.123 388.094 77.811 388.094 75.0004C388.094 72.1897 387.188 69.9004 385.374 68.1324C383.606 66.319 381.362 65.4124 378.642 65.4124C375.922 65.4124 373.678 66.319 371.91 68.1324C370.142 69.9004 369.258 72.1897 369.258 75.0004C369.258 77.811 370.142 80.123 371.91 81.9364Z" fill="#F4F6F9"/>
<path d="M404.821 92.0004V42.3604H413.593V92.0004H404.821Z" fill="#F4F6F9"/>
<path d="M453.513 44.4004V53.3764H440.661V92.0004H431.277V53.3764H418.493V44.4004H453.513Z" fill="#F4F6F9"/>
<path d="M462.8 63.8484C463.616 61.6724 464.953 60.0404 466.812 58.9524C468.716 57.8643 470.824 57.3203 473.136 57.3203V67.1124C470.461 66.795 468.058 67.339 465.928 68.7444C463.842 70.1497 462.8 72.4844 462.8 75.7484V92.0004H454.028V58.0004H462.8V63.8484Z" fill="#F4F6F9"/>
<path d="M502.844 58.0004H511.616V92.0004H502.844V87.9883C500.215 91.2977 496.52 92.9524 491.76 92.9524C487.227 92.9524 483.328 91.2297 480.064 87.7844C476.846 84.2937 475.236 80.0324 475.236 75.0004C475.236 69.9683 476.846 65.7297 480.064 62.2844C483.328 58.7937 487.227 57.0484 491.76 57.0484C496.52 57.0484 500.215 58.703 502.844 62.0124V58.0004ZM486.66 81.9364C488.428 83.7044 490.672 84.5884 493.392 84.5884C496.112 84.5884 498.356 83.7044 500.124 81.9364C501.938 80.123 502.844 77.811 502.844 75.0004C502.844 72.1897 501.938 69.9004 500.124 68.1324C498.356 66.319 496.112 65.4124 493.392 65.4124C490.672 65.4124 488.428 66.319 486.66 68.1324C484.892 69.9004 484.008 72.1897 484.008 75.0004C484.008 77.811 484.892 80.123 486.66 81.9364Z" fill="#F4F6F9"/>
<path d="M545.343 44.4004H554.115V92.0004H545.343V87.9883C542.759 91.2977 539.087 92.9524 534.327 92.9524C529.748 92.9524 525.827 91.2297 522.563 87.7844C519.344 84.2937 517.735 80.0324 517.735 75.0004C517.735 69.9683 519.344 65.7297 522.563 62.2844C525.827 58.7937 529.748 57.0484 534.327 57.0484C539.087 57.0484 542.759 58.703 545.343 62.0124V44.4004ZM529.159 81.9364C530.972 83.7044 533.239 84.5884 535.959 84.5884C538.679 84.5884 540.923 83.7044 542.691 81.9364C544.459 80.123 545.343 77.811 545.343 75.0004C545.343 72.1897 544.459 69.9004 542.691 68.1324C540.923 66.319 538.679 65.4124 535.959 65.4124C533.239 65.4124 530.972 66.319 529.159 68.1324C527.391 69.9004 526.507 72.1897 526.507 75.0004C526.507 77.811 527.391 80.123 529.159 81.9364Z" fill="#F4F6F9"/>
<path d="M569.549 78.6044C570.728 82.8657 573.924 84.9964 579.137 84.9964C582.492 84.9964 585.03 83.863 586.753 81.5964L593.825 85.6764C590.47 90.527 585.529 92.9524 579.001 92.9524C573.38 92.9524 568.869 91.2524 565.469 87.8524C562.069 84.4524 560.369 80.1684 560.369 75.0004C560.369 69.8777 562.046 65.6164 565.401 62.2164C568.756 58.771 573.062 57.0484 578.321 57.0484C583.308 57.0484 587.41 58.771 590.629 62.2164C593.893 65.6617 595.525 69.923 595.525 75.0004C595.525 76.1337 595.412 77.335 595.185 78.6044H569.549ZM569.413 71.8043H586.753C586.254 69.4923 585.212 67.7697 583.625 66.6364C582.084 65.503 580.316 64.9363 578.321 64.9363C575.964 64.9363 574.014 65.5484 572.473 66.7724C570.932 67.951 569.912 69.6283 569.413 71.8043Z" fill="#F4F6F9"/>
<path d="M273.324 126.4C279.852 126.4 285.292 128.69 289.644 133.268C294.041 137.847 296.24 143.491 296.24 150.2C296.24 156.91 294.041 162.554 289.644 167.132C285.292 171.711 279.852 174 273.324 174H254.42V126.4H273.324ZM273.324 165.024C277.449 165.024 280.804 163.664 283.388 160.944C285.972 158.179 287.264 154.598 287.264 150.2C287.264 145.803 285.972 142.244 283.388 139.524C280.804 136.759 277.449 135.376 273.324 135.376H263.804V165.024H273.324Z" fill="#F4F6F9"/>
<path d="M312.281 165.024H332.341V174H302.897V126.4H332.001V135.376H312.281V145.508H330.301V154.348H312.281V165.024Z" fill="#F4F6F9"/>
<path d="M375.199 174H364.523L355.275 158.496L346.027 174H335.419L349.971 149.588L336.167 126.4H346.775L355.275 140.68L363.775 126.4H374.383L360.579 149.52L375.199 174Z" fill="#F4F6F9"/>
<defs>
<clipPath id="clip0">
<rect width="222.197" height="222.197" fill="white"/>
</clipPath>
</defs>
</svg>
