<svg width="650" height="223" viewBox="0 0 650 223" fill="none" xmlns="http://www.w3.org/2000/svg">
<g clip-path="url(#clip0)">
<path d="M102.205 147.349C95.0292 146.286 88.066 144.266 82.3785 138.738C76.9567 132.944 74.99 125.981 74.0864 118.805C72.5449 107.005 73.7675 95.7892 75.9468 84.7862C76.4252 82.5005 76.9036 80.2149 77.4351 77.9824C57.2896 82.4474 38.3666 89.5701 20.7194 99.1379C13.5435 103.018 6.52715 107.217 3.01895 115.084C-0.54239 122.951 -0.0108459 131.668 2.85949 140.651C5.83614 149.9 18.7527 170.046 35.1774 186.736C51.6021 203.374 71.5881 216.556 80.7838 219.692C89.7669 222.722 98.4311 223.36 106.351 219.958C114.271 216.556 118.577 209.593 122.51 202.47C132.609 184.398 140.104 164.996 144.835 144.266C141.965 144.904 139.094 145.489 136.171 146.02C125.221 147.987 114.005 149.05 102.205 147.349Z" fill="#2F3343"/>
<path d="M219.411 81.5972C216.434 72.2952 203.571 52.1497 187.093 35.5123C170.668 18.875 150.682 5.69271 141.486 2.5566C132.503 -0.473202 123.839 -1.11106 115.919 2.29083C107.999 5.69271 103.693 12.6559 99.76 19.7786C89.6606 37.8511 82.1659 57.2525 77.4351 77.9827C80.3055 77.3449 83.1758 76.7602 86.0993 76.2286C97.1554 74.2087 108.371 73.1457 120.171 74.8466C127.347 75.9097 134.31 77.9296 139.998 83.4576C145.42 89.2514 147.386 96.2147 148.29 103.391C149.831 115.191 148.609 126.406 146.43 137.409C145.951 139.695 145.473 141.981 144.941 144.213C165.087 139.748 184.01 132.625 201.657 123.058C208.833 119.177 215.849 114.978 219.357 107.111C222.812 99.2445 222.334 90.5803 219.411 81.5972Z" fill="#00957B"/>
<path d="M148.237 103.391C147.28 96.2148 145.366 89.2516 139.945 83.4578C134.257 77.9297 127.294 75.9099 120.118 74.8468C108.318 73.1458 97.1023 74.2089 86.0461 76.2288C83.1227 76.7603 80.2523 77.345 77.382 77.9829C76.8504 80.2154 76.3721 82.501 75.8937 84.7866C73.7143 95.7896 72.4918 107.005 74.0333 118.805C74.99 125.981 76.9036 132.945 82.3253 138.738C88.0129 144.266 94.9761 146.286 102.152 147.349C113.952 149.05 125.168 147.987 136.224 145.967C139.147 145.436 142.018 144.851 144.888 144.213C145.42 141.981 145.898 139.695 146.376 137.41C148.556 126.407 149.778 115.191 148.237 103.391Z" fill="#2F3343"/>
<path d="M148.237 103.391C147.28 96.2148 145.366 89.2516 139.945 83.4578C134.257 77.9297 127.294 75.9099 120.118 74.8468C108.318 73.1458 97.1023 74.2089 86.0461 76.2288C83.1227 76.7603 80.2523 77.345 77.382 77.9829C76.8504 80.2154 76.3721 82.501 75.8937 84.7866C73.7143 95.7896 72.4918 107.005 74.0333 118.805C74.99 125.981 76.9036 132.945 82.3253 138.738C88.0129 144.266 94.9761 146.286 102.152 147.349C113.952 149.05 125.168 147.987 136.224 145.967C139.147 145.436 142.018 144.851 144.888 144.213C145.42 141.981 145.898 139.695 146.376 137.41C148.556 126.407 149.778 115.191 148.237 103.391Z" fill="#00705C"/>
<path d="M172.29 92.3599C172.29 92.3599 148.292 89.1591 128.505 95.3473C128.505 95.3473 151.45 68.0874 147.924 38.2135C147.924 38.2135 141.188 37.9468 133.82 39.2271C133.82 39.2271 135.346 61.099 110.665 95.9874C110.665 95.9874 118.085 106.283 121.927 110.231C148.292 103.349 166.606 105.216 166.606 105.216L172.29 92.3599Z" fill="white"/>
<path d="M50.7755 120.29C50.7755 120.29 75.1109 123.491 95.177 117.303C95.177 117.303 71.9089 144.562 75.4845 174.436C75.4845 174.436 82.3155 174.703 89.7869 173.423C89.7869 173.423 88.2392 151.551 113.268 116.662C113.268 116.662 105.744 106.367 101.848 102.419C75.1109 109.301 56.5392 107.433 56.5392 107.433L50.7755 120.29Z" fill="white"/>
</g>
<path d="M263.804 83.0234H281.96V91.9994H254.42V44.3994H263.804V83.0234Z" fill="#2F3343"/>
<path d="M315.187 87.7834C311.696 91.2287 307.435 92.9514 302.403 92.9514C297.371 92.9514 293.11 91.2287 289.619 87.7834C286.174 84.2927 284.451 80.0314 284.451 74.9994C284.451 69.9674 286.174 65.7287 289.619 62.2834C293.11 58.7927 297.371 57.0474 302.403 57.0474C307.435 57.0474 311.696 58.7927 315.187 62.2834C318.678 65.7287 320.423 69.9674 320.423 74.9994C320.423 80.0314 318.678 84.2927 315.187 87.7834ZM295.807 81.7314C297.575 83.4994 299.774 84.3834 302.403 84.3834C305.032 84.3834 307.231 83.4994 308.999 81.7314C310.767 79.9634 311.651 77.7194 311.651 74.9994C311.651 72.2794 310.767 70.0354 308.999 68.2674C307.231 66.4994 305.032 65.6154 302.403 65.6154C299.774 65.6154 297.575 66.4994 295.807 68.2674C294.084 70.0354 293.223 72.2794 293.223 74.9994C293.223 77.7194 294.084 79.9634 295.807 81.7314Z" fill="#2F3343"/>
<path d="M342.778 92.9514C337.655 92.9514 333.371 91.2287 329.926 87.7834C326.526 84.338 324.826 80.0767 324.826 74.9994C324.826 69.922 326.526 65.6607 329.926 62.2154C333.371 58.77 337.655 57.0474 342.778 57.0474C346.087 57.0474 349.102 57.8407 351.822 59.4274C354.542 61.014 356.605 63.1447 358.01 65.8194L350.462 70.2394C349.782 68.834 348.739 67.7234 347.334 66.9074C345.974 66.0914 344.433 65.6834 342.71 65.6834C340.081 65.6834 337.905 66.5674 336.182 68.3354C334.459 70.058 333.598 72.2794 333.598 74.9994C333.598 77.674 334.459 79.8954 336.182 81.6634C337.905 83.386 340.081 84.2474 342.71 84.2474C344.478 84.2474 346.042 83.862 347.402 83.0914C348.807 82.2754 349.85 81.1647 350.53 79.7594L358.146 84.1114C356.65 86.786 354.542 88.9394 351.822 90.5714C349.102 92.158 346.087 92.9514 342.778 92.9514Z" fill="#2F3343"/>
<path d="M388.094 57.9994H396.866V91.9994H388.094V87.9874C385.465 91.2967 381.77 92.9514 377.01 92.9514C372.477 92.9514 368.578 91.2287 365.314 87.7834C362.096 84.2927 360.486 80.0314 360.486 74.9994C360.486 69.9674 362.096 65.7287 365.314 62.2834C368.578 58.7927 372.477 57.0474 377.01 57.0474C381.77 57.0474 385.465 58.702 388.094 62.0114V57.9994ZM371.91 81.9354C373.678 83.7034 375.922 84.5874 378.642 84.5874C381.362 84.5874 383.606 83.7034 385.374 81.9354C387.188 80.122 388.094 77.81 388.094 74.9994C388.094 72.1887 387.188 69.8994 385.374 68.1314C383.606 66.318 381.362 65.4114 378.642 65.4114C375.922 65.4114 373.678 66.318 371.91 68.1314C370.142 69.8994 369.258 72.1887 369.258 74.9994C369.258 77.81 370.142 80.122 371.91 81.9354Z" fill="#2F3343"/>
<path d="M404.821 91.9994V42.3594H413.593V91.9994H404.821Z" fill="#2F3343"/>
<path d="M453.513 44.3994V53.3754H440.661V91.9994H431.277V53.3754H418.493V44.3994H453.513Z" fill="#2F3343"/>
<path d="M462.8 63.8474C463.616 61.6714 464.953 60.0394 466.812 58.9514C468.716 57.8634 470.824 57.3194 473.136 57.3194V67.1114C470.461 66.794 468.058 67.338 465.928 68.7434C463.842 70.1487 462.8 72.4834 462.8 75.7474V91.9994H454.028V57.9994H462.8V63.8474Z" fill="#2F3343"/>
<path d="M502.844 57.9994H511.616V91.9994H502.844V87.9874C500.215 91.2967 496.52 92.9514 491.76 92.9514C487.227 92.9514 483.328 91.2287 480.064 87.7834C476.846 84.2927 475.236 80.0314 475.236 74.9994C475.236 69.9674 476.846 65.7287 480.064 62.2834C483.328 58.7927 487.227 57.0474 491.76 57.0474C496.52 57.0474 500.215 58.702 502.844 62.0114V57.9994ZM486.66 81.9354C488.428 83.7034 490.672 84.5874 493.392 84.5874C496.112 84.5874 498.356 83.7034 500.124 81.9354C501.938 80.122 502.844 77.81 502.844 74.9994C502.844 72.1887 501.938 69.8994 500.124 68.1314C498.356 66.318 496.112 65.4114 493.392 65.4114C490.672 65.4114 488.428 66.318 486.66 68.1314C484.892 69.8994 484.008 72.1887 484.008 74.9994C484.008 77.81 484.892 80.122 486.66 81.9354Z" fill="#2F3343"/>
<path d="M545.343 44.3994H554.115V91.9994H545.343V87.9874C542.759 91.2967 539.087 92.9514 534.327 92.9514C529.748 92.9514 525.827 91.2287 522.563 87.7834C519.344 84.2927 517.735 80.0314 517.735 74.9994C517.735 69.9674 519.344 65.7287 522.563 62.2834C525.827 58.7927 529.748 57.0474 534.327 57.0474C539.087 57.0474 542.759 58.702 545.343 62.0114V44.3994ZM529.159 81.9354C530.972 83.7034 533.239 84.5874 535.959 84.5874C538.679 84.5874 540.923 83.7034 542.691 81.9354C544.459 80.122 545.343 77.81 545.343 74.9994C545.343 72.1887 544.459 69.8994 542.691 68.1314C540.923 66.318 538.679 65.4114 535.959 65.4114C533.239 65.4114 530.972 66.318 529.159 68.1314C527.391 69.8994 526.507 72.1887 526.507 74.9994C526.507 77.81 527.391 80.122 529.159 81.9354Z" fill="#2F3343"/>
<path d="M569.549 78.6034C570.728 82.8647 573.924 84.9954 579.137 84.9954C582.492 84.9954 585.03 83.862 586.753 81.5954L593.825 85.6754C590.47 90.526 585.529 92.9514 579.001 92.9514C573.38 92.9514 568.869 91.2514 565.469 87.8514C562.069 84.4514 560.369 80.1674 560.369 74.9994C560.369 69.8767 562.046 65.6154 565.401 62.2154C568.756 58.77 573.062 57.0474 578.321 57.0474C583.308 57.0474 587.41 58.77 590.629 62.2154C593.893 65.6607 595.525 69.922 595.525 74.9994C595.525 76.1327 595.412 77.334 595.185 78.6034H569.549ZM569.413 71.8034H586.753C586.254 69.4914 585.212 67.7687 583.625 66.6354C582.084 65.502 580.316 64.9354 578.321 64.9354C575.964 64.9354 574.014 65.5474 572.473 66.7714C570.932 67.95 569.912 69.6274 569.413 71.8034Z" fill="#2F3343"/>
<path d="M273.324 126.399C279.852 126.399 285.292 128.689 289.644 133.267C294.041 137.846 296.24 143.49 296.24 150.199C296.24 156.909 294.041 162.553 289.644 167.131C285.292 171.71 279.852 173.999 273.324 173.999H254.42V126.399H273.324ZM273.324 165.023C277.449 165.023 280.804 163.663 283.388 160.943C285.972 158.178 287.264 154.597 287.264 150.199C287.264 145.802 285.972 142.243 283.388 139.523C280.804 136.758 277.449 135.375 273.324 135.375H263.804V165.023H273.324Z" fill="#2F3343"/>
<path d="M312.281 165.023H332.341V173.999H302.897V126.399H332.001V135.375H312.281V145.507H330.301V154.347H312.281V165.023Z" fill="#2F3343"/>
<path d="M375.199 173.999H364.523L355.275 158.495L346.027 173.999H335.419L349.971 149.587L336.167 126.399H346.775L355.275 140.679L363.775 126.399H374.383L360.579 149.519L375.199 173.999Z" fill="#2F3343"/>
<defs>
<clipPath id="clip0">
<rect width="222.197" height="222.197" fill="white"/>
</clipPath>
</defs>
</svg>
