<svg width="714" height="512" viewBox="0 0 714 512" fill="none" xmlns="http://www.w3.org/2000/svg">
<g clip-path="url(#clip0)">
<path d="M468.706 213.643C468.706 213.643 380.389 191.128 303.584 204.921C303.584 204.921 401.618 114.677 401.618 2.96925C401.618 2.96925 376.49 -1.11309 348.33 0.371393C348.33 0.371393 343.983 75.858 241.588 190.2C239.806 192.189 238.337 197.282 236.495 199.293C236.495 199.293 259.457 240.735 272.206 256.878C284.893 273.022 441.598 258.61 441.598 258.61L468.706 213.643Z" fill="url(#paint0_linear)"/>
<path d="M511.039 61.8549C504.355 44.8451 491.544 31.2992 471.058 20.4129C458.185 13.8565 432.067 6.867 401.617 2.97021C401.617 5.56807 401.617 8.66075 401.122 11.6916C430.149 15.1554 450.634 25.9179 462.022 32.0414C478.67 40.7628 490.553 51.5253 497.237 67.6691C503.426 83.8129 497.114 95.0703 492.843 111.214C483.312 145.234 470.81 178.758 453.234 210.18C456.576 211.046 465.859 213.273 468.706 213.706C486.283 182.284 499.651 149.563 509.615 115.111C514.381 97.6063 518.218 80.1636 511.039 61.8549Z" fill="#5D606D"/>
<path d="M243.18 191.812C233.663 166.428 232.04 138.185 224.428 111.155C220.157 95.0109 222.138 87.7122 228.822 71.5684C235.011 54.9916 246.894 48.6207 264.037 39.8993C279.757 31.6109 325.68 31.9821 347.403 9.03435C347.898 6.00352 348.331 3.34382 348.331 0.312988C303.647 1.17894 259.829 11.1992 241.757 20.4154C221.333 30.8687 208.46 44.3528 201.838 61.8574C194.721 80.1661 198.991 97.6088 203.757 115.484C211.864 144.246 222.819 172.204 236.558 199.234C238.91 196.636 240.829 194.41 243.18 191.812Z" fill="#00705C"/>
<path d="M430.644 256.383C424.888 255.641 391.777 270.919 378.409 281.372C367.021 290.093 373.087 305.866 357.367 306.299C341.647 305.866 332.611 298.444 321.223 289.289C307.421 278.836 292.692 268.568 282.665 255.517C279.323 255.95 275.548 256.383 272.206 256.816C285.079 274.259 297.395 287.805 311.197 298.691C322.151 306.98 336.881 316.567 356.871 317H357.367H357.862C377.852 316.567 392.582 306.98 403.536 298.691C417.338 288.238 429.221 275.125 441.599 258.548C437.328 257.682 433.986 256.816 430.644 256.383Z" fill="#00705C"/>
<path d="M502.499 64.4584C496.31 47.8817 483.437 36.5624 466.355 27.8411C454.967 21.7176 430.211 15.1611 401.185 11.6973C397.348 57.036 368.817 141.652 303.646 204.928C346.969 199.238 419.752 202.763 459.238 211.485C476.814 180.063 490.616 147.342 500.147 112.89C504.912 97.179 508.688 81.0352 502.499 64.4584Z" fill="#464A58"/>
<path d="M246.522 27.7768C229.873 36.4982 217.062 48.3122 210.873 64.456C204.684 80.5998 208.521 96.7436 212.792 112.887C220.404 139.917 230.864 166.082 243.242 191.813C284.646 148.639 336.943 76.6412 347.464 9.03516C304.079 9.90111 262.737 19.4884 246.522 27.7768Z" fill="#00826C"/>
<path d="M282.232 255.516C292.196 268.629 303.151 281.247 316.952 291.701C328.34 300.422 340.718 307.845 356.438 308.278C372.158 307.845 384.536 300.855 395.924 291.701C409.23 281.247 420.184 269 430.211 256.382C399.266 251.558 348.825 248.96 282.232 255.516Z" fill="#00826C"/>
<path d="M254.134 36.9885C238.414 45.2769 226.531 55.7301 220.837 71.008C215.144 86.2859 218.486 101.131 222.756 115.914C229.44 139.913 238.476 163.046 249.431 185.252C286.998 144.243 332.672 80.5335 345.546 19.4839C305.998 20.8447 268.864 29.1331 254.134 36.9885Z" fill="#00957B"/>
<path d="M291.702 254.652C299.809 264.673 308.845 274.26 319.8 282.548C330.259 290.837 342.142 297.393 356.934 297.826C371.664 297.393 383.113 290.837 394.068 282.548C404.527 274.26 413.563 265.106 421.671 255.085C391.159 251.56 347.898 249.828 291.702 254.652Z" fill="#00957B"/>
<path d="M492.534 71.0079C486.841 55.7301 474.463 44.8438 459.238 36.9884C448.283 31.2979 426.436 25.6692 400.257 22.1436C393.139 69.276 364.113 146.036 303.646 204.921C344.061 199.664 410.221 202.323 451.13 210.179C468.274 180.489 481.085 149.129 490.121 116.409C494.391 101.502 498.228 86.2239 492.534 71.0079Z" fill="#2F3343"/>
</g>
<path d="M0 509.704V390H21.277V509.704H0Z" fill="#2F3343"/>
<path d="M104.143 499.538C95.6758 507.846 85.3397 512 73.1343 512C60.9288 512 50.5927 507.846 42.1259 499.538C33.769 491.12 29.5905 480.844 29.5905 468.71C29.5905 456.575 33.769 446.354 42.1259 438.046C50.5927 429.628 60.9288 425.419 73.1343 425.419C85.3397 425.419 95.6758 429.628 104.143 438.046C112.609 446.354 116.843 456.575 116.843 468.71C116.843 480.844 112.609 491.12 104.143 499.538ZM57.1352 484.944C61.4236 489.207 66.7566 491.339 73.1343 491.339C79.5119 491.339 84.8449 489.207 89.1333 484.944C93.4217 480.68 95.5659 475.269 95.5659 468.71C95.5659 462.151 93.4217 456.739 89.1333 452.476C84.8449 448.212 79.5119 446.081 73.1343 446.081C66.7566 446.081 61.4236 448.212 57.1352 452.476C52.9568 456.739 50.8676 462.151 50.8676 468.71C50.8676 475.269 52.9568 480.68 57.1352 484.944Z" fill="#2F3343"/>
<path d="M164.194 512C151.769 512 141.378 507.846 133.021 499.538C124.774 491.229 120.65 480.953 120.65 468.71C120.65 456.466 124.774 446.19 133.021 437.882C141.378 429.573 151.769 425.419 164.194 425.419C172.221 425.419 179.533 427.332 186.131 431.159C192.728 434.985 197.731 440.123 201.14 446.573L182.832 457.231C181.183 453.842 178.654 451.164 175.245 449.196C171.946 447.228 168.207 446.245 164.029 446.245C157.651 446.245 152.373 448.376 148.195 452.64C144.017 456.794 141.927 462.151 141.927 468.71C141.927 475.16 144.017 480.516 148.195 484.78C152.373 488.934 157.651 491.011 164.029 491.011C168.317 491.011 172.111 490.082 175.41 488.223C178.818 486.255 181.348 483.577 182.997 480.188L201.47 490.683C197.841 497.133 192.728 502.325 186.131 506.261C179.533 510.087 172.221 512 164.194 512Z" fill="#2F3343"/>
<path d="M267.239 427.715H288.516V509.704H267.239V500.03C260.861 508.01 251.9 512 240.354 512C229.358 512 219.901 507.846 211.984 499.538C204.177 491.12 200.274 480.844 200.274 468.71C200.274 456.575 204.177 446.354 211.984 438.046C219.901 429.628 229.358 425.419 240.354 425.419C251.9 425.419 260.861 429.409 267.239 437.39V427.715ZM227.983 485.435C232.272 489.699 237.715 491.831 244.312 491.831C250.91 491.831 256.353 489.699 260.641 485.435C265.04 481.063 267.239 475.487 267.239 468.71C267.239 461.932 265.04 456.411 260.641 452.148C256.353 447.775 250.91 445.589 244.312 445.589C237.715 445.589 232.272 447.775 227.983 452.148C223.695 456.411 221.551 461.932 221.551 468.71C221.551 475.487 223.695 481.063 227.983 485.435Z" fill="#2F3343"/>
<path d="M300.937 509.704V390H322.214V509.704H300.937Z" fill="#2F3343"/>
<path d="M381.989 448.048H363.351V482.156C363.351 484.998 364.065 487.075 365.495 488.387C366.924 489.699 369.013 490.464 371.762 490.683C374.511 490.792 377.92 490.737 381.989 490.519V509.704C367.364 511.344 357.028 509.978 350.98 505.605C345.042 501.232 342.074 493.416 342.074 482.156V448.048H327.724V427.715H342.074V411.153L363.351 404.758V427.715H381.989V448.048Z" fill="#2F3343"/>
<path d="M412.683 441.817C414.663 436.57 417.907 432.634 422.415 430.011C427.033 427.387 432.146 426.075 437.754 426.075V449.688C431.267 448.923 425.439 450.235 420.271 453.624C415.213 457.013 412.683 462.642 412.683 470.513V509.704H391.406V427.715H412.683V441.817Z" fill="#2F3343"/>
<path d="M502.942 427.715H524.219V509.704H502.942V500.03C496.564 508.01 487.602 512 476.057 512C465.061 512 455.604 507.846 447.687 499.538C439.88 491.12 435.977 480.844 435.977 468.71C435.977 456.575 439.88 446.354 447.687 438.046C455.604 429.628 465.061 425.419 476.057 425.419C487.602 425.419 496.564 429.409 502.942 437.39V427.715ZM463.686 485.435C467.975 489.699 473.418 491.831 480.015 491.831C486.613 491.831 492.056 489.699 496.344 485.435C500.743 481.063 502.942 475.487 502.942 468.71C502.942 461.932 500.743 456.411 496.344 452.148C492.056 447.775 486.613 445.589 480.015 445.589C473.418 445.589 467.975 447.775 463.686 452.148C459.398 456.411 457.254 461.932 457.254 468.71C457.254 475.487 459.398 481.063 463.686 485.435Z" fill="#2F3343"/>
<path d="M599.152 394.919H620.429V509.704H599.152V500.03C592.884 508.01 583.977 512 572.432 512C561.326 512 551.815 507.846 543.897 499.538C536.09 491.12 532.187 480.844 532.187 468.71C532.187 456.575 536.09 446.354 543.897 438.046C551.815 429.628 561.326 425.419 572.432 425.419C583.977 425.419 592.884 429.409 599.152 437.39V394.919ZM559.897 485.435C564.295 489.699 569.793 491.831 576.39 491.831C582.988 491.831 588.431 489.699 592.719 485.435C597.008 481.063 599.152 475.487 599.152 468.71C599.152 461.932 597.008 456.411 592.719 452.148C588.431 447.775 582.988 445.589 576.39 445.589C569.793 445.589 564.295 447.775 559.897 452.148C555.608 456.411 553.464 461.932 553.464 468.71C553.464 475.487 555.608 481.063 559.897 485.435Z" fill="#2F3343"/>
<path d="M650.994 477.401C653.852 487.677 661.605 492.815 674.25 492.815C682.387 492.815 688.545 490.082 692.723 484.616L709.877 494.454C701.74 506.151 689.754 512 673.92 512C660.285 512 649.344 507.901 641.097 499.702C632.85 491.503 628.727 481.172 628.727 468.71C628.727 456.357 632.795 446.081 640.932 437.882C649.069 429.573 659.515 425.419 672.271 425.419C684.366 425.419 694.317 429.573 702.124 437.882C710.042 446.19 714 456.466 714 468.71C714 471.443 713.725 474.34 713.175 477.401H650.994ZM650.664 461.003H692.723C691.513 455.427 688.984 451.273 685.136 448.54C681.397 445.807 677.109 444.441 672.271 444.441C666.553 444.441 661.825 445.917 658.086 448.868C654.347 451.711 651.873 455.755 650.664 461.003Z" fill="#2F3343"/>
<defs>
<linearGradient id="paint0_linear" x1="507.075" y1="19.8124" x2="233.663" y2="245.675" gradientUnits="userSpaceOnUse">
<stop stop-color="white"/>
<stop offset="1" stop-color="#EFEFEF"/>
</linearGradient>
<clipPath id="clip0">
<rect width="317" height="317" fill="white" transform="translate(198)"/>
</clipPath>
</defs>
</svg>
