<svg width="49" height="49" viewBox="0 0 49 49" fill="none" xmlns="http://www.w3.org/2000/svg">
<g clip-path="url(#clip0)">
<path d="M41.8442 33.0237C41.8442 33.0237 28.1927 29.5435 16.3205 31.6756C16.3205 31.6756 31.474 17.7261 31.474 0.459001C31.474 0.459001 27.59 -0.172024 23.2372 0.0574397C23.2372 0.0574397 22.5652 11.7257 6.73754 29.4C6.46219 29.7075 6.235 30.4948 5.95038 30.8055C5.95038 30.8055 9.49958 37.2114 11.4703 39.7068C13.4314 42.2022 37.654 39.9745 37.654 39.9745L41.8442 33.0237Z" fill="url(#paint0_linear)"/>
<path d="M48.3877 9.56118C47.3545 6.93192 45.3742 4.83806 42.2077 3.15533C40.2179 2.14187 36.1808 1.06148 31.474 0.459137C31.474 0.860698 31.474 1.33875 31.3975 1.80723C35.8842 2.34265 39.0507 4.00626 40.811 4.9528C43.3844 6.30089 45.2212 7.9645 46.2544 10.4599C47.211 12.9553 46.2352 14.6954 45.5751 17.1908C44.1019 22.4494 42.1694 27.6314 39.4525 32.4884C39.9691 32.6223 41.4041 32.9665 41.8442 33.0334C44.5611 28.1764 46.6275 23.1186 48.1677 17.7932C48.9043 15.0874 49.4974 12.3912 48.3877 9.56118Z" fill="#5D606D"/>
<path d="M6.98374 29.6492C5.5126 25.7255 5.26175 21.3598 4.08506 17.1817C3.42497 14.6863 3.7311 13.5581 4.76429 11.0626C5.72095 8.5003 7.55773 7.51552 10.2077 6.16742C12.6376 4.88625 19.736 4.94362 23.0939 1.3965C23.1704 0.928011 23.2373 0.516889 23.2373 0.0484009C16.3303 0.182255 9.55714 1.73113 6.7637 3.15572C3.60673 4.77152 1.61689 6.85581 0.593263 9.56157C-0.506893 12.3916 0.153201 15.0878 0.889827 17.8509C2.14305 22.2968 3.83633 26.6183 5.96011 30.7965C6.32364 30.3949 6.62021 30.0507 6.98374 29.6492Z" fill="#00705C"/>
<path d="M35.9608 39.6302C35.0711 39.5155 29.953 41.8771 27.8866 43.4929C26.1263 44.841 27.0639 47.279 24.6339 47.346C22.204 47.279 20.8073 46.1317 19.0471 44.7167C16.9137 43.1009 14.6369 41.5137 13.0871 39.4964C12.5705 39.5633 11.9869 39.6302 11.4703 39.6972C13.4602 42.3934 15.3639 44.4872 17.4973 46.17C19.1906 47.4511 21.4674 48.9331 24.5574 49H24.6339H24.7105C27.8005 48.9331 30.0773 47.4511 31.7706 46.17C33.904 44.5541 35.7407 42.5272 37.6541 39.9649C36.994 39.831 36.4774 39.6971 35.9608 39.6302Z" fill="#00705C"/>
<path d="M47.0676 9.96365C46.111 7.40131 44.1211 5.65165 41.4807 4.30355C39.7205 3.35701 35.8939 2.34355 31.4071 1.80814C30.814 8.81633 26.4038 21.8957 16.3302 31.6766C23.0268 30.797 34.2771 31.342 40.3806 32.6901C43.0975 27.8331 45.2308 22.7754 46.7041 17.4499C47.4407 15.0214 48.0243 12.526 47.0676 9.96365Z" fill="#464A58"/>
<path d="M7.50023 4.29361C4.92682 5.64171 2.94654 7.46785 1.98988 9.96327C1.03323 12.4587 1.62635 14.9541 2.28645 17.4495C3.46314 21.6277 5.07989 25.6719 6.9932 29.6493C13.3932 22.9758 21.477 11.8468 23.1033 1.39664C16.3971 1.53049 10.0067 3.01244 7.50023 4.29361Z" fill="#00826C"/>
<path d="M13.0201 39.4963C14.5603 41.5232 16.2536 43.4736 18.3869 45.0894C20.1472 46.4375 22.0605 47.5848 24.4904 47.6518C26.9203 47.5848 28.8336 46.5045 30.5939 45.0894C32.6507 43.4736 34.344 41.5805 35.8938 39.6301C31.1105 38.8844 23.3137 38.4828 13.0201 39.4963Z" fill="#00826C"/>
<path d="M8.67692 5.71747C6.24701 6.99865 4.41022 8.61445 3.5301 10.976C2.64997 13.3376 3.16657 15.6322 3.82666 17.9173C4.85985 21.6269 6.25657 25.2027 7.94986 28.6351C13.7568 22.2962 20.8169 12.4484 22.8067 3.01172C16.6937 3.22206 10.9538 4.50323 8.67692 5.71747Z" fill="#00957B"/>
<path d="M14.4839 39.3627C15.7371 40.9116 17.1338 42.3935 18.8271 43.6747C20.4439 44.9559 22.2806 45.9693 24.5671 46.0362C26.8439 45.9693 28.6137 44.9559 30.307 43.6747C31.9237 42.3935 33.3205 40.9785 34.5737 39.4296C29.8574 38.8846 23.1703 38.6169 14.4839 39.3627Z" fill="#00957B"/>
<path d="M45.5274 10.976C44.6473 8.61443 42.7339 6.9317 40.3806 5.71746C38.6873 4.83785 35.3103 3.9678 31.2636 3.42282C30.1635 10.7083 25.6767 22.5735 16.3302 31.6755C22.5772 30.8628 32.8038 31.2739 39.1273 32.4882C41.7773 27.8989 43.7576 23.0515 45.1543 17.9937C45.8144 15.6896 46.4075 13.328 45.5274 10.976Z" fill="#2F3343"/>
</g>
<defs>
<linearGradient id="paint0_linear" x1="47.775" y1="3.06252" x2="5.51254" y2="37.975" gradientUnits="userSpaceOnUse">
<stop stop-color="white"/>
<stop offset="1" stop-color="#EFEFEF"/>
</linearGradient>
<clipPath id="clip0">
<rect width="49" height="49" fill="white"/>
</clipPath>
</defs>
</svg>
