<svg width="508" height="127" viewBox="0 0 508 127" fill="none" xmlns="http://www.w3.org/2000/svg">
<path d="M158.75 94.1148V34.925H169.158V94.1148H158.75Z" fill="#2F3343"/>
<path d="M209.691 89.0877C205.549 93.1959 200.494 95.25 194.523 95.25C188.553 95.25 183.497 93.1959 179.356 89.0877C175.268 84.9255 173.224 79.8444 173.224 73.8443C173.224 67.8443 175.268 62.7901 179.356 58.682C183.497 54.5198 188.553 52.4387 194.523 52.4387C200.494 52.4387 205.549 54.5198 209.691 58.682C213.832 62.7901 215.903 67.8443 215.903 73.8443C215.903 79.8444 213.832 84.9255 209.691 89.0877ZM186.697 81.8714C188.795 83.9796 191.404 85.0336 194.523 85.0336C197.643 85.0336 200.252 83.9796 202.349 81.8714C204.447 79.7633 205.496 77.0876 205.496 73.8443C205.496 70.601 204.447 67.9253 202.349 65.8172C200.252 63.7091 197.643 62.655 194.523 62.655C191.404 62.655 188.795 63.7091 186.697 65.8172C184.654 67.9253 183.632 70.601 183.632 73.8443C183.632 77.0876 184.654 79.7633 186.697 81.8714Z" fill="#2F3343"/>
<path d="M239.065 95.25C232.987 95.25 227.904 93.1959 223.816 89.0877C219.783 84.9796 217.766 79.8984 217.766 73.8443C217.766 67.7902 219.783 62.7091 223.816 58.6009C227.904 54.4928 232.987 52.4387 239.065 52.4387C242.991 52.4387 246.568 53.3846 249.795 55.2765C253.022 57.1685 255.469 59.709 257.137 62.8983L248.181 68.1686C247.375 66.4929 246.138 65.1685 244.47 64.1956C242.857 63.2226 241.028 62.7361 238.984 62.7361C235.865 62.7361 233.283 63.7902 231.239 65.8983C229.195 67.9524 228.173 70.601 228.173 73.8443C228.173 77.0335 229.195 79.6822 231.239 81.7904C233.283 83.8444 235.865 84.8715 238.984 84.8715C241.082 84.8715 242.937 84.412 244.551 83.4931C246.218 82.5201 247.455 81.1958 248.262 79.5201L257.298 84.7093C255.523 87.8985 253.022 90.4661 249.795 92.4121C246.568 94.304 242.991 95.25 239.065 95.25Z" fill="#2F3343"/>
<path d="M289.469 53.5738H299.876V94.1148H289.469V89.331C286.349 93.277 281.966 95.25 276.318 95.25C270.939 95.25 266.314 93.1959 262.441 89.0877C258.622 84.9255 256.713 79.8444 256.713 73.8443C256.713 67.8443 258.622 62.7901 262.441 58.682C266.314 54.5198 270.939 52.4387 276.318 52.4387C281.966 52.4387 286.349 54.4117 289.469 58.3577V53.5738ZM270.267 82.1147C272.365 84.2228 275.027 85.2769 278.254 85.2769C281.481 85.2769 284.144 84.2228 286.242 82.1147C288.393 79.9525 289.469 77.1957 289.469 73.8443C289.469 70.4929 288.393 67.7632 286.242 65.655C284.144 63.4929 281.481 62.4118 278.254 62.4118C275.027 62.4118 272.365 63.4929 270.267 65.655C268.169 67.7632 267.121 70.4929 267.121 73.8443C267.121 77.1957 268.169 79.9525 270.267 82.1147Z" fill="#2F3343"/>
<path d="M305.952 94.1148V34.925H316.36V94.1148H305.952Z" fill="#2F3343"/>
<path d="M345.598 63.628H336.481V80.493C336.481 81.8985 336.831 82.9255 337.53 83.5742C338.229 84.2228 339.251 84.6012 340.596 84.7093C341.941 84.7634 343.608 84.7363 345.598 84.6282V94.1148C338.445 94.9256 333.389 94.25 330.43 92.0878C327.526 89.9256 326.074 86.0607 326.074 80.493V63.628H319.055V53.5738H326.074V45.3845L336.481 42.2223V53.5738H345.598V63.628Z" fill="#2F3343"/>
<path d="M360.612 60.5469C361.58 57.9523 363.167 56.0063 365.372 54.709C367.631 53.4117 370.132 52.763 372.876 52.763V64.4388C369.702 64.0604 366.851 64.7091 364.324 66.3848C361.849 68.0605 360.612 70.8443 360.612 74.7362V94.1148H350.205V53.5738H360.612V60.5469Z" fill="#2F3343"/>
<path d="M404.762 53.5738H415.169V94.1148H404.762V89.331C401.642 93.277 397.259 95.25 391.611 95.25C386.232 95.25 381.607 93.1959 377.734 89.0877C373.916 84.9255 372.006 79.8444 372.006 73.8443C372.006 67.8443 373.916 62.7901 377.734 58.682C381.607 54.5198 386.232 52.4387 391.611 52.4387C397.259 52.4387 401.642 54.4117 404.762 58.3577V53.5738ZM385.56 82.1147C387.658 84.2228 390.32 85.2769 393.547 85.2769C396.775 85.2769 399.437 84.2228 401.535 82.1147C403.686 79.9525 404.762 77.1957 404.762 73.8443C404.762 70.4929 403.686 67.7632 401.535 65.655C399.437 63.4929 396.775 62.4118 393.547 62.4118C390.32 62.4118 387.658 63.4929 385.56 65.655C383.463 67.7632 382.414 70.4929 382.414 73.8443C382.414 77.1957 383.463 79.9525 385.56 82.1147Z" fill="#2F3343"/>
<path d="M451.823 37.3574H462.23V94.1148H451.823V89.331C448.757 93.277 444.4 95.25 438.753 95.25C433.32 95.25 428.668 93.1959 424.795 89.0877C420.976 84.9255 419.067 79.8444 419.067 73.8443C419.067 67.8443 420.976 62.7901 424.795 58.682C428.668 54.5198 433.32 52.4387 438.753 52.4387C444.4 52.4387 448.757 54.4117 451.823 58.3577V37.3574ZM432.621 82.1147C434.772 84.2228 437.462 85.2769 440.689 85.2769C443.916 85.2769 446.578 84.2228 448.676 82.1147C450.774 79.9525 451.823 77.1957 451.823 73.8443C451.823 70.4929 450.774 67.7632 448.676 65.655C446.578 63.4929 443.916 62.4118 440.689 62.4118C437.462 62.4118 434.772 63.4929 432.621 65.655C430.523 67.7632 429.474 70.4929 429.474 73.8443C429.474 77.1957 430.523 79.9525 432.621 82.1147Z" fill="#2F3343"/>
<path d="M477.181 78.1417C478.579 83.2228 482.371 85.7634 488.556 85.7634C492.537 85.7634 495.549 84.412 497.592 81.7093L505.983 86.5742C502.003 92.358 496.14 95.25 488.395 95.25C481.726 95.25 476.374 93.2229 472.34 89.1688C468.306 85.1147 466.289 80.0065 466.289 73.8443C466.289 67.7361 468.279 62.655 472.259 58.6009C476.239 54.4928 481.349 52.4387 487.588 52.4387C493.505 52.4387 498.372 54.4928 502.191 58.6009C506.064 62.7091 508 67.7902 508 73.8443C508 75.1957 507.866 76.6281 507.597 78.1417H477.181ZM477.019 70.0335H497.592C497.001 67.2767 495.764 65.2226 493.881 63.8712C492.052 62.5199 489.955 61.8442 487.588 61.8442C484.791 61.8442 482.479 62.5739 480.65 64.0334C478.821 65.4388 477.611 67.4388 477.019 70.0335Z" fill="#2F3343"/>
<g clip-path="url(#clip0)">
<path d="M108.453 85.592C108.453 85.592 73.0708 76.5719 42.3002 82.0979C42.3002 82.0979 81.5755 45.9432 81.5755 1.18966C81.5755 1.18966 71.5087 -0.445847 60.227 0.148884C60.227 0.148884 58.4853 30.3912 17.4626 76.2001C16.7489 76.997 16.1601 79.0374 15.4224 79.8429C15.4224 79.8429 24.6213 96.4459 29.7291 102.914C34.8121 109.381 97.593 103.607 97.593 103.607L108.453 85.592Z" fill="url(#paint0_linear)"/>
<path d="M125.413 24.781C122.735 17.9664 117.603 12.5395 109.396 8.1781C104.238 5.55137 93.7746 2.75117 81.5755 1.19C81.5755 2.23078 81.5755 3.46981 81.3771 4.68405C93.006 6.07176 101.213 10.3836 105.775 12.8368C112.445 16.3309 117.206 20.6427 119.884 27.1104C122.363 33.5781 119.834 38.0882 118.123 44.5559C114.305 58.1851 109.296 71.6161 102.255 84.2046C103.593 84.5516 107.313 85.4437 108.453 85.6171C115.495 73.0286 120.851 59.9198 124.843 46.117C126.752 39.1041 128.289 32.1161 125.413 24.781Z" fill="#5D606D"/>
<path d="M18.1007 76.8458C14.2878 66.6764 13.6376 55.3612 10.5878 44.5321C8.87697 38.0644 9.67041 35.1403 12.3483 28.6726C14.8278 22.0314 19.5884 19.479 26.4566 15.985C32.7546 12.6644 51.1524 12.8131 59.8555 3.61951C60.0539 2.40526 60.2274 1.3397 60.2274 0.125458C42.3254 0.472385 24.7706 4.48682 17.5304 8.17912C9.34807 12.367 4.19071 17.7692 1.53765 24.782C-1.31378 32.1171 0.39708 39.1052 2.30629 46.2667C5.55444 57.7896 9.94316 68.9904 15.4476 79.8195C16.3899 78.7787 17.1585 77.8866 18.1007 76.8458Z" fill="#00705C"/>
<path d="M93.2045 102.715C90.8986 102.418 77.6332 108.539 72.2775 112.726C67.7152 116.22 70.1451 122.54 63.8472 122.713C57.5493 122.54 53.9292 119.566 49.3669 115.898C43.8376 111.71 37.9364 107.597 33.9196 102.368C32.5807 102.542 31.0682 102.715 29.7293 102.889C34.8866 109.877 39.8208 115.304 45.3501 119.665C49.7388 122.986 55.6401 126.827 63.6488 127H63.8472H64.0456C72.0544 126.827 77.9556 122.986 82.3443 119.665C87.8736 115.477 92.6342 110.224 97.5932 103.582C95.8824 103.235 94.5434 102.889 93.2045 102.715Z" fill="#00705C"/>
<path d="M121.992 25.8242C119.512 19.183 114.355 14.6482 107.511 11.1541C102.949 8.70084 93.0311 6.07411 81.4022 4.6864C79.8649 22.8505 68.4344 56.7502 42.3253 82.1006C59.6818 79.8208 88.8407 81.2333 104.66 84.7274C111.702 72.1389 117.231 59.03 121.049 45.2273C122.959 38.933 124.471 32.4653 121.992 25.8242Z" fill="#464A58"/>
<path d="M19.4394 11.1284C12.7695 14.6224 7.63696 19.3555 5.15746 25.8232C2.67796 32.2909 4.21525 38.7586 5.92611 45.2263C8.97589 56.0554 13.1663 66.5375 18.1253 76.8462C34.7131 59.5494 55.6649 30.7049 59.88 3.61987C42.4987 3.9668 25.9357 7.80777 19.4394 11.1284Z" fill="#00826C"/>
<path d="M33.7459 102.368C37.7379 107.621 42.1266 112.677 47.6559 116.864C52.2182 120.359 57.1772 123.332 63.4751 123.506C69.7731 123.332 74.7321 120.532 79.2944 116.864C84.6253 112.677 89.014 107.77 93.0308 102.715C80.6333 100.782 60.4254 99.7411 33.7459 102.368Z" fill="#00826C"/>
<path d="M22.4892 14.8188C16.1912 18.1394 11.4306 22.3273 9.14945 28.448C6.86831 34.5688 8.20724 40.5161 9.9181 46.4387C12.596 56.0535 16.216 65.3214 20.6047 74.2176C35.6553 57.7881 53.954 32.2642 59.1114 7.80589C43.2674 8.35106 28.3904 11.6716 22.4892 14.8188Z" fill="#00957B"/>
<path d="M37.5399 102.022C40.788 106.036 44.4081 109.877 48.7968 113.198C52.9871 116.518 57.7478 119.145 63.6738 119.318C69.575 119.145 74.1621 116.518 78.5508 113.198C82.7411 109.877 86.3612 106.21 89.6093 102.195C77.3854 100.783 60.0537 100.089 37.5399 102.022Z" fill="#00957B"/>
<path d="M118 28.448C115.718 22.3272 110.759 17.9658 104.66 14.8187C100.271 12.5389 91.5185 10.2839 81.0302 8.8714C78.1788 27.7541 66.55 58.5067 42.3253 82.0977C58.5164 79.9914 85.0222 81.057 101.412 84.2041C108.28 72.3095 113.413 59.7457 117.033 46.6369C118.743 40.6648 120.281 34.544 118 28.448Z" fill="#2F3343"/>
</g>
<defs>
<linearGradient id="paint0_linear" x1="123.825" y1="7.93757" x2="14.2876" y2="98.4251" gradientUnits="userSpaceOnUse">
<stop stop-color="white"/>
<stop offset="1" stop-color="#EFEFEF"/>
</linearGradient>
<clipPath id="clip0">
<rect width="127" height="127" fill="white"/>
</clipPath>
</defs>
</svg>
