<svg width="512" height="512" viewBox="0 0 512 512" fill="none" xmlns="http://www.w3.org/2000/svg">
<path d="M331.666 249.529C344.349 251.325 356.668 254.812 366.774 264.509C376.413 274.679 379.965 286.952 381.642 299.613C384.498 320.433 382.466 340.251 378.743 359.705C377.924 363.747 377.105 367.788 376.192 371.736C411.714 363.624 445.048 350.832 476.101 333.737C488.728 326.803 501.07 319.309 507.176 305.378C513.376 291.446 512.338 276.059 507.168 260.229C501.807 243.931 478.77 208.504 449.578 179.218C420.386 150.026 384.945 126.975 368.672 121.541C352.775 116.293 337.468 115.265 323.522 121.362C309.575 127.459 302.051 139.803 295.186 152.425C277.558 184.453 264.543 218.797 256.425 255.456C261.486 254.297 266.548 253.232 271.704 252.26C291.017 248.663 310.81 246.659 331.666 249.529Z" fill="#2F3343"/>
<path d="M4.89149 251.572C10.2532 267.964 33.1958 303.391 62.4813 332.583C91.6729 361.775 127.114 384.826 143.388 390.26C159.284 395.508 174.591 396.536 188.538 390.439C202.484 384.342 210.008 371.998 216.873 359.376C234.502 327.348 247.516 293.004 255.635 256.345C250.573 257.504 245.511 258.569 240.355 259.541C220.855 263.233 201.062 265.237 180.206 262.367C167.523 260.571 155.204 257.084 145.098 247.387C135.459 237.217 131.907 224.944 130.23 212.283C127.374 191.463 129.406 171.645 133.13 152.191C133.948 148.149 134.767 144.108 135.68 140.16C100.158 148.273 66.8242 161.064 35.7709 178.159C23.1437 185.093 10.8017 192.587 4.69603 206.518C-1.31572 220.449 -0.372716 235.743 4.89149 251.572Z" fill="#00957B"/>
</svg>
