<svg width="650" height="223" viewBox="0 0 650 223" fill="none" xmlns="http://www.w3.org/2000/svg">
<path d="M281.939 77.748C290.771 77.748 298.131 80.8453 304.019 87.04C309.968 93.2347 312.943 100.871 312.943 109.948C312.943 119.025 309.968 126.661 304.019 132.856C298.131 139.051 290.771 142.148 281.939 142.148H256.363V77.748H281.939ZM281.939 130.004C287.52 130.004 292.059 128.164 295.555 124.484C299.051 120.743 300.799 115.897 300.799 109.948C300.799 103.999 299.051 99.184 295.555 95.504C292.059 91.7627 287.52 89.892 281.939 89.892H269.059V130.004H281.939Z" fill="#2F3343"/>
<path d="M331.425 124.024C333.019 129.789 337.343 132.672 344.397 132.672C348.935 132.672 352.37 131.139 354.701 128.072L364.269 133.592C359.73 140.155 353.045 143.436 344.213 143.436C336.607 143.436 330.505 141.136 325.905 136.536C321.305 131.936 319.005 126.14 319.005 119.148C319.005 112.217 321.274 106.452 325.813 101.852C330.351 97.1907 336.178 94.86 343.293 94.86C350.039 94.86 355.59 97.1907 359.945 101.852C364.361 106.513 366.569 112.279 366.569 119.148C366.569 120.681 366.415 122.307 366.109 124.024H331.425ZM331.241 114.824H354.701C354.026 111.696 352.615 109.365 350.469 107.832C348.383 106.299 345.991 105.532 343.293 105.532C340.103 105.532 337.466 106.36 335.381 108.016C333.295 109.611 331.915 111.88 331.241 114.824Z" fill="#2F3343"/>
<path d="M413.862 89.892H388.102V105.164H413.126V117.308H388.102V142.148H375.406V77.748H413.862V89.892Z" fill="#2F3343"/>
<path d="M428.449 90.628C426.486 90.628 424.769 89.9227 423.297 88.512C421.886 87.04 421.181 85.3227 421.181 83.36C421.181 81.3973 421.886 79.68 423.297 78.208C424.769 76.736 426.486 76 428.449 76C430.473 76 432.19 76.736 433.601 78.208C435.073 79.68 435.809 81.3973 435.809 83.36C435.809 85.3227 435.073 87.04 433.601 88.512C432.19 89.9227 430.473 90.628 428.449 90.628ZM422.561 142.148V96.148H434.429V142.148H422.561Z" fill="#2F3343"/>
<path d="M481.539 130.004H506.103V142.148H468.843V77.748H481.539V130.004Z" fill="#2F3343"/>
<path d="M546.825 96.148H558.693V142.148H546.825V136.72C543.268 141.197 538.269 143.436 531.829 143.436C525.696 143.436 520.421 141.105 516.005 136.444C511.651 131.721 509.473 125.956 509.473 119.148C509.473 112.34 511.651 106.605 516.005 101.944C520.421 97.2213 525.696 94.86 531.829 94.86C538.269 94.86 543.268 97.0987 546.825 101.576V96.148ZM524.929 128.532C527.321 130.924 530.357 132.12 534.037 132.12C537.717 132.12 540.753 130.924 543.145 128.532C545.599 126.079 546.825 122.951 546.825 119.148C546.825 115.345 545.599 112.248 543.145 109.856C540.753 107.403 537.717 106.176 534.037 106.176C530.357 106.176 527.321 107.403 524.929 109.856C522.537 112.248 521.341 115.345 521.341 119.148C521.341 122.951 522.537 126.079 524.929 128.532Z" fill="#2F3343"/>
<path d="M596.227 94.86C602.422 94.86 607.697 97.2213 612.051 101.944C616.467 106.605 618.675 112.34 618.675 119.148C618.675 125.956 616.467 131.721 612.051 136.444C607.697 141.105 602.422 143.436 596.227 143.436C589.787 143.436 584.819 141.197 581.323 136.72V142.148H569.455V77.748H581.323V101.576C584.819 97.0987 589.787 94.86 596.227 94.86ZM584.911 128.532C587.303 130.924 590.339 132.12 594.019 132.12C597.699 132.12 600.735 130.924 603.127 128.532C605.581 126.079 606.807 122.951 606.807 119.148C606.807 115.345 605.581 112.248 603.127 109.856C600.735 107.403 597.699 106.176 594.019 106.176C590.339 106.176 587.303 107.403 584.911 109.856C582.519 112.248 581.323 115.345 581.323 119.148C581.323 122.951 582.519 126.079 584.911 128.532Z" fill="#2F3343"/>
<path d="M143.808 108.194C149.308 108.973 154.649 110.485 159.031 114.69C163.21 119.099 164.75 124.421 165.478 129.911C166.716 138.938 165.835 147.531 164.22 155.966C163.865 157.719 163.51 159.471 163.114 161.183C178.517 157.665 192.97 152.119 206.435 144.706C211.91 141.7 217.261 138.451 219.908 132.41C222.596 126.369 222.147 119.698 219.905 112.834C217.58 105.767 207.592 90.4063 194.934 77.7081C182.277 65.0505 166.91 55.0558 159.854 52.6999C152.961 50.4243 146.324 49.9785 140.277 52.6221C134.23 55.2656 130.967 60.6182 127.991 66.091C120.347 79.9777 114.704 94.8692 111.184 110.764C113.379 110.262 115.573 109.8 117.809 109.379C126.183 107.819 134.765 106.95 143.808 108.194Z" fill="#2F3343"/>
<path d="M2.12089 109.08C4.44568 116.187 14.3935 131.548 27.0915 144.206C39.7488 156.863 55.1158 166.858 62.1719 169.214C69.0647 171.489 75.7015 171.935 81.7487 169.292C87.7959 166.648 91.0582 161.296 94.0348 155.823C101.678 141.936 107.321 127.045 110.842 111.149C108.647 111.652 106.452 112.114 104.216 112.535C95.7613 114.136 87.1794 115.005 78.1362 113.761C72.6368 112.982 67.2955 111.47 62.9137 107.265C58.7341 102.856 57.1941 97.534 56.4669 92.0443C55.2287 83.017 56.1096 74.4239 57.7241 65.9888C58.0791 64.2364 58.4342 62.4841 58.8302 60.7722C43.4278 64.2898 28.9745 69.8363 15.51 77.2486C10.0349 80.2548 4.6835 83.5044 2.03615 89.5448C-0.570512 95.585 -0.161631 102.216 2.12089 109.08Z" fill="#00957B"/>
</svg>
