<svg width="512" height="512" viewBox="0 0 512 512" fill="none" xmlns="http://www.w3.org/2000/svg">
<path opacity="0.9" d="M361.368 31.8108C385.868 41.1673 403.275 61.0095 416.492 86.4979C430.031 112.793 445.505 183.612 445.988 254.753C446.472 325.734 431.965 396.875 418.749 423.332C406.015 448.981 388.769 469.146 364.431 478.825C340.253 488.504 316.076 482.858 292.221 476.083C225.331 457.047 161.665 427.848 101.705 387.519C73.4986 368.644 46.7425 347.189 24.6607 318.474C11.4439 300.891 0.805906 281.855 0 257.818C0.483543 233.782 10.9603 214.424 24.016 196.84C45.6143 167.964 72.048 146.025 99.9323 126.666C159.569 85.6913 222.591 55.3634 289.32 35.5211C313.014 28.4231 337.03 22.4543 361.368 31.8108Z" fill="#2F3343"/>
<path d="M149.76 31.8125C125.224 41.1723 107.79 60.8601 94.5527 86.5189C80.9929 112.823 65.4961 183.667 65.0118 254.834C64.5275 325.839 79.0558 397.006 92.2928 423.471C105.045 449.13 122.318 469.141 146.693 478.823C170.907 488.506 195.121 482.858 219.012 476.08C286.004 457.038 349.767 427.829 409.817 387.485C438.067 368.604 464.864 347.141 486.979 318.416C500.377 300.987 511.193 281.784 512 257.739C511.516 233.694 501.023 214.328 487.948 196.739C466.316 167.852 439.843 145.905 411.916 126.54C352.027 85.712 288.748 55.3734 221.918 35.5241C198.188 28.4236 174.136 22.4527 149.76 31.8125Z" fill="#00957B"/>
<path d="M354 315.766C354 315.766 282.45 297.569 220.268 308.68C220.268 308.68 299.732 235.729 299.732 145.386C299.732 145.386 279.381 142.004 256.608 143.293C256.608 143.293 253.216 208.997 166 304.01C166 304.01 184.735 337.345 194.911 350.551C277.282 339.6 332.196 352 332.196 352L354 315.766Z" fill="white"/>
<path d="M327 176L274.08 159.786L221 176L274.08 121L327 176Z" fill="white"/>
<path d="M231.631 192.431V192.269C270.39 179.35 303.657 184.679 309.956 185.809C310.117 185.809 310.117 185.809 310.117 185.809V185.971C310.117 185.971 310.117 185.971 309.956 185.971C303.657 184.84 270.39 179.673 231.631 192.431Z" fill="#00957B"/>
<path d="M226.463 200.828L226.302 200.505C263.768 188.07 296.39 191.784 305.595 193.076C305.757 193.076 305.918 193.076 305.918 193.076V193.399C305.918 193.399 305.757 193.399 305.595 193.399C296.39 192.107 263.768 188.554 226.463 200.828Z" fill="#00957B"/>
<path d="M221.134 209.226L220.973 208.58C258.278 196.145 291.868 199.052 301.235 200.344C301.558 200.344 301.558 200.344 301.72 200.344V200.99C301.72 200.99 301.558 200.99 301.235 200.99C291.707 199.86 258.278 196.953 221.134 209.226Z" fill="#00957B"/>
<path d="M215.966 217.623L215.643 216.816C252.787 204.381 287.185 206.642 296.875 207.611C297.198 207.611 297.359 207.611 297.359 207.611V208.418C297.359 208.418 297.036 208.418 296.713 208.418C287.185 207.611 252.948 205.35 215.966 217.623Z" fill="#00957B"/>
<path d="M210.637 226.022L210.314 225.053C246.489 212.941 279.918 214.071 292.514 215.04C292.837 215.04 292.999 215.04 293.16 215.04V216.009C293.16 216.009 292.837 216.009 292.514 216.009C279.918 215.04 246.65 214.071 210.637 226.022Z" fill="#00957B"/>
<path d="M205.469 234.419L205.146 233.288C241.482 221.015 275.558 221.66 288.477 222.306C288.8 222.306 288.962 222.306 289.123 222.306V223.598C289.123 223.598 288.8 223.598 288.477 223.598C275.396 222.791 241.644 222.306 205.469 234.419Z" fill="#00957B"/>
<path d="M200.14 242.817L199.655 241.525C236.153 229.251 270.874 229.09 284.117 229.736C284.44 229.736 284.601 229.736 284.763 229.736V231.189C284.601 231.189 284.44 231.189 284.117 231.189C273.942 230.705 237.606 230.22 200.14 242.817Z" fill="#00957B"/>
<path d="M194.972 251.214L194.487 249.761C232.439 236.841 269.582 236.841 280.079 237.164H280.564V238.779H280.079C269.582 238.456 232.762 238.456 194.972 251.214Z" fill="#00957B"/>
<path d="M189.643 259.612L188.997 257.836C227.594 244.755 265.222 244.109 275.88 244.27H276.203V246.046H275.88C265.383 246.046 228.078 246.692 189.643 259.612Z" fill="#00957B"/>
<path d="M184.475 268.01L183.829 266.072C224.041 252.345 263.768 251.699 271.843 251.699H272.005L272.166 253.637H272.005H271.843C263.93 253.799 224.525 254.445 184.475 268.01Z" fill="#00957B"/>
<path d="M179.307 276.407L178.661 274.308C223.072 259.127 267.644 258.966 267.967 258.966V261.227C267.483 261.227 223.233 261.388 179.307 276.407Z" fill="#00957B"/>
<path d="M173.978 284.806L173.17 282.545C217.742 267.203 263.284 266.396 263.607 266.396V268.818C263.284 268.818 218.227 269.787 173.978 284.806Z" fill="#00957B"/>
<path d="M168.81 293.203L168.002 290.78C212.575 275.439 259.085 273.662 259.57 273.662V276.246C259.085 276.246 212.898 278.022 168.81 293.203Z" fill="#00957B"/>
<path d="M163.481 301.601L162.512 298.856C204.339 284.483 250.203 280.93 255.209 280.93V283.837C254.886 283.837 208.214 286.259 163.481 301.601Z" fill="#00957B"/>
<path d="M158.313 309.998L157.344 307.091C200.14 292.395 247.135 288.196 251.01 288.196V291.265C247.135 291.265 200.624 295.464 158.313 309.998Z" fill="#00957B"/>
<path d="M152.983 318.396L151.853 315.327C195.295 300.308 243.42 295.625 246.65 295.625V298.855C243.582 298.855 196.102 303.538 152.983 318.396Z" fill="#00957B"/>
<path d="M147.816 326.794L146.685 323.564C191.096 308.222 239.706 302.893 242.613 302.893V306.284C239.706 306.284 191.742 311.613 147.816 326.794Z" fill="#00957B"/>
</svg>
