<svg width="665" height="225" viewBox="0 0 665 225" fill="none" xmlns="http://www.w3.org/2000/svg">
<g clip-path="url(#clip0)">
<path opacity="0.9" d="M156.826 13.8051C167.458 17.8656 175.013 26.4767 180.749 37.5381C186.624 48.9495 193.34 79.6835 193.549 110.557C193.759 141.361 187.464 172.235 181.728 183.717C176.202 194.848 168.717 203.599 158.155 207.8C147.663 212 137.17 209.55 126.818 206.61C97.7889 198.349 70.159 185.677 44.1379 168.175C31.8968 159.984 20.2853 150.673 10.7022 138.211C4.96639 130.58 0.349746 122.319 0 111.888C0.209848 101.456 4.75654 93.0552 10.4224 85.4242C19.7956 72.8926 31.2673 63.3714 43.3685 54.9703C69.2497 37.1881 96.5998 24.0264 125.559 15.4153C135.841 12.3349 146.264 9.74456 156.826 13.8051Z" fill="#00705C"/>
<path d="M64.9928 13.8058C54.3444 17.8678 46.7784 26.4119 41.0339 37.5472C35.1492 48.9627 28.4239 79.7075 28.2137 110.592C28.0036 141.407 34.3085 172.292 40.0531 183.777C45.5875 194.913 53.0834 203.597 63.6618 207.799C74.1701 212.001 84.6784 209.55 95.0466 206.608C124.12 198.344 151.791 185.668 177.852 168.16C190.112 159.966 201.741 150.652 211.338 138.186C217.153 130.622 221.847 122.288 222.197 111.853C221.987 101.418 217.433 93.0139 211.759 85.3802C202.371 72.8442 190.882 63.3196 178.763 54.9156C152.772 37.197 125.31 24.0307 96.3075 15.4166C86.0094 12.3351 75.5712 9.74386 64.9928 13.8058Z" fill="#00957B"/>
<path d="M153.628 137.036C153.628 137.036 122.577 129.139 95.5916 133.961C95.5916 133.961 130.077 102.302 130.077 63.0947C130.077 63.0947 121.246 61.627 111.363 62.1861C111.363 62.1861 109.891 90.7003 72.0405 131.934C72.0405 131.934 80.1712 146.401 84.5871 152.132C120.334 147.379 144.166 152.761 144.166 152.761L153.628 137.036Z" fill="white"/>
<path d="M141.911 76.3801L118.945 69.3436L95.9093 76.3801L118.945 52.5112L141.911 76.3801Z" fill="white"/>
<path d="M100.523 83.5106V83.4405C117.343 77.8337 131.781 80.1465 134.514 80.6371C134.584 80.6371 134.584 80.6371 134.584 80.6371V80.7072C134.584 80.7072 134.584 80.7072 134.514 80.7072C131.781 80.2166 117.343 77.9739 100.523 83.5106Z" fill="#00957B"/>
<path d="M98.2802 87.1549L98.2101 87.0147C114.47 81.6182 128.627 83.2301 132.622 83.7908C132.692 83.7908 132.762 83.7908 132.762 83.7908V83.931C132.762 83.931 132.692 83.931 132.622 83.931C128.627 83.3703 114.47 81.8284 98.2802 87.1549Z" fill="#00957B"/>
<path d="M95.9674 90.7998L95.8973 90.5194C112.087 85.1229 126.665 86.3844 130.73 86.9451C130.87 86.9451 130.87 86.9451 130.94 86.9451V87.2254C130.94 87.2254 130.87 87.2254 130.73 87.2254C126.595 86.7348 112.087 85.4733 95.9674 90.7998Z" fill="#00957B"/>
<path d="M93.7247 94.444L93.5845 94.0935C109.704 88.697 124.632 89.6782 128.837 90.0987C128.977 90.0987 129.048 90.0987 129.048 90.0987V90.4491C129.048 90.4491 128.907 90.4491 128.767 90.4491C124.632 90.0987 109.774 89.1175 93.7247 94.444Z" fill="#00957B"/>
<path d="M91.4119 98.0884L91.2717 97.6679C106.971 92.4115 121.478 92.9021 126.945 93.3226C127.085 93.3226 127.155 93.3226 127.225 93.3226V93.7431C127.225 93.7431 127.085 93.7431 126.945 93.7431C121.478 93.3226 107.041 92.9021 91.4119 98.0884Z" fill="#00957B"/>
<path d="M89.1692 101.733L89.0291 101.242C104.798 95.9158 119.586 96.1961 125.193 96.4764C125.333 96.4764 125.403 96.4764 125.473 96.4764V97.0371C125.473 97.0371 125.333 97.0371 125.193 97.0371C119.516 96.6867 104.868 96.4764 89.1692 101.733Z" fill="#00957B"/>
<path d="M86.8564 105.377L86.6461 104.816C102.485 99.4898 117.554 99.4197 123.301 99.7001C123.441 99.7001 123.511 99.7001 123.581 99.7001V100.331C123.511 100.331 123.441 100.331 123.301 100.331C118.885 100.121 103.116 99.9103 86.8564 105.377Z" fill="#00957B"/>
<path d="M84.6137 109.022L84.4034 108.391C100.873 102.784 116.993 102.784 121.548 102.924H121.759V103.625H121.548C116.993 103.485 101.014 103.485 84.6137 109.022Z" fill="#00957B"/>
<path d="M82.3009 112.666L82.0206 111.895C98.7709 106.218 115.101 105.938 119.726 106.008H119.866V106.779H119.726C115.171 106.779 98.9811 107.059 82.3009 112.666Z" fill="#00957B"/>
<path d="M80.0582 116.311L79.7778 115.47C97.229 109.512 114.47 109.232 117.974 109.232H118.044L118.114 110.073H118.044H117.974C114.54 110.143 97.4392 110.423 80.0582 116.311Z" fill="#00957B"/>
<path d="M77.8154 119.955L77.5351 119.044C96.8085 112.456 116.152 112.386 116.292 112.386V113.367C116.082 113.367 96.8785 113.437 77.8154 119.955Z" fill="#00957B"/>
<path d="M75.5026 123.6L75.1522 122.618C94.4956 115.96 114.26 115.61 114.4 115.61V116.661C114.26 116.661 94.7059 117.082 75.5026 123.6Z" fill="#00957B"/>
<path d="M73.2599 127.243L72.9095 126.192C92.2529 119.534 112.437 118.763 112.648 118.763V119.885C112.437 119.885 92.3931 120.655 73.2599 127.243Z" fill="#00957B"/>
<path d="M70.9471 130.888L70.5266 129.697C88.6786 123.459 108.583 121.917 110.755 121.917V123.179C110.615 123.179 90.3606 124.23 70.9471 130.888Z" fill="#00957B"/>
<path d="M68.7044 134.532L68.2839 133.271C86.8564 126.893 107.251 125.071 108.933 125.071V126.402C107.251 126.402 87.0666 128.225 68.7044 134.532Z" fill="#00957B"/>
<path d="M66.3915 138.177L65.9009 136.845C84.7538 130.327 105.639 128.295 107.041 128.295V129.697C105.709 129.697 85.1042 131.729 66.3915 138.177Z" fill="#00957B"/>
<path d="M64.1489 141.821L63.6583 140.42C82.9316 133.762 104.027 131.449 105.289 131.449V132.921C104.027 132.921 83.212 135.233 64.1489 141.821Z" fill="#00957B"/>
</g>
<path d="M266.804 88.0244H284.96V97.0004H257.42V49.4004H266.804V88.0244Z" fill="#F4F6F9"/>
<path d="M318.187 92.7844C314.696 96.2297 310.435 97.9524 305.403 97.9524C300.371 97.9524 296.11 96.2297 292.619 92.7844C289.174 89.2937 287.451 85.0324 287.451 80.0004C287.451 74.9683 289.174 70.7297 292.619 67.2844C296.11 63.7937 300.371 62.0484 305.403 62.0484C310.435 62.0484 314.696 63.7937 318.187 67.2844C321.678 70.7297 323.423 74.9683 323.423 80.0004C323.423 85.0324 321.678 89.2937 318.187 92.7844ZM298.807 86.7324C300.575 88.5004 302.774 89.3844 305.403 89.3844C308.032 89.3844 310.231 88.5004 311.999 86.7324C313.767 84.9644 314.651 82.7204 314.651 80.0004C314.651 77.2804 313.767 75.0364 311.999 73.2684C310.231 71.5004 308.032 70.6164 305.403 70.6164C302.774 70.6164 300.575 71.5004 298.807 73.2684C297.084 75.0364 296.223 77.2804 296.223 80.0004C296.223 82.7204 297.084 84.9644 298.807 86.7324Z" fill="#F4F6F9"/>
<path d="M345.778 97.9524C340.655 97.9524 336.371 96.2297 332.926 92.7844C329.526 89.339 327.826 85.0777 327.826 80.0004C327.826 74.923 329.526 70.6617 332.926 67.2164C336.371 63.771 340.655 62.0484 345.778 62.0484C349.087 62.0484 352.102 62.8417 354.822 64.4284C357.542 66.015 359.605 68.1457 361.01 70.8204L353.462 75.2404C352.782 73.835 351.739 72.7244 350.334 71.9083C348.974 71.0923 347.433 70.6844 345.71 70.6844C343.081 70.6844 340.905 71.5684 339.182 73.3364C337.459 75.059 336.598 77.2804 336.598 80.0004C336.598 82.675 337.459 84.8964 339.182 86.6644C340.905 88.387 343.081 89.2484 345.71 89.2484C347.478 89.2484 349.042 88.863 350.402 88.0924C351.807 87.2764 352.85 86.1657 353.53 84.7604L361.146 89.1124C359.65 91.787 357.542 93.9403 354.822 95.5723C352.102 97.159 349.087 97.9524 345.778 97.9524Z" fill="#F4F6F9"/>
<path d="M391.094 63.0004H399.866V97.0004H391.094V92.9883C388.465 96.2977 384.77 97.9524 380.01 97.9524C375.477 97.9524 371.578 96.2297 368.314 92.7844C365.096 89.2937 363.486 85.0324 363.486 80.0004C363.486 74.9683 365.096 70.7297 368.314 67.2844C371.578 63.7937 375.477 62.0484 380.01 62.0484C384.77 62.0484 388.465 63.703 391.094 67.0124V63.0004ZM374.91 86.9364C376.678 88.7044 378.922 89.5884 381.642 89.5884C384.362 89.5884 386.606 88.7044 388.374 86.9364C390.188 85.123 391.094 82.811 391.094 80.0004C391.094 77.1897 390.188 74.9004 388.374 73.1324C386.606 71.319 384.362 70.4124 381.642 70.4124C378.922 70.4124 376.678 71.319 374.91 73.1324C373.142 74.9004 372.258 77.1897 372.258 80.0004C372.258 82.811 373.142 85.123 374.91 86.9364Z" fill="#F4F6F9"/>
<path d="M407.821 97.0004V47.3604H416.593V97.0004H407.821Z" fill="#F4F6F9"/>
<path d="M456.513 49.4004V58.3764H443.661V97.0004H434.277V58.3764H421.493V49.4004H456.513Z" fill="#F4F6F9"/>
<path d="M465.8 68.8484C466.616 66.6724 467.953 65.0404 469.812 63.9524C471.716 62.8643 473.824 62.3203 476.136 62.3203V72.1124C473.461 71.795 471.058 72.339 468.928 73.7444C466.842 75.1497 465.8 77.4844 465.8 80.7484V97.0004H457.028V63.0004H465.8V68.8484Z" fill="#F4F6F9"/>
<path d="M505.844 63.0004H514.616V97.0004H505.844V92.9883C503.215 96.2977 499.52 97.9524 494.76 97.9524C490.227 97.9524 486.328 96.2297 483.064 92.7844C479.846 89.2937 478.236 85.0324 478.236 80.0004C478.236 74.9683 479.846 70.7297 483.064 67.2844C486.328 63.7937 490.227 62.0484 494.76 62.0484C499.52 62.0484 503.215 63.703 505.844 67.0124V63.0004ZM489.66 86.9364C491.428 88.7044 493.672 89.5884 496.392 89.5884C499.112 89.5884 501.356 88.7044 503.124 86.9364C504.938 85.123 505.844 82.811 505.844 80.0004C505.844 77.1897 504.938 74.9004 503.124 73.1324C501.356 71.319 499.112 70.4124 496.392 70.4124C493.672 70.4124 491.428 71.319 489.66 73.1324C487.892 74.9004 487.008 77.1897 487.008 80.0004C487.008 82.811 487.892 85.123 489.66 86.9364Z" fill="#F4F6F9"/>
<path d="M548.343 49.4004H557.115V97.0004H548.343V92.9883C545.759 96.2977 542.087 97.9524 537.327 97.9524C532.748 97.9524 528.827 96.2297 525.563 92.7844C522.344 89.2937 520.735 85.0324 520.735 80.0004C520.735 74.9683 522.344 70.7297 525.563 67.2844C528.827 63.7937 532.748 62.0484 537.327 62.0484C542.087 62.0484 545.759 63.703 548.343 67.0124V49.4004ZM532.159 86.9364C533.972 88.7044 536.239 89.5884 538.959 89.5884C541.679 89.5884 543.923 88.7044 545.691 86.9364C547.459 85.123 548.343 82.811 548.343 80.0004C548.343 77.1897 547.459 74.9004 545.691 73.1324C543.923 71.319 541.679 70.4124 538.959 70.4124C536.239 70.4124 533.972 71.319 532.159 73.1324C530.391 74.9004 529.507 77.1897 529.507 80.0004C529.507 82.811 530.391 85.123 532.159 86.9364Z" fill="#F4F6F9"/>
<path d="M572.549 83.6044C573.728 87.8657 576.924 89.9964 582.137 89.9964C585.492 89.9964 588.03 88.863 589.753 86.5964L596.825 90.6764C593.47 95.527 588.529 97.9524 582.001 97.9524C576.38 97.9524 571.869 96.2524 568.469 92.8524C565.069 89.4524 563.369 85.1684 563.369 80.0004C563.369 74.8777 565.046 70.6164 568.401 67.2164C571.756 63.771 576.062 62.0484 581.321 62.0484C586.308 62.0484 590.41 63.771 593.629 67.2164C596.893 70.6617 598.525 74.923 598.525 80.0004C598.525 81.1337 598.412 82.335 598.185 83.6044H572.549ZM572.413 76.8043H589.753C589.254 74.4923 588.212 72.7697 586.625 71.6364C585.084 70.503 583.316 69.9363 581.321 69.9363C578.964 69.9363 577.014 70.5484 575.473 71.7724C573.932 72.951 572.912 74.6283 572.413 76.8043Z" fill="#F4F6F9"/>
<path d="M266.804 170.024H284.96V179H257.42V131.4H266.804V170.024Z" fill="#F4F6F9"/>
<path d="M315.059 145H323.831V179H315.059V174.988C312.43 178.298 308.735 179.952 303.975 179.952C299.442 179.952 295.543 178.23 292.279 174.784C289.06 171.294 287.451 167.032 287.451 162C287.451 156.968 289.06 152.73 292.279 149.284C295.543 145.794 299.442 144.048 303.975 144.048C308.735 144.048 312.43 145.703 315.059 149.012V145ZM298.875 168.936C300.643 170.704 302.887 171.588 305.607 171.588C308.327 171.588 310.571 170.704 312.339 168.936C314.152 167.123 315.059 164.811 315.059 162C315.059 159.19 314.152 156.9 312.339 155.132C310.571 153.319 308.327 152.412 305.607 152.412C302.887 152.412 300.643 153.319 298.875 155.132C297.107 156.9 296.223 159.19 296.223 162C296.223 164.811 297.107 167.123 298.875 168.936Z" fill="#F4F6F9"/>
<path d="M354.225 145H362.997V179H354.225V175.192C352.095 178.366 348.717 179.952 344.093 179.952C340.376 179.952 337.293 178.706 334.845 176.212C332.443 173.719 331.241 170.274 331.241 165.876V145H340.013V164.788C340.013 167.055 340.625 168.8 341.849 170.024C343.073 171.203 344.705 171.792 346.745 171.792C349.012 171.792 350.825 171.09 352.185 169.684C353.545 168.279 354.225 166.171 354.225 163.36V145Z" fill="#F4F6F9"/>
<path d="M389.936 144.048C393.653 144.048 396.713 145.295 399.116 147.788C401.564 150.282 402.788 153.727 402.788 158.124V179H394.016V159.212C394.016 156.946 393.404 155.223 392.18 154.044C390.956 152.82 389.324 152.208 387.284 152.208C385.017 152.208 383.204 152.911 381.844 154.316C380.484 155.722 379.804 157.83 379.804 160.64V179H371.032V145H379.804V148.808C381.934 145.635 385.312 144.048 389.936 144.048Z" fill="#F4F6F9"/>
<path d="M426.462 179.952C421.339 179.952 417.055 178.23 413.61 174.784C410.21 171.339 408.51 167.078 408.51 162C408.51 156.923 410.21 152.662 413.61 149.216C417.055 145.771 421.339 144.048 426.462 144.048C429.771 144.048 432.786 144.842 435.506 146.428C438.226 148.015 440.288 150.146 441.694 152.82L434.146 157.24C433.466 155.835 432.423 154.724 431.018 153.908C429.658 153.092 428.116 152.684 426.394 152.684C423.764 152.684 421.588 153.568 419.866 155.336C418.143 157.059 417.282 159.28 417.282 162C417.282 164.675 418.143 166.896 419.866 168.664C421.588 170.387 423.764 171.248 426.394 171.248C428.162 171.248 429.726 170.863 431.086 170.092C432.491 169.276 433.534 168.166 434.214 166.76L441.83 171.112C440.334 173.787 438.226 175.94 435.506 177.572C432.786 179.159 429.771 179.952 426.462 179.952Z" fill="#F4F6F9"/>
<path d="M465.373 144.048C469.09 144.048 472.15 145.295 474.553 147.788C477.001 150.282 478.225 153.727 478.225 158.124V179H469.453V159.212C469.453 156.946 468.841 155.223 467.617 154.044C466.393 152.82 464.761 152.208 462.721 152.208C460.454 152.208 458.641 152.911 457.281 154.316C455.921 155.722 455.241 157.83 455.241 160.64V179H446.469V131.4H455.241V148.808C457.372 145.635 460.749 144.048 465.373 144.048Z" fill="#F4F6F9"/>
<path d="M505.503 144.048C510.082 144.048 513.98 145.794 517.199 149.284C520.463 152.73 522.095 156.968 522.095 162C522.095 167.032 520.463 171.294 517.199 174.784C513.98 178.23 510.082 179.952 505.503 179.952C500.743 179.952 497.071 178.298 494.487 174.988V192.6H485.715V145H494.487V149.012C497.071 145.703 500.743 144.048 505.503 144.048ZM497.139 168.936C498.907 170.704 501.151 171.588 503.871 171.588C506.591 171.588 508.835 170.704 510.603 168.936C512.416 167.123 513.323 164.811 513.323 162C513.323 159.19 512.416 156.9 510.603 155.132C508.835 153.319 506.591 152.412 503.871 152.412C501.151 152.412 498.907 153.319 497.139 155.132C495.371 156.9 494.487 159.19 494.487 162C494.487 164.811 495.371 167.123 497.139 168.936Z" fill="#F4F6F9"/>
<path d="M554.122 145H562.894V179H554.122V174.988C551.492 178.298 547.798 179.952 543.038 179.952C538.504 179.952 534.606 178.23 531.342 174.784C528.123 171.294 526.514 167.032 526.514 162C526.514 156.968 528.123 152.73 531.342 149.284C534.606 145.794 538.504 144.048 543.038 144.048C547.798 144.048 551.492 145.703 554.122 149.012V145ZM537.938 168.936C539.706 170.704 541.95 171.588 544.67 171.588C547.39 171.588 549.634 170.704 551.402 168.936C553.215 167.123 554.122 164.811 554.122 162C554.122 159.19 553.215 156.9 551.402 155.132C549.634 153.319 547.39 152.412 544.67 152.412C541.95 152.412 539.706 153.319 537.938 155.132C536.17 156.9 535.286 159.19 535.286 162C535.286 164.811 536.17 167.123 537.938 168.936Z" fill="#F4F6F9"/>
<path d="M596.62 131.4H605.392V179H596.62V174.988C594.036 178.298 590.364 179.952 585.604 179.952C581.025 179.952 577.104 178.23 573.84 174.784C570.621 171.294 569.012 167.032 569.012 162C569.012 156.968 570.621 152.73 573.84 149.284C577.104 145.794 581.025 144.048 585.604 144.048C590.364 144.048 594.036 145.703 596.62 149.012V131.4ZM580.436 168.936C582.249 170.704 584.516 171.588 587.236 171.588C589.956 171.588 592.2 170.704 593.968 168.936C595.736 167.123 596.62 164.811 596.62 162C596.62 159.19 595.736 156.9 593.968 155.132C592.2 153.319 589.956 152.412 587.236 152.412C584.516 152.412 582.249 153.319 580.436 155.132C578.668 156.9 577.784 159.19 577.784 162C577.784 164.811 578.668 167.123 580.436 168.936Z" fill="#F4F6F9"/>
<defs>
<clipPath id="clip0">
<rect width="222.197" height="222.197" fill="white"/>
</clipPath>
</defs>
</svg>
