<svg width="600" height="222" viewBox="0 0 600 222" fill="none" xmlns="http://www.w3.org/2000/svg">
<path d="M166.163 80.237C163.873 74.0553 158.836 69.7052 152.655 66.4999C146.015 63.2945 128.615 59.4023 111.214 59.4023C93.8139 59.4023 76.4135 63.2945 69.7739 66.4999C63.5922 69.7052 58.5553 74.0553 56.2657 80.237C53.9762 86.4187 55.3499 92.3714 57.1815 98.3242C61.9895 115.038 69.316 131.064 79.1609 146.175C83.9689 153.273 89.2348 159.912 96.3323 165.407C100.682 168.841 105.261 171.36 111.214 171.589C117.167 171.36 121.746 168.841 126.096 165.407C133.194 159.912 138.459 153.273 143.267 146.175C153.341 131.064 160.668 115.267 165.247 98.3242C167.078 92.3714 168.452 86.4187 166.163 80.237Z" fill="#00957B"/>
<path d="M94.5005 130.606C117.625 106.566 126.325 73.1395 125.18 60.0892C124.951 60.0892 124.493 60.0892 124.264 60.0892C122.891 59.8602 121.288 59.8602 119.685 59.6313C116.938 59.4023 114.19 59.4023 111.214 59.4023C110.298 59.4023 109.611 59.4023 108.695 59.4023C107.78 86.8766 84.8845 116.869 70.4605 131.522C73.2079 136.559 75.9554 141.367 79.1607 146.175C79.8475 147.091 80.3054 147.778 80.9923 148.694C111.214 144.573 131.82 147.091 140.978 149.38C141.665 148.236 142.58 147.091 143.267 145.946C145.786 142.283 148.075 138.391 150.136 134.728C141.436 130.606 110.985 128.317 94.5005 130.606Z" fill="white"/>
<path d="M43.1448 190.529C43.7601 190.881 44.4633 191.232 44.9906 191.496C45.6059 191.759 46.2212 192.023 46.7486 192.287C47.8912 192.814 48.946 193.254 50.0007 193.517C51.0555 193.869 51.9344 194.045 52.8134 194.308C53.6923 194.484 54.4834 194.66 55.1866 194.66C58.0871 194.923 59.9329 194.484 61.0756 193.781C62.2182 193.078 62.7456 192.111 62.9214 191.408C63.0972 190.705 63.0972 190.09 63.0972 190.09C63.0972 190.09 62.9214 190.002 62.6577 189.826C62.394 189.65 61.9545 189.386 61.3393 189.035C60.8119 188.771 60.1087 188.42 59.3176 188.156C58.5266 187.892 57.7355 187.541 56.7687 187.277C55.8897 187.013 54.835 186.926 53.7802 186.838C52.7255 186.75 51.6707 186.75 50.4402 187.014C48.2428 187.453 45.7817 188.42 43.1448 190.529Z" fill="#00826C"/>
<path d="M60.1085 170.842C60.3722 171.281 60.7238 171.809 60.9875 172.248C61.2512 172.687 61.5149 173.127 61.7786 173.566C62.3059 174.357 62.7454 175.236 63.1849 175.939C63.6244 176.642 63.976 177.345 64.3275 178.049C64.6791 178.752 64.9428 179.367 65.2065 179.894C66.1734 182.179 66.437 183.937 66.3491 185.255C66.1733 186.574 65.646 187.453 65.1186 187.98C64.5912 188.507 64.0639 188.771 64.0639 188.771C64.0639 188.771 63.8881 188.683 63.6244 188.507C63.3607 188.331 62.9212 188.068 62.3938 187.628C61.9544 187.277 61.3391 186.749 60.8117 186.222C60.2843 185.695 59.757 184.992 59.2296 184.201C58.7901 183.41 58.2627 182.619 57.999 181.652C57.7354 180.685 57.5596 179.631 57.5596 178.488C57.5596 176.203 58.2627 173.654 60.1085 170.842Z" fill="#00826C"/>
<path d="M32.158 179.543C36.9043 183.147 40.6838 184.729 43.4965 185.52C46.3092 186.223 48.2429 186.047 49.4734 185.52C50.704 184.992 51.3192 184.201 51.6708 183.498C52.0224 182.795 52.0224 182.268 52.0224 182.268C52.0224 182.268 51.495 181.653 50.4403 180.949C49.3855 180.246 47.9792 179.28 46.2213 178.576C45.3423 178.225 44.3755 177.873 43.4086 177.698C42.3539 177.434 41.2991 177.346 40.0686 177.346C37.6954 177.258 35.0585 177.873 32.158 179.543Z" fill="#00826C"/>
<path d="M51.9343 162.669C53.7801 166.8 55.0985 169.876 55.7138 172.337C56.3291 174.797 56.3291 176.555 55.9775 177.786C55.6259 179.104 54.9228 179.895 54.3075 180.334C53.6922 180.774 53.1648 180.862 53.1648 180.862C53.1648 180.862 52.5496 180.422 51.6706 179.543C50.7917 178.665 49.8248 177.346 49.0337 175.676C48.6822 174.885 48.4185 173.919 48.2427 172.952C48.0669 171.985 48.0669 170.93 48.2427 169.788C48.5943 167.503 49.649 165.13 51.9343 162.669Z" fill="#00826C"/>
<path d="M23.0165 167.064C25.126 169.174 26.9718 170.755 28.7298 171.986C29.6087 172.601 30.3998 173.128 31.1908 173.568C31.9819 174.007 32.6851 174.359 33.3882 174.623C34.7067 175.238 35.8493 175.501 36.8162 175.589C37.783 175.677 38.5741 175.677 39.2772 175.501C40.5957 175.15 41.2988 174.447 41.7383 173.832C42.1778 173.216 42.2657 172.601 42.2657 172.601C42.2657 172.601 41.7383 171.986 40.8594 171.107C39.9804 170.228 38.7499 169.086 37.0799 168.119C36.2888 167.592 35.4098 167.152 34.3551 166.801C33.8277 166.625 33.3003 166.449 32.773 166.273C32.2456 166.097 31.7182 166.01 31.1029 165.922C28.8177 165.57 26.0929 165.834 23.0165 167.064Z" fill="#00826C"/>
<path d="M44.9904 153.265C45.6056 155.374 46.133 157.307 46.4846 158.977C46.6604 159.768 46.8362 160.559 46.9241 161.35C47.0999 162.053 47.1878 162.757 47.1878 163.372C47.2756 164.602 47.2756 165.657 47.1878 166.624C47.0999 167.502 46.9241 168.293 46.6604 168.821C46.133 170.051 45.3419 170.666 44.6388 171.018C43.9356 171.37 43.4082 171.37 43.4082 171.37C43.4082 171.37 42.793 170.842 42.0898 169.788C41.3866 168.733 40.5956 167.327 40.0682 165.569C39.8045 164.69 39.7166 163.723 39.7166 162.757C39.7166 162.229 39.7166 161.79 39.8045 161.262C39.8924 160.735 39.9803 160.208 40.1561 159.68C41.035 157.571 42.4414 155.374 44.9904 153.265Z" fill="#00826C"/>
<path d="M15.7213 153.265C19.1492 158.098 22.3134 160.735 24.7745 162.317C26.0051 163.108 27.1477 163.547 28.0267 163.811C28.9935 164.075 29.7846 164.163 30.4877 164.075C31.8062 163.899 32.6851 163.284 33.2125 162.756C33.7399 162.229 33.9157 161.702 33.9157 161.702C33.9157 161.702 33.4762 160.999 32.773 159.944C32.0699 158.889 30.9272 157.659 29.5209 156.429C28.8177 155.813 27.9388 155.198 27.0598 154.759C26.1808 154.231 25.1261 153.792 23.9834 153.44C22.8408 153.089 21.6103 152.913 20.2039 152.825C18.8855 152.737 17.3913 152.913 15.7213 153.265Z" fill="#00826C"/>
<path d="M39.6288 142.982C40.2441 147.465 40.5078 150.804 40.332 153.265C40.2441 154.496 40.1562 155.55 39.8925 156.429C39.6288 157.308 39.3651 158.011 39.0135 158.539C38.3104 159.681 37.4314 160.208 36.7282 160.472C36.0251 160.736 35.4098 160.648 35.4098 160.648C35.4098 160.648 34.8824 160.033 34.3551 158.89C33.8277 157.748 33.2124 156.253 33.0366 154.408C32.9487 153.529 32.9487 152.562 33.0366 151.595C33.2124 150.629 33.4761 149.574 34.0035 148.607C34.5309 147.64 35.1461 146.586 36.113 145.707C36.9919 144.74 38.1346 143.861 39.6288 142.982Z" fill="#00826C"/>
<path d="M10.7112 138.588C12.0296 141.225 13.4359 143.334 14.6665 145.004C15.9849 146.674 17.2155 147.904 18.2702 148.871C20.5555 150.717 22.3134 151.332 23.6319 151.42C24.9503 151.508 25.9171 150.98 26.5324 150.541C27.1477 150.014 27.4114 149.574 27.4114 149.574C27.4114 149.574 27.1477 148.783 26.5324 147.729C26.2687 147.201 25.8292 146.586 25.3898 145.883C24.9503 145.18 24.4229 144.477 23.8076 143.774C23.4561 143.422 23.1924 143.07 22.7529 142.719C22.4013 142.367 22.0497 142.016 21.6103 141.664C20.8192 141.049 19.8523 140.434 18.7976 139.907C17.7428 139.379 16.5123 139.028 15.1939 138.764C13.8754 138.588 12.3812 138.5 10.7112 138.588Z" fill="#00826C"/>
<path d="M35.7614 131.996C35.6735 134.281 35.6735 136.215 35.4977 137.885C35.4098 139.554 35.234 141.049 34.8825 142.279C34.443 144.74 33.6519 146.322 32.773 147.289C31.894 148.255 30.9271 148.695 30.224 148.783C29.4329 148.958 28.9055 148.783 28.9055 148.783C28.9055 148.783 28.554 148.08 28.1145 146.937C27.9387 146.322 27.7629 145.707 27.5871 144.916C27.4992 144.125 27.4113 143.246 27.4113 142.367C27.4113 141.927 27.4992 141.488 27.4992 140.961C27.5871 140.521 27.675 139.994 27.8508 139.554C28.1145 138.588 28.6419 137.621 29.2571 136.742C29.8724 135.863 30.7514 134.984 31.8061 134.193C32.9487 133.314 34.2672 132.611 35.7614 131.996Z" fill="#00826C"/>
<path d="M7.8985 123.296C8.42587 124.702 8.86535 125.933 9.30483 127.163C9.8322 128.305 10.3596 129.36 10.7991 130.239C11.0627 130.678 11.3264 131.118 11.5022 131.557C11.7659 131.997 12.0296 132.348 12.2933 132.7C12.8207 133.403 13.2601 134.018 13.7875 134.633C14.7544 135.776 15.6333 136.479 16.5123 137.006C17.3033 137.534 18.0944 137.797 18.7097 137.973C20.0281 138.237 20.995 137.885 21.6981 137.534C22.4013 137.182 22.665 136.655 22.665 136.655C22.665 136.655 22.4892 135.864 22.0497 134.721C21.786 134.106 21.6102 133.403 21.2586 132.7C20.9071 131.997 20.4676 131.206 19.9402 130.415C19.4128 129.624 18.8855 128.833 18.0944 128.042C17.3912 127.251 16.5123 126.548 15.5454 125.845C13.6996 124.526 11.2385 123.56 7.8985 123.296Z" fill="#00826C"/>
<path d="M33.74 120.57C33.5642 121.713 33.3884 122.68 33.1247 123.646C32.949 124.613 32.7732 125.492 32.5974 126.371C32.5095 126.81 32.4216 127.162 32.2458 127.601C32.1579 127.953 32.07 128.392 31.9821 128.744C31.8063 129.447 31.5426 130.062 31.3668 130.677C30.9274 131.82 30.4879 132.787 29.9605 133.578C29.521 134.369 28.9937 134.896 28.4663 135.335C27.4115 136.214 26.4447 136.478 25.6536 136.478C24.8626 136.478 24.3352 136.302 24.3352 136.302C24.3352 136.302 24.0715 135.511 23.8957 134.369C23.8078 133.753 23.7199 133.05 23.7199 132.259C23.7199 131.468 23.8078 130.59 23.9836 129.711C24.1594 128.832 24.511 127.865 24.8626 126.986C25.302 126.107 25.8294 125.228 26.6205 124.437C28.2026 122.68 30.4879 121.361 33.74 120.57Z" fill="#00826C"/>
<path d="M7.37103 107.827C7.63472 109.321 7.9863 110.64 8.24999 111.782C8.60157 113.013 8.95315 114.067 9.30474 115.122C9.65632 116.089 10.0079 116.967 10.4474 117.758C10.8869 118.549 11.2384 119.253 11.59 119.868C12.3811 121.098 13.0843 121.977 13.8753 122.68C14.5785 123.295 15.2816 123.735 15.9848 123.999C17.2153 124.438 18.2701 124.262 18.9733 123.999C19.6764 123.735 20.1159 123.295 20.1159 123.295C20.1159 123.295 20.1159 122.504 19.8522 121.274C19.6764 120.044 19.2369 118.374 18.4459 116.704C18.0943 115.825 17.5669 114.946 17.0396 114.067C16.4243 113.188 15.7211 112.309 14.8422 111.518C12.9964 109.936 10.6232 108.53 7.37103 107.827Z" fill="#00826C"/>
<path d="M33.3003 108.97C32.9487 110.024 32.5971 111.079 32.2455 111.958C31.894 112.925 31.6303 113.716 31.2787 114.507C31.015 115.298 30.5755 116.001 30.3118 116.704C30.0482 117.407 29.6966 117.934 29.4329 118.549C28.8176 119.692 28.2023 120.571 27.5871 121.186C26.9718 121.889 26.4444 122.329 25.8292 122.68C24.6865 123.383 23.6318 123.471 22.9286 123.383C22.1375 123.295 21.6981 123.032 21.6981 123.032C21.6981 123.032 21.5223 122.241 21.5223 121.01C21.5223 119.78 21.6981 118.11 22.3133 116.44C22.6649 115.561 23.1044 114.682 23.6318 113.891C24.1591 113.1 24.8623 112.309 25.7413 111.606C27.5871 110.2 30.0482 109.233 33.3003 108.97Z" fill="#00826C"/>
<path d="M9.21704 92.3584C9.30494 95.3466 9.56862 97.8074 10.0081 99.8289C10.2718 100.884 10.4476 101.762 10.7113 102.641C10.8871 103.169 10.975 103.52 11.1507 103.872C11.3265 104.223 11.4144 104.575 11.5902 104.926C12.2055 106.245 12.8208 107.211 13.436 108.002C14.0513 108.793 14.6666 109.233 15.2818 109.584C16.5124 110.2 17.4792 110.2 18.2703 110.024C18.9735 109.848 19.5008 109.497 19.5008 109.497C19.5008 109.497 19.5008 109.321 19.5008 108.969C19.5008 108.618 19.5008 108.09 19.5008 107.475C19.5008 106.245 19.2371 104.575 18.7977 102.729C18.2703 100.884 17.4792 98.95 15.985 97.1043C14.4029 95.2587 12.3813 93.5888 9.21704 92.3584Z" fill="#00826C"/>
<path d="M34.7066 97.3683C33.6519 99.3897 32.7729 101.06 31.894 102.554C31.4545 103.257 31.1029 103.96 30.6634 104.575C30.4877 104.839 30.224 105.19 30.0482 105.454C29.8724 105.718 29.6966 105.981 29.5208 106.245C28.7297 107.212 28.0266 108.003 27.3234 108.618C26.6202 109.233 26.005 109.585 25.3897 109.848C24.1592 110.376 23.1044 110.288 22.4013 110.112C21.6981 109.936 21.2586 109.585 21.2586 109.585C21.2586 109.585 21.2586 109.409 21.2586 109.057C21.2586 108.706 21.2586 108.178 21.4344 107.563C21.6102 106.333 21.9618 104.751 22.8407 103.081C23.6318 101.499 25.0381 99.917 26.9718 98.7745C28.8176 97.7198 31.4545 97.1925 34.7066 97.3683Z" fill="#00826C"/>
<path d="M13.348 77.418C13.2601 78.1211 13.1722 78.8242 13.0843 79.5273C12.9964 80.2304 12.9964 80.8456 12.9964 81.4608C12.9964 82.076 12.9964 82.6912 12.9085 83.3064C12.9085 83.9217 12.9085 84.449 12.9964 84.9763C13.0843 86.031 13.1722 86.9977 13.2601 87.8766C13.4359 88.7555 13.6117 89.5465 13.7875 90.2496C13.9633 90.9527 14.2269 91.5679 14.4027 92.0952C14.6664 92.6226 14.9301 93.1499 15.1059 93.5014C15.6333 94.3803 16.1606 94.9076 16.688 95.3471C17.7428 96.1381 18.7975 96.3138 19.5886 96.226C20.3796 96.1381 20.8191 95.8744 20.8191 95.8744C20.8191 95.8744 20.9949 95.0834 21.1707 93.853C21.2586 93.2378 21.3465 92.5347 21.3465 91.6558C21.3465 90.8648 21.2586 89.898 21.1707 89.0192C21.0828 88.0524 20.907 87.0856 20.5554 86.1189C20.2039 85.1521 19.8523 84.0974 19.237 83.0428C18.0944 81.0214 16.2485 79.0878 13.348 77.418Z" fill="#00826C"/>
<path d="M37.783 86.207C37.0799 87.0858 36.4646 87.9647 35.9372 88.7557C35.322 89.5467 34.7946 90.2498 34.2672 90.9529C33.7398 91.656 33.2125 92.1833 32.6851 92.7985C32.2456 93.3259 31.7182 93.8532 31.2788 94.2926C30.8393 94.7321 30.3998 95.0836 29.9603 95.4352C29.5208 95.7867 29.1693 96.0504 28.8177 96.3141C28.0266 96.7535 27.3235 97.105 26.7082 97.2808C25.3897 97.6324 24.4229 97.3687 23.7197 97.105C23.0166 96.7535 22.665 96.4019 22.665 96.4019C22.665 96.4019 22.7529 95.611 23.1045 94.4684C23.2802 93.8532 23.5439 93.238 23.8955 92.447C24.2471 91.7439 24.5987 90.9529 25.214 90.2498C25.7413 89.5467 26.4445 88.8436 27.2356 88.2284C28.0266 87.6132 28.9935 87.0858 29.9603 86.6464C31.894 85.6796 34.5309 85.5039 37.783 86.207Z" fill="#00826C"/>
<path d="M19.6765 63.1807C18.8854 65.9931 18.358 68.4539 18.1822 70.5632C17.9185 72.6725 18.0064 74.4303 18.1822 75.8365C18.2701 76.5396 18.358 77.2427 18.5338 77.77C18.7096 78.3853 18.8854 78.8247 19.0612 79.352C19.4128 80.2309 19.8522 80.934 20.3796 81.3734C21.3465 82.3402 22.3133 82.6039 23.1044 82.6918C23.8954 82.7796 24.4228 82.6039 24.4228 82.6039C24.4228 82.6039 24.7744 81.9008 25.0381 80.6703C25.3018 79.4399 25.7413 77.77 25.7413 75.9244C25.7413 74.9576 25.7413 73.9909 25.5655 72.9362C25.4776 72.4089 25.3897 71.8816 25.2139 71.3542C25.0381 70.8269 24.9502 70.2996 24.6865 69.7722C23.8076 67.5751 22.3133 65.29 19.6765 63.1807Z" fill="#00826C"/>
<path d="M42.5295 75.5723C40.9473 77.1542 39.541 78.5604 38.3105 79.703C36.992 80.8455 35.9373 81.8123 34.8825 82.5154C34.3552 82.8669 33.9157 83.2185 33.3883 83.4822C32.9488 83.7458 32.5094 84.0095 32.0699 84.1853C31.2788 84.5368 30.4878 84.7126 29.7846 84.8005C28.4662 84.9762 27.4993 84.5368 26.884 84.1853C26.2688 83.7458 25.9172 83.3064 25.9172 83.3064C25.9172 83.3064 26.093 82.5154 26.6203 81.4607C27.1477 80.3182 28.0267 78.912 29.2572 77.5937C29.8725 76.9785 30.6635 76.3632 31.5425 75.8359C31.982 75.5723 32.4215 75.3965 32.9488 75.1328C33.4762 74.957 34.0036 74.7813 34.531 74.6934C36.8162 74.166 39.4531 74.3418 42.5295 75.5723Z" fill="#00826C"/>
<path d="M28.1144 50.1729C25.6533 55.534 24.8623 59.6647 24.6865 62.4771C24.5986 65.3774 25.2138 67.1352 26.0049 68.2777C26.796 69.4203 27.7628 69.7718 28.466 69.9476C29.257 70.1234 29.7844 70.0355 29.7844 70.0355C29.7844 70.0355 29.8723 69.8597 30.0481 69.5082C30.2239 69.1566 30.4876 68.7172 30.7513 68.1898C31.015 67.6625 31.2787 66.9594 31.5423 66.1684C31.806 65.3774 32.0697 64.4986 32.2455 63.6197C32.4213 62.6529 32.5092 61.6861 32.5092 60.6315C32.5092 59.5768 32.3334 58.4343 32.1576 57.2918C31.5423 55.0067 30.3997 52.5458 28.1144 50.1729Z" fill="#00826C"/>
<path d="M48.8578 65.8168C45.2541 68.5413 42.5293 70.3869 40.244 71.5295C38.0467 72.672 36.2887 73.0236 34.9703 73.0236C33.6519 72.9357 32.7729 72.4963 32.1576 71.9689C31.5424 71.4416 31.3666 70.9143 31.3666 70.9143C31.3666 70.9143 31.4545 70.7385 31.6303 70.3869C31.8061 70.0354 32.0697 69.6838 32.4213 69.1565C32.7729 68.6292 33.2124 68.1019 33.7398 67.4866C34.2671 66.8714 34.9703 66.3441 35.6735 65.8168C36.3766 65.2895 37.2556 64.85 38.2224 64.4106C39.1893 64.059 40.1561 63.7954 41.2988 63.7075C43.4083 63.6196 45.9573 64.1469 48.8578 65.8168Z" fill="#00826C"/>
<path d="M38.3102 38.4834C35.0581 43.4051 33.6517 47.3601 33.1243 50.1725C32.8607 51.5787 32.7728 52.8091 32.8607 53.7759C32.9486 54.7426 33.2122 55.5336 33.4759 56.1488C34.0912 57.3793 34.9702 57.9066 35.6733 58.1703C36.3765 58.4339 36.9039 58.4339 36.9039 58.4339C36.9039 58.4339 36.9918 58.2581 37.2554 57.9945C37.4312 57.7308 37.7828 57.2914 38.1344 56.7641C38.486 56.2367 38.8376 55.6215 39.1892 54.8305C39.5407 54.1274 39.8923 53.3364 40.2439 52.3697C40.4197 51.9302 40.5076 51.4908 40.6834 50.9635C40.7713 50.4361 40.9471 49.9967 41.035 49.4694C41.2108 48.4147 41.2108 47.2722 41.1229 46.1296C41.035 43.8446 40.2439 41.2079 38.3102 38.4834Z" fill="#00826C"/>
<path d="M56.5047 57.0285C55.5379 57.5558 54.571 58.0832 53.692 58.5226C52.8131 58.962 52.022 59.4015 51.231 59.753C50.4399 60.1046 49.7367 60.4561 49.0336 60.7198C48.3304 60.9835 47.7151 61.2471 47.0999 61.4229C45.9572 61.8623 44.9025 62.0381 43.9356 62.126C43.0567 62.2139 42.2656 62.2139 41.6503 62.0381C40.3319 61.7745 39.5408 61.1592 39.0135 60.544C38.4861 59.9288 38.3982 59.4015 38.3982 59.4015C38.3982 59.4015 38.4861 59.2257 38.6619 58.962C38.8377 58.6984 39.1893 58.2589 39.6287 57.8195C40.0682 57.3801 40.5956 56.8527 41.2109 56.3254C41.8261 55.7981 42.5293 55.3586 43.4082 54.9192C43.8477 54.7434 44.1993 54.4798 44.6388 54.304C45.0783 54.1282 45.6056 54.0403 46.0451 53.8645C47.012 53.6888 48.0667 53.6009 49.2094 53.6888C51.4947 54.0403 53.9557 55.0071 56.5047 57.0285Z" fill="#00826C"/>
<path d="M50.2642 28.4648C48.2426 30.662 46.8362 32.6835 45.6936 34.4412C44.6389 36.2869 43.8478 37.7809 43.4083 39.1871C42.9688 40.5934 42.7051 41.7359 42.6173 42.7027C42.5294 43.6694 42.7051 44.4604 42.8809 45.1635C43.3204 46.4818 44.1115 47.097 44.7267 47.5365C45.4299 47.888 45.9573 47.9759 45.9573 47.9759C45.9573 47.9759 46.1331 47.8001 46.3968 47.6244C46.6605 47.3607 47.012 47.0092 47.4515 46.5697C48.3305 45.6908 49.2973 44.2846 50.1763 42.6148C51.0552 40.9449 51.7584 38.9235 51.9342 36.5505C52.0221 34.1775 51.6705 31.5409 50.2642 28.4648Z" fill="#00826C"/>
<path d="M65.3821 49.5572C63.2726 50.3482 61.4268 50.9634 59.7568 51.4029C58.1746 51.9302 56.6804 52.1939 55.4499 52.4575C54.2193 52.6333 53.1646 52.7212 52.2856 52.7212C51.4067 52.7212 50.6156 52.5454 50.0003 52.2817C48.7698 51.8423 48.0666 51.0513 47.6272 50.4361C47.1877 49.8209 47.1877 49.2057 47.1877 49.2057C47.1877 49.2057 47.2756 49.0299 47.5393 48.7662C47.803 48.5026 48.1545 48.151 48.594 47.7995C49.5609 47.0964 50.9672 46.1296 52.7251 45.5144C54.3951 44.8992 56.5046 44.7234 58.702 45.2507C60.8994 45.778 63.1847 47.1842 65.3821 49.5572Z" fill="#00826C"/>
<path d="M63.4487 20.3789C62.9213 20.8183 62.306 21.3457 61.8665 21.7851C61.3392 22.2245 60.8997 22.664 60.4602 23.1034C59.5813 23.9823 58.7902 24.7733 58.087 25.6522C57.3839 26.4432 56.8565 27.2342 56.3291 27.9373C55.8017 28.6404 55.4502 29.3435 55.0986 30.0466C53.6922 32.5953 53.5164 34.5288 53.6922 35.8472C53.9559 37.1655 54.5712 37.9565 55.1865 38.4838C55.8017 38.9232 56.3291 39.099 56.3291 39.099C56.3291 39.099 57.0323 38.6596 57.9991 37.8686C58.4386 37.4291 59.0539 36.9897 59.5813 36.3745C60.1086 35.7593 60.7239 35.0562 61.2513 34.3531C61.7786 33.5621 62.306 32.7711 62.8334 31.8043C63.2729 30.8376 63.7124 29.8708 63.976 28.6404C64.0639 28.0251 64.2397 27.4978 64.2397 26.7947C64.3276 26.1795 64.3276 25.5643 64.3276 24.8612C64.2397 23.455 63.976 21.9609 63.4487 20.3789Z" fill="#00826C"/>
<path d="M75.3145 43.4933C74.1719 43.669 73.205 43.9327 72.2382 44.1085C71.2713 44.2843 70.3044 44.3721 69.5134 44.5479C68.6344 44.6358 67.8434 44.7237 67.1402 44.8116C66.437 44.8995 65.7339 44.8995 65.1186 44.8995C62.5696 44.8995 60.8996 44.5479 59.757 43.9327C58.6143 43.3175 57.9991 42.4386 57.7354 41.7355C57.4717 41.0324 57.4717 40.5051 57.4717 40.5051C57.4717 40.5051 58.087 39.9778 59.1417 39.3625C59.6691 39.0989 60.2843 38.7473 61.0754 38.4837C61.7786 38.22 62.6575 37.9563 63.5365 37.7806C64.4154 37.6048 65.3823 37.5169 66.3491 37.6048C67.316 37.6927 68.3707 37.9563 69.4255 38.3958C69.9529 38.5716 70.4802 38.8352 71.0076 39.1868C71.535 39.5383 72.0624 39.8899 72.5018 40.3293C73.3808 41.0324 74.4355 42.0871 75.3145 43.4933Z" fill="#00826C"/>
<path d="M84.104 25.9154C79.0939 25.6517 75.0507 26.4427 71.8865 27.4973C71.0954 27.761 70.3922 28.1126 69.6891 28.3762C68.9859 28.6399 68.3706 28.9914 67.8433 29.343C67.3159 29.6945 66.7885 30.0461 66.2611 30.3097C65.8217 30.6613 65.3822 31.0128 65.0306 31.3644C63.4485 32.6827 62.6574 34.001 62.2179 34.9678C61.7784 35.8467 61.6906 36.4619 61.6906 36.4619C61.6906 36.4619 62.2179 36.6377 63.2727 36.6377C63.8 36.6377 64.4153 36.5498 65.1185 36.4619C65.8216 36.374 66.7006 36.1982 67.5796 35.9346C68.019 35.7588 68.5464 35.583 69.0738 35.4072C69.6012 35.2315 70.1285 34.9678 70.6559 34.792C71.1833 34.5284 71.7986 34.2647 72.4138 33.9131C73.0291 33.5616 73.6444 33.21 74.3475 32.8585C76.9844 31.1886 80.1487 28.9035 84.104 25.9154Z" fill="#00826C"/>
<path d="M161.892 170.843C161.628 171.282 161.277 171.81 161.013 172.249C160.749 172.688 160.486 173.128 160.222 173.567C159.695 174.358 159.255 175.237 158.816 175.94C158.376 176.643 158.025 177.346 157.673 178.05C157.321 178.753 157.058 179.368 156.794 179.895C155.827 182.18 155.564 183.938 155.651 185.256C155.827 186.575 156.355 187.454 156.882 187.981C157.409 188.508 157.937 188.772 157.937 188.772C157.937 188.772 158.112 188.684 158.376 188.508C158.64 188.332 159.079 188.069 159.607 187.629C160.046 187.278 160.661 186.75 161.189 186.223C161.716 185.696 162.244 184.993 162.771 184.202C163.21 183.411 163.738 182.62 164.002 181.653C164.265 180.686 164.441 179.632 164.441 178.489C164.529 176.204 163.738 173.655 161.892 170.843Z" fill="#00826C"/>
<path d="M178.856 190.529C178.24 190.881 177.537 191.232 177.01 191.496C176.395 191.759 175.779 192.023 175.252 192.287C174.109 192.814 173.055 193.254 172 193.517C170.945 193.869 170.066 194.044 169.187 194.308C168.308 194.484 167.517 194.66 166.814 194.66C163.913 194.923 162.068 194.484 160.925 193.781C159.782 193.078 159.255 192.111 159.079 191.408C158.903 190.705 158.903 190.09 158.903 190.09C158.903 190.09 159.079 190.002 159.343 189.826C159.606 189.65 160.046 189.386 160.661 189.035C161.189 188.771 161.892 188.42 162.683 188.156C163.474 187.892 164.265 187.541 165.232 187.277C166.111 187.013 167.166 186.926 168.22 186.838C169.275 186.75 170.33 186.75 171.56 187.014C173.758 187.453 176.307 188.42 178.856 190.529Z" fill="#00826C"/>
<path d="M170.154 162.669C168.308 166.8 166.99 169.876 166.374 172.337C165.759 174.797 165.759 176.555 166.111 177.786C166.462 179.104 167.165 179.895 167.781 180.334C168.396 180.774 168.923 180.862 168.923 180.862C168.923 180.862 169.539 180.422 170.418 179.543C171.297 178.665 172.263 177.346 173.054 175.676C173.406 174.885 173.67 173.919 173.846 172.952C174.021 171.985 174.021 170.93 173.846 169.788C173.406 167.503 172.351 165.13 170.154 162.669Z" fill="#00826C"/>
<path d="M189.843 179.544C185.096 183.148 181.317 184.73 178.504 185.521C175.692 186.224 173.758 186.048 172.527 185.521C171.297 184.993 170.681 184.202 170.33 183.499C169.978 182.796 169.978 182.269 169.978 182.269C169.978 182.269 170.506 181.654 171.56 180.95C172.615 180.247 174.022 179.281 175.779 178.577C176.658 178.226 177.625 177.874 178.592 177.699C179.647 177.435 180.702 177.347 181.932 177.347C184.305 177.259 186.942 177.874 189.843 179.544Z" fill="#00826C"/>
<path d="M177.01 153.266C176.395 155.375 175.867 157.308 175.516 158.978C175.34 159.769 175.164 160.56 175.076 161.351C174.9 162.054 174.812 162.758 174.812 163.373C174.724 164.603 174.724 165.658 174.812 166.625C174.9 167.503 175.076 168.294 175.34 168.822C175.867 170.052 176.658 170.667 177.361 171.019C178.065 171.371 178.592 171.371 178.592 171.371C178.592 171.371 179.207 170.843 179.91 169.789C180.613 168.734 181.405 167.328 181.932 165.57C182.196 164.691 182.284 163.724 182.284 162.758C182.284 162.23 182.284 161.791 182.196 161.263C182.108 160.736 182.02 160.209 181.844 159.681C181.053 157.572 179.647 155.375 177.01 153.266Z" fill="#00826C"/>
<path d="M199.072 167.063C196.963 169.173 195.117 170.755 193.359 171.985C192.48 172.6 191.689 173.127 190.898 173.567C190.107 174.006 189.404 174.358 188.7 174.622C187.382 175.237 186.239 175.5 185.272 175.588C184.306 175.676 183.515 175.676 182.811 175.5C181.493 175.149 180.79 174.446 180.35 173.831C179.911 173.215 179.823 172.6 179.823 172.6C179.823 172.6 180.35 171.985 181.229 171.106C182.108 170.227 183.339 169.085 185.009 168.118C185.8 167.591 186.679 167.151 187.734 166.8C188.261 166.624 188.788 166.448 189.316 166.272C189.843 166.096 190.37 166.009 190.986 165.921C193.271 165.569 195.996 165.833 199.072 167.063Z" fill="#00826C"/>
<path d="M182.459 142.982C181.844 147.465 181.58 150.804 181.756 153.265C181.844 154.496 181.932 155.55 182.196 156.429C182.459 157.308 182.723 158.011 183.075 158.539C183.778 159.681 184.657 160.208 185.36 160.472C186.063 160.736 186.678 160.648 186.678 160.648C186.678 160.648 187.206 160.033 187.733 158.89C188.261 157.748 188.876 156.253 189.052 154.408C189.14 153.529 189.14 152.562 189.052 151.595C188.876 150.629 188.612 149.574 188.085 148.607C187.557 147.64 186.942 146.586 185.975 145.707C185.008 144.74 183.866 143.861 182.459 142.982Z" fill="#00826C"/>
<path d="M206.279 153.266C202.851 158.099 199.687 160.736 197.226 162.318C195.996 163.109 194.853 163.548 193.974 163.812C193.007 164.076 192.216 164.164 191.513 164.076C190.194 163.9 189.315 163.285 188.788 162.757C188.261 162.23 188.085 161.703 188.085 161.703C188.085 161.703 188.524 161 189.228 159.945C189.931 158.89 191.073 157.66 192.48 156.43C193.183 155.814 194.062 155.199 194.941 154.76C195.82 154.232 196.875 153.793 198.017 153.441C199.16 153.09 200.39 152.914 201.797 152.826C203.203 152.738 204.609 152.914 206.279 153.266Z" fill="#00826C"/>
<path d="M186.239 131.996C186.327 134.281 186.327 136.215 186.503 137.885C186.591 139.554 186.766 141.049 187.118 142.279C187.557 144.74 188.348 146.322 189.227 147.289C190.106 148.255 191.073 148.695 191.776 148.783C192.567 148.958 193.095 148.783 193.095 148.783C193.095 148.783 193.446 148.08 193.886 146.937C194.062 146.322 194.237 145.707 194.413 144.916C194.501 144.125 194.589 143.246 194.589 142.367C194.589 141.927 194.501 141.488 194.501 140.961C194.413 140.521 194.325 139.994 194.15 139.554C193.886 138.588 193.359 137.621 192.743 136.742C192.128 135.863 191.249 134.984 190.194 134.193C189.052 133.314 187.733 132.611 186.239 131.996Z" fill="#00826C"/>
<path d="M211.377 138.587C210.059 141.224 208.652 143.333 207.422 145.003C206.103 146.673 204.873 147.903 203.818 148.87C201.533 150.716 199.775 151.331 198.456 151.419C197.138 151.507 196.171 150.979 195.556 150.54C194.941 150.013 194.677 149.573 194.677 149.573C194.677 149.573 194.941 148.782 195.556 147.728C195.82 147.2 196.259 146.585 196.698 145.882C197.138 145.179 197.665 144.476 198.281 143.773C198.632 143.421 198.896 143.069 199.335 142.718C199.687 142.366 200.039 142.015 200.478 141.663C201.269 141.048 202.236 140.433 203.291 139.906C204.345 139.378 205.576 139.027 206.894 138.763C208.213 138.587 209.707 138.499 211.377 138.587Z" fill="#00826C"/>
<path d="M188.348 120.571C188.524 121.714 188.7 122.681 188.964 123.647C189.139 124.614 189.315 125.493 189.491 126.372C189.579 126.811 189.667 127.163 189.843 127.602C189.931 127.954 190.018 128.393 190.106 128.745C190.282 129.448 190.546 130.063 190.722 130.678C191.161 131.821 191.601 132.788 192.128 133.579C192.567 134.37 193.095 134.897 193.622 135.336C194.677 136.215 195.644 136.479 196.435 136.479C197.226 136.479 197.753 136.303 197.753 136.303C197.753 136.303 198.017 135.512 198.193 134.37C198.281 133.754 198.369 133.051 198.369 132.26C198.369 131.469 198.281 130.591 198.105 129.712C197.929 128.833 197.577 127.866 197.226 126.987C196.786 126.108 196.259 125.229 195.468 124.438C193.798 122.681 191.513 121.362 188.348 120.571Z" fill="#00826C"/>
<path d="M214.19 123.296C213.662 124.702 213.223 125.933 212.783 127.163C212.256 128.305 211.729 129.36 211.289 130.239C211.026 130.678 210.762 131.118 210.586 131.557C210.322 131.997 210.059 132.348 209.795 132.7C209.268 133.403 208.828 134.018 208.301 134.633C207.334 135.776 206.455 136.479 205.576 137.006C204.785 137.534 203.994 137.797 203.379 137.973C202.06 138.237 201.093 137.885 200.39 137.534C199.687 137.182 199.423 136.655 199.423 136.655C199.423 136.655 199.599 135.864 200.039 134.721C200.302 134.106 200.478 133.403 200.83 132.7C201.181 131.997 201.621 131.206 202.148 130.415C202.675 129.624 203.203 128.833 203.994 128.042C204.697 127.251 205.576 126.548 206.543 125.845C208.301 124.526 210.85 123.56 214.19 123.296Z" fill="#00826C"/>
<path d="M188.7 108.97C189.051 110.024 189.403 111.079 189.755 111.958C190.106 112.925 190.37 113.716 190.721 114.507C190.985 115.298 191.425 116.001 191.688 116.704C191.952 117.407 192.304 117.934 192.567 118.549C193.183 119.692 193.798 120.571 194.413 121.186C195.028 121.889 195.556 122.329 196.171 122.68C197.314 123.383 198.368 123.471 199.072 123.383C199.863 123.295 200.302 123.032 200.302 123.032C200.302 123.032 200.478 122.241 200.478 121.01C200.478 119.78 200.302 118.11 199.687 116.44C199.335 115.561 198.896 114.682 198.368 113.891C197.841 113.1 197.138 112.309 196.259 111.606C194.413 110.2 192.04 109.233 188.7 108.97Z" fill="#00826C"/>
<path d="M214.629 107.827C214.365 109.321 214.014 110.64 213.75 111.782C213.399 113.013 213.047 114.067 212.695 115.122C212.344 116.089 211.992 116.967 211.553 117.758C211.113 118.549 210.762 119.253 210.41 119.868C209.619 121.098 208.916 121.977 208.125 122.68C207.422 123.295 206.719 123.735 206.015 123.999C204.785 124.438 203.73 124.262 203.027 123.999C202.324 123.735 201.884 123.295 201.884 123.295C201.884 123.295 201.884 122.504 202.148 121.274C202.324 120.044 202.763 118.374 203.554 116.704C203.906 115.825 204.433 114.946 204.961 114.067C205.576 113.188 206.279 112.309 207.158 111.518C209.004 109.936 211.377 108.53 214.629 107.827Z" fill="#00826C"/>
<path d="M187.294 97.3692C188.349 99.3907 189.228 101.061 190.107 102.555C190.546 103.258 190.898 103.961 191.337 104.576C191.513 104.84 191.777 105.191 191.952 105.455C192.128 105.719 192.304 105.982 192.48 106.246C193.271 107.213 193.974 108.004 194.677 108.619C195.38 109.234 195.996 109.586 196.611 109.849C197.841 110.377 198.896 110.289 199.599 110.113C200.302 109.937 200.742 109.586 200.742 109.586C200.742 109.586 200.742 109.41 200.742 109.058C200.742 108.707 200.742 108.179 200.566 107.564C200.39 106.334 200.039 104.752 199.16 103.082C198.369 101.5 196.962 99.918 195.029 98.7754C193.183 97.7208 190.634 97.1935 187.294 97.3692Z" fill="#00826C"/>
<path d="M212.783 92.3594C212.696 95.3476 212.432 97.8084 211.992 99.8298C211.729 100.884 211.553 101.763 211.289 102.642C211.201 103.082 211.026 103.433 210.938 103.873C210.762 104.224 210.674 104.576 210.498 104.927C209.883 106.246 209.268 107.212 208.652 108.003C208.037 108.794 207.422 109.234 206.807 109.585C205.576 110.201 204.609 110.201 203.818 110.025C203.115 109.849 202.588 109.497 202.588 109.497C202.588 109.497 202.588 109.322 202.588 108.97C202.588 108.619 202.588 108.091 202.588 107.476C202.588 106.246 202.851 104.576 203.291 102.73C203.818 100.884 204.609 98.951 206.103 97.1053C207.598 95.2597 209.707 93.5898 212.783 92.3594Z" fill="#00826C"/>
<path d="M184.217 86.207C184.921 87.0858 185.536 87.9647 186.063 88.7557C186.678 89.5467 187.206 90.2498 187.733 90.9529C188.261 91.656 188.788 92.1833 189.315 92.7985C189.755 93.3259 190.282 93.8532 190.722 94.2926C191.161 94.7321 191.601 95.0836 192.04 95.4352C192.48 95.7867 192.831 96.0504 193.183 96.3141C193.974 96.7535 194.677 97.105 195.292 97.2808C196.611 97.6324 197.578 97.3687 198.281 97.105C198.984 96.7535 199.335 96.4019 199.335 96.4019C199.335 96.4019 199.248 95.611 198.896 94.4684C198.72 93.8532 198.457 93.238 198.105 92.447C197.753 91.7439 197.402 90.9529 196.786 90.2498C196.259 89.5467 195.556 88.8436 194.765 88.2284C193.974 87.6132 193.007 87.0858 192.04 86.6464C190.106 85.6796 187.47 85.5039 184.217 86.207Z" fill="#00826C"/>
<path d="M208.652 77.4189C208.74 78.122 208.828 78.8252 208.916 79.5283C209.004 80.2314 209.004 80.8466 209.004 81.4618C209.004 82.077 209.004 82.6922 209.092 83.3074C209.092 83.9226 209.092 84.45 209.004 84.9773C208.916 86.0319 208.828 86.9987 208.74 87.8776C208.564 88.7565 208.388 89.5475 208.213 90.2506C208.037 90.9537 207.773 91.5689 207.597 92.0962C207.334 92.6235 207.07 93.1509 206.894 93.5024C206.367 94.3813 205.839 94.9086 205.312 95.3481C204.257 96.139 203.203 96.3148 202.411 96.2269C201.62 96.139 201.181 95.8754 201.181 95.8754C201.181 95.8754 201.005 95.0844 200.829 93.854C200.741 93.2387 200.654 92.5356 200.654 91.6568C200.654 90.8658 200.741 89.899 200.829 89.0201C200.917 88.0534 201.093 87.0866 201.445 86.1198C201.796 85.1531 202.148 84.0984 202.763 83.0438C203.994 81.0223 205.752 79.0888 208.652 77.4189Z" fill="#00826C"/>
<path d="M179.471 75.5732C181.053 77.1552 182.459 78.5614 183.69 79.704C185.008 80.8465 186.063 81.8133 187.118 82.5164C187.645 82.8679 188.084 83.2195 188.612 83.4831C189.051 83.7468 189.491 84.0105 189.93 84.1862C190.721 84.5378 191.512 84.7136 192.216 84.8015C193.534 84.9772 194.501 84.5378 195.116 84.1862C195.731 83.7468 196.083 83.3074 196.083 83.3074C196.083 83.3074 195.907 82.5164 195.38 81.4617C194.852 80.3192 193.973 78.913 192.743 77.5946C192.128 76.9794 191.337 76.3642 190.458 75.8369C190.018 75.5732 189.579 75.3975 189.051 75.1338C188.524 74.958 187.997 74.7822 187.469 74.6943C185.184 74.167 182.635 74.3428 179.471 75.5732Z" fill="#00826C"/>
<path d="M202.324 63.1807C203.115 65.9931 203.642 68.4539 203.818 70.5632C204.082 72.6725 203.994 74.4303 203.818 75.8365C203.73 76.5396 203.642 77.2427 203.466 77.77C203.29 78.3853 203.115 78.8247 202.939 79.352C202.587 80.2309 202.148 80.934 201.62 81.3734C200.654 82.3402 199.687 82.6039 198.896 82.6918C198.105 82.7796 197.577 82.6039 197.577 82.6039C197.577 82.6039 197.226 81.9008 196.962 80.6703C196.698 79.4399 196.259 77.77 196.259 75.9244C196.259 74.9576 196.259 73.9909 196.435 72.9362C196.523 72.4089 196.61 71.8816 196.786 71.3542C196.962 70.8269 197.05 70.2996 197.314 69.7723C198.193 67.5751 199.775 65.29 202.324 63.1807Z" fill="#00826C"/>
<path d="M173.23 65.8168C176.834 68.5413 179.559 70.3869 181.844 71.5295C184.042 72.672 185.799 73.0236 187.118 73.0236C188.436 72.9357 189.315 72.4962 189.931 71.9689C190.546 71.4416 190.722 70.9143 190.722 70.9143C190.722 70.9143 190.634 70.7385 190.458 70.3869C190.282 70.0354 190.018 69.6838 189.667 69.1565C189.315 68.6292 188.876 68.1019 188.348 67.4866C187.821 66.8714 187.118 66.3441 186.415 65.8168C185.712 65.2895 184.833 64.85 183.866 64.4106C182.899 64.059 181.932 63.7954 180.789 63.7075C178.592 63.6196 176.131 64.1469 173.23 65.8168Z" fill="#00826C"/>
<path d="M193.974 50.1729C196.435 55.534 197.226 59.6647 197.401 62.4771C197.489 65.3774 196.874 67.1352 196.083 68.2777C195.292 69.4203 194.325 69.7718 193.622 69.9476C192.831 70.1234 192.303 70.0355 192.303 70.0355C192.303 70.0355 192.216 69.8597 192.04 69.5082C191.864 69.1566 191.6 68.7172 191.337 68.1898C191.073 67.6625 190.809 66.9594 190.546 66.1684C190.282 65.3774 190.018 64.4986 189.842 63.6197C189.667 62.6529 189.579 61.6861 189.579 60.6315C189.579 59.5768 189.755 58.4343 189.93 57.2918C190.458 55.0067 191.688 52.5458 193.974 50.1729Z" fill="#00826C"/>
<path d="M165.496 57.0285C166.462 57.5558 167.429 58.0832 168.308 58.5226C169.187 58.962 169.978 59.4015 170.769 59.753C171.56 60.1046 172.264 60.4561 172.967 60.7198C173.67 60.9835 174.285 61.2471 174.9 61.4229C176.043 61.8623 177.098 62.0381 178.065 62.126C178.944 62.2139 179.735 62.2139 180.35 62.0381C181.668 61.7745 182.459 61.1592 182.987 60.544C183.514 59.9288 183.602 59.4015 183.602 59.4015C183.602 59.4015 183.514 59.2257 183.338 58.962C183.163 58.6984 182.811 58.2589 182.372 57.8195C181.932 57.3801 181.405 56.8527 180.789 56.3254C180.174 55.7981 179.471 55.3586 178.592 54.9192C178.153 54.7434 177.801 54.4798 177.362 54.304C176.922 54.1282 176.395 54.0403 175.955 53.8645C174.988 53.6888 173.934 53.6009 172.791 53.6888C170.594 54.0403 168.132 55.0071 165.496 57.0285Z" fill="#00826C"/>
<path d="M183.69 38.4834C186.942 43.4051 188.349 47.3601 188.876 50.1725C189.14 51.5787 189.228 52.8091 189.14 53.7759C189.052 54.7426 188.788 55.5336 188.524 56.1488C187.909 57.3793 187.03 57.9066 186.327 58.1703C185.624 58.4339 185.096 58.4339 185.096 58.4339C185.096 58.4339 185.009 58.2581 184.745 57.9945C184.569 57.7308 184.218 57.2914 183.866 56.7641C183.514 56.2367 183.163 55.6215 182.811 54.8305C182.46 54.1274 182.108 53.3364 181.756 52.3697C181.581 51.9302 181.493 51.4908 181.317 50.9635C181.229 50.4361 181.053 49.9967 180.965 49.4694C180.79 48.4147 180.79 47.2722 180.877 46.1296C180.965 43.8446 181.756 41.2079 183.69 38.4834Z" fill="#00826C"/>
<path d="M156.618 49.5572C158.728 50.3482 160.573 50.9634 162.243 51.4029C163.825 51.9302 165.32 52.1939 166.55 52.4575C167.781 52.6333 168.836 52.7212 169.714 52.7212C170.593 52.7212 171.385 52.5454 172 52.2817C173.23 51.8423 173.933 51.0513 174.373 50.4361C174.812 49.8209 174.812 49.2057 174.812 49.2057C174.812 49.2057 174.725 49.0299 174.461 48.7662C174.197 48.5026 173.846 48.151 173.406 47.7995C172.439 47.0964 171.033 46.1296 169.275 45.5144C167.605 44.8992 165.495 44.7234 163.298 45.2507C161.189 45.778 158.903 47.1842 156.618 49.5572Z" fill="#00826C"/>
<path d="M171.824 28.4648C173.846 30.662 175.252 32.6835 176.395 34.4412C177.449 36.2869 178.24 37.7809 178.68 39.1871C179.119 40.5934 179.383 41.7359 179.471 42.7027C179.559 43.6694 179.383 44.4604 179.207 45.1635C178.768 46.4818 177.977 47.097 177.361 47.5365C176.658 47.888 176.131 47.9759 176.131 47.9759C176.131 47.9759 175.955 47.8001 175.691 47.6244C175.428 47.3607 175.076 47.0092 174.637 46.5697C173.758 45.6908 172.791 44.2846 171.912 42.6148C171.033 40.9449 170.33 38.9235 170.154 36.5505C169.978 34.1775 170.33 31.5409 171.824 28.4648Z" fill="#00826C"/>
<path d="M146.686 43.4933C147.829 43.669 148.795 43.9327 149.762 44.1085C150.729 44.2843 151.696 44.3722 152.487 44.5479C153.366 44.6358 154.157 44.7237 154.86 44.8116C155.563 44.8995 156.267 44.8995 156.882 44.8995C159.431 44.8995 161.101 44.5479 162.243 43.9327C163.386 43.3175 164.001 42.4386 164.265 41.7355C164.529 41.0324 164.529 40.5051 164.529 40.5051C164.529 40.5051 163.913 39.9778 162.859 39.3625C162.331 39.0989 161.716 38.7473 160.925 38.4837C160.222 38.22 159.343 37.9563 158.464 37.7806C157.585 37.6048 156.618 37.5169 155.651 37.6048C154.684 37.6927 153.63 37.9563 152.575 38.3958C152.048 38.5716 151.52 38.8352 150.993 39.1868C150.465 39.5383 149.938 39.8899 149.499 40.3293C148.62 41.0324 147.653 42.0871 146.686 43.4933Z" fill="#00826C"/>
<path d="M158.552 20.3789C159.079 20.8183 159.694 21.3457 160.134 21.7851C160.661 22.2245 161.101 22.664 161.54 23.1034C162.419 23.9823 163.21 24.7733 163.913 25.6522C164.617 26.4432 165.144 27.2342 165.671 27.9373C166.199 28.6404 166.55 29.3435 166.902 30.0466C168.308 32.5953 168.484 34.5288 168.308 35.8472C168.045 37.1655 167.429 37.9565 166.814 38.4838C166.199 38.9232 165.671 39.099 165.671 39.099C165.671 39.099 164.968 38.6596 164.001 37.8686C163.562 37.4291 162.947 36.9897 162.419 36.3745C161.892 35.7593 161.277 35.0562 160.749 34.3531C160.222 33.5621 159.694 32.7711 159.167 31.8043C158.728 30.8376 158.288 29.8708 158.024 28.6404C157.936 28.0251 157.761 27.4978 157.761 26.7947C157.673 26.1795 157.673 25.5643 157.673 24.8612C157.849 23.455 158.024 21.9609 158.552 20.3789Z" fill="#00826C"/>
<path d="M137.896 26.0038C141.851 28.992 145.016 31.2771 147.74 32.7712C148.444 33.2106 149.059 33.5622 149.674 33.8259C150.289 34.1774 150.905 34.4411 151.432 34.7047C151.959 34.9684 152.575 35.1442 153.014 35.32C153.542 35.4957 153.981 35.6715 154.508 35.8473C156.354 36.3746 157.848 36.5504 158.815 36.5504C159.87 36.5504 160.397 36.3746 160.397 36.3746C160.397 36.3746 160.31 35.8473 159.782 34.8805C159.519 34.4411 159.255 33.9137 158.727 33.2985C158.288 32.6833 157.673 32.0681 156.882 31.365C156.53 31.0134 156.091 30.6619 155.563 30.3103C155.124 29.9588 154.596 29.6072 153.981 29.3436C153.366 28.992 152.751 28.6405 152.135 28.3768C151.432 28.1132 150.729 27.7616 149.938 27.4979C146.949 26.4433 142.906 25.7402 137.896 26.0038Z" fill="#00826C"/>
<path d="M248.368 86.5589H267.592V96.0629H238.432V45.6629H248.368V86.5589Z" fill="#F4F6F9"/>
<path d="M302.774 91.5989C299.078 95.2469 294.566 97.0709 289.238 97.0709C283.91 97.0709 279.398 95.2469 275.702 91.5989C272.054 87.9029 270.23 83.3909 270.23 78.0629C270.23 72.7349 272.054 68.2469 275.702 64.5989C279.398 60.9029 283.91 59.0549 289.238 59.0549C294.566 59.0549 299.078 60.9029 302.774 64.5989C306.47 68.2469 308.318 72.7349 308.318 78.0629C308.318 83.3909 306.47 87.9029 302.774 91.5989ZM282.254 85.1909C284.126 87.0629 286.454 87.9989 289.238 87.9989C292.022 87.9989 294.35 87.0629 296.222 85.1909C298.094 83.3189 299.03 80.9429 299.03 78.0629C299.03 75.1829 298.094 72.8069 296.222 70.9349C294.35 69.0629 292.022 68.1269 289.238 68.1269C286.454 68.1269 284.126 69.0629 282.254 70.9349C280.43 72.8069 279.518 75.1829 279.518 78.0629C279.518 80.9429 280.43 83.3189 282.254 85.1909Z" fill="#F4F6F9"/>
<path d="M331.988 97.0709C326.564 97.0709 322.028 95.2469 318.38 91.5989C314.78 87.9509 312.98 83.4389 312.98 78.0629C312.98 72.6869 314.78 68.1749 318.38 64.5269C322.028 60.8789 326.564 59.0549 331.988 59.0549C335.492 59.0549 338.684 59.8949 341.564 61.5749C344.444 63.2549 346.628 65.5109 348.116 68.3429L340.124 73.0229C339.404 71.5349 338.3 70.3589 336.812 69.4949C335.372 68.6309 333.74 68.1989 331.916 68.1989C329.132 68.1989 326.828 69.1349 325.004 71.0069C323.18 72.8309 322.268 75.1829 322.268 78.0629C322.268 80.8949 323.18 83.2469 325.004 85.1189C326.828 86.9429 329.132 87.8549 331.916 87.8549C333.788 87.8549 335.444 87.4469 336.884 86.6309C338.372 85.7669 339.476 84.5909 340.196 83.1029L348.26 87.7109C346.676 90.5429 344.444 92.8229 341.564 94.5509C338.684 96.2309 335.492 97.0709 331.988 97.0709Z" fill="#F4F6F9"/>
<path d="M379.969 60.0629H389.257V96.0629H379.969V91.8149C377.185 95.3189 373.273 97.0709 368.233 97.0709C363.433 97.0709 359.305 95.2469 355.849 91.5989C352.441 87.9029 350.737 83.3909 350.737 78.0629C350.737 72.7349 352.441 68.2469 355.849 64.5989C359.305 60.9029 363.433 59.0549 368.233 59.0549C373.273 59.0549 377.185 60.8069 379.969 64.3109V60.0629ZM362.833 85.4069C364.705 87.2789 367.081 88.2149 369.961 88.2149C372.841 88.2149 375.217 87.2789 377.089 85.4069C379.009 83.4869 379.969 81.0389 379.969 78.0629C379.969 75.0869 379.009 72.6629 377.089 70.7909C375.217 68.8709 372.841 67.9109 369.961 67.9109C367.081 67.9109 364.705 68.8709 362.833 70.7909C360.961 72.6629 360.025 75.0869 360.025 78.0629C360.025 81.0389 360.961 83.4869 362.833 85.4069Z" fill="#F4F6F9"/>
<path d="M397.68 96.0629V43.5029H406.968V96.0629H397.68Z" fill="#F4F6F9"/>
<path d="M449.237 45.6629V55.1669H435.629V96.0629H425.693V55.1669H412.157V45.6629H449.237Z" fill="#F4F6F9"/>
<path d="M459.069 66.2549C459.933 63.9509 461.349 62.2229 463.317 61.0709C465.333 59.9189 467.565 59.3429 470.013 59.3429V69.7109C467.181 69.3749 464.637 69.9509 462.381 71.4389C460.173 72.9269 459.069 75.3989 459.069 78.8549V96.0629H449.781V60.0629H459.069V66.2549Z" fill="#F4F6F9"/>
<path d="M501.469 60.0629H510.757V96.0629H501.469V91.8149C498.685 95.3189 494.773 97.0709 489.733 97.0709C484.933 97.0709 480.805 95.2469 477.349 91.5989C473.941 87.9029 472.237 83.3909 472.237 78.0629C472.237 72.7349 473.941 68.2469 477.349 64.5989C480.805 60.9029 484.933 59.0549 489.733 59.0549C494.773 59.0549 498.685 60.8069 501.469 64.3109V60.0629ZM484.333 85.4069C486.205 87.2789 488.581 88.2149 491.461 88.2149C494.341 88.2149 496.717 87.2789 498.589 85.4069C500.509 83.4869 501.469 81.0389 501.469 78.0629C501.469 75.0869 500.509 72.6629 498.589 70.7909C496.717 68.8709 494.341 67.9109 491.461 67.9109C488.581 67.9109 486.205 68.8709 484.333 70.7909C482.461 72.6629 481.525 75.0869 481.525 78.0629C481.525 81.0389 482.461 83.4869 484.333 85.4069Z" fill="#F4F6F9"/>
<path d="M546.468 45.6629H555.756V96.0629H546.468V91.8149C543.732 95.3189 539.844 97.0709 534.804 97.0709C529.956 97.0709 525.804 95.2469 522.348 91.5989C518.94 87.9029 517.236 83.3909 517.236 78.0629C517.236 72.7349 518.94 68.2469 522.348 64.5989C525.804 60.9029 529.956 59.0549 534.804 59.0549C539.844 59.0549 543.732 60.8069 546.468 64.3109V45.6629ZM529.332 85.4069C531.252 87.2789 533.652 88.2149 536.532 88.2149C539.412 88.2149 541.788 87.2789 543.66 85.4069C545.532 83.4869 546.468 81.0389 546.468 78.0629C546.468 75.0869 545.532 72.6629 543.66 70.7909C541.788 68.8709 539.412 67.9109 536.532 67.9109C533.652 67.9109 531.252 68.8709 529.332 70.7909C527.46 72.6629 526.524 75.0869 526.524 78.0629C526.524 81.0389 527.46 83.4869 529.332 85.4069Z" fill="#F4F6F9"/>
<path d="M572.098 81.8789C573.346 86.3909 576.73 88.6469 582.25 88.6469C585.802 88.6469 588.49 87.4469 590.314 85.0469L597.802 89.3669C594.25 94.5029 589.018 97.0709 582.106 97.0709C576.154 97.0709 571.378 95.2709 567.778 91.6709C564.178 88.0709 562.378 83.5349 562.378 78.0629C562.378 72.6389 564.154 68.1269 567.706 64.5269C571.258 60.8789 575.818 59.0549 581.386 59.0549C586.666 59.0549 591.01 60.8789 594.418 64.5269C597.874 68.1749 599.602 72.6869 599.602 78.0629C599.602 79.2629 599.482 80.5349 599.242 81.8789H572.098ZM571.954 74.6789H590.314C589.786 72.2309 588.682 70.4069 587.002 69.2069C585.37 68.0069 583.498 67.4069 581.386 67.4069C578.89 67.4069 576.826 68.0549 575.194 69.3509C573.562 70.5989 572.482 72.3749 571.954 74.6789Z" fill="#F4F6F9"/>
<path d="M257.224 165.071C251.608 165.071 247 163.487 243.4 160.319C239.8 157.151 238 152.903 238 147.575V113.663H247.864V146.783C247.864 149.423 248.608 151.511 250.096 153.047C251.632 154.583 254.008 155.351 257.224 155.351C260.44 155.351 262.792 154.583 264.28 153.047C265.816 151.511 266.584 149.423 266.584 146.783V113.663H276.52V147.575C276.52 152.903 274.72 157.151 271.12 160.319C267.52 163.487 262.888 165.071 257.224 165.071Z" fill="#F4F6F9"/>
<path d="M305.055 127.055C308.991 127.055 312.231 128.375 314.775 131.015C317.367 133.655 318.663 137.303 318.663 141.959V164.063H309.375V143.111C309.375 140.711 308.727 138.887 307.431 137.639C306.135 136.343 304.407 135.695 302.247 135.695C299.847 135.695 297.927 136.439 296.487 137.927C295.047 139.415 294.327 141.647 294.327 144.623V164.063H285.039V128.063H294.327V132.095C296.583 128.735 300.159 127.055 305.055 127.055Z" fill="#F4F6F9"/>
<path d="M331.202 123.743C329.666 123.743 328.322 123.191 327.17 122.087C326.066 120.935 325.514 119.591 325.514 118.055C325.514 116.519 326.066 115.175 327.17 114.023C328.322 112.871 329.666 112.295 331.202 112.295C332.786 112.295 334.13 112.871 335.234 114.023C336.386 115.175 336.962 116.519 336.962 118.055C336.962 119.591 336.386 120.935 335.234 122.087C334.13 123.191 332.786 123.743 331.202 123.743ZM326.594 164.063V128.063H335.882V164.063H326.594Z" fill="#F4F6F9"/>
<path d="M368.071 128.063H378.295L364.615 164.063H354.031L340.351 128.063H350.575L359.287 153.263L368.071 128.063Z" fill="#F4F6F9"/>
<path d="M389.215 149.879C390.463 154.391 393.847 156.647 399.367 156.647C402.919 156.647 405.607 155.447 407.431 153.047L414.919 157.367C411.367 162.503 406.135 165.071 399.223 165.071C393.271 165.071 388.495 163.271 384.895 159.671C381.295 156.071 379.495 151.535 379.495 146.063C379.495 140.639 381.271 136.127 384.823 132.527C388.375 128.879 392.935 127.055 398.503 127.055C403.783 127.055 408.127 128.879 411.535 132.527C414.991 136.175 416.719 140.687 416.719 146.063C416.719 147.263 416.599 148.535 416.359 149.879H389.215ZM389.071 142.679H407.431C406.903 140.231 405.799 138.407 404.119 137.207C402.487 136.007 400.615 135.407 398.503 135.407C396.007 135.407 393.943 136.055 392.311 137.351C390.679 138.599 389.599 140.375 389.071 142.679Z" fill="#F4F6F9"/>
<path d="M432.491 134.255C433.355 131.951 434.771 130.223 436.739 129.071C438.755 127.919 440.987 127.343 443.435 127.343V137.711C440.603 137.375 438.059 137.951 435.803 139.439C433.595 140.927 432.491 143.399 432.491 146.855V164.063H423.203V128.063H432.491V134.255Z" fill="#F4F6F9"/>
<path d="M456.31 138.287C456.31 139.247 456.934 140.039 458.182 140.663C459.478 141.239 461.038 141.767 462.862 142.247C464.686 142.679 466.51 143.255 468.334 143.975C470.158 144.647 471.694 145.799 472.942 147.431C474.238 149.063 474.886 151.103 474.886 153.551C474.886 157.247 473.494 160.103 470.71 162.119C467.974 164.087 464.542 165.071 460.414 165.071C453.022 165.071 447.982 162.215 445.294 156.503L453.358 151.967C454.414 155.087 456.766 156.647 460.414 156.647C463.726 156.647 465.382 155.615 465.382 153.551C465.382 152.591 464.734 151.823 463.438 151.247C462.19 150.623 460.654 150.071 458.83 149.591C457.006 149.111 455.182 148.511 453.358 147.791C451.534 147.071 449.974 145.943 448.678 144.407C447.43 142.823 446.806 140.855 446.806 138.503C446.806 134.951 448.102 132.167 450.694 130.151C453.334 128.087 456.598 127.055 460.486 127.055C463.414 127.055 466.078 127.727 468.478 129.071C470.878 130.367 472.774 132.239 474.166 134.687L466.246 139.007C465.094 136.559 463.174 135.335 460.486 135.335C459.286 135.335 458.278 135.599 457.462 136.127C456.694 136.655 456.31 137.375 456.31 138.287Z" fill="#F4F6F9"/>
<path d="M485.467 123.743C483.931 123.743 482.587 123.191 481.435 122.087C480.331 120.935 479.779 119.591 479.779 118.055C479.779 116.519 480.331 115.175 481.435 114.023C482.587 112.871 483.931 112.295 485.467 112.295C487.051 112.295 488.395 112.871 489.499 114.023C490.651 115.175 491.227 116.519 491.227 118.055C491.227 119.591 490.651 120.935 489.499 122.087C488.395 123.191 487.051 123.743 485.467 123.743ZM480.859 164.063V128.063H490.147V164.063H480.859Z" fill="#F4F6F9"/>
<path d="M519.24 136.991H511.104V151.967C511.104 153.215 511.416 154.127 512.04 154.703C512.664 155.279 513.576 155.615 514.776 155.711C515.976 155.759 517.464 155.735 519.24 155.639V164.063C512.856 164.783 508.344 164.183 505.704 162.263C503.112 160.343 501.816 156.911 501.816 151.967V136.991H495.552V128.063H501.816V120.791L511.104 117.983V128.063H519.24V136.991Z" fill="#F4F6F9"/>
<path d="M550.035 128.063H559.971L546.867 164.063C544.995 169.247 542.499 172.991 539.379 175.295C536.307 177.647 532.467 178.703 527.859 178.463V169.823C530.355 169.871 532.323 169.343 533.763 168.239C535.251 167.135 536.427 165.359 537.291 162.911L522.531 128.063H532.683L542.043 152.255L550.035 128.063Z" fill="#F4F6F9"/>
</svg>
