<svg width="340" height="340" viewBox="0 0 340 340" fill="none" xmlns="http://www.w3.org/2000/svg">
<path d="M225.163 103.237C222.873 97.0553 217.836 92.7052 211.655 89.4999C205.015 86.2945 187.615 82.4023 170.214 82.4023C152.814 82.4023 135.414 86.2945 128.774 89.4999C122.592 92.7052 117.555 97.0553 115.266 103.237C112.976 109.419 114.35 115.371 116.182 121.324C120.99 138.038 128.316 154.064 138.161 169.175C142.969 176.273 148.235 182.912 155.332 188.407C159.682 191.841 164.261 194.36 170.214 194.589C176.167 194.36 180.746 191.841 185.096 188.407C192.194 182.912 197.459 176.273 202.267 169.175C212.341 154.064 219.668 138.267 224.247 121.324C226.078 115.371 227.452 109.419 225.163 103.237Z" fill="#00957B"/>
<path d="M153.5 153.606C176.625 129.566 185.325 96.1395 184.18 83.0892C183.951 83.0892 183.493 83.0892 183.264 83.0892C181.89 82.8602 180.288 82.8602 178.685 82.6313C175.938 82.4023 173.19 82.4023 170.214 82.4023C169.298 82.4023 168.611 82.4023 167.695 82.4023C166.78 109.877 143.884 139.869 129.46 154.522C132.208 159.559 134.955 164.367 138.161 169.175C138.847 170.091 139.305 170.778 139.992 171.694C170.214 167.573 190.82 170.091 199.978 172.38C200.665 171.236 201.58 170.091 202.267 168.946C204.786 165.283 207.075 161.391 209.136 157.728C200.436 153.606 169.985 151.317 153.5 153.606Z" fill="white"/>
<path d="M102.145 213.529C102.76 213.881 103.463 214.232 103.991 214.496C104.606 214.759 105.221 215.023 105.749 215.287C106.891 215.814 107.946 216.254 109.001 216.517C110.056 216.869 110.934 217.045 111.813 217.308C112.692 217.484 113.483 217.66 114.187 217.66C117.087 217.923 118.933 217.484 120.076 216.781C121.218 216.078 121.746 215.111 121.921 214.408C122.097 213.705 122.097 213.09 122.097 213.09C122.097 213.09 121.921 213.002 121.658 212.826C121.394 212.65 120.955 212.386 120.339 212.035C119.812 211.771 119.109 211.42 118.318 211.156C117.527 210.892 116.736 210.541 115.769 210.277C114.89 210.013 113.835 209.926 112.78 209.838C111.726 209.75 110.671 209.75 109.44 210.014C107.243 210.453 104.782 211.42 102.145 213.529Z" fill="#00826C"/>
<path d="M119.109 193.842C119.372 194.281 119.724 194.809 119.988 195.248C120.251 195.687 120.515 196.127 120.779 196.566C121.306 197.357 121.745 198.236 122.185 198.939C122.624 199.642 122.976 200.345 123.328 201.049C123.679 201.752 123.943 202.367 124.206 202.894C125.173 205.179 125.437 206.937 125.349 208.255C125.173 209.574 124.646 210.453 124.119 210.98C123.591 211.507 123.064 211.771 123.064 211.771C123.064 211.771 122.888 211.683 122.624 211.507C122.361 211.331 121.921 211.068 121.394 210.628C120.954 210.277 120.339 209.749 119.812 209.222C119.284 208.695 118.757 207.992 118.23 207.201C117.79 206.41 117.263 205.619 116.999 204.652C116.735 203.685 116.56 202.631 116.56 201.488C116.56 199.203 117.263 196.654 119.109 193.842Z" fill="#00826C"/>
<path d="M91.158 202.543C95.9043 206.147 99.6838 207.729 102.497 208.52C105.309 209.223 107.243 209.047 108.473 208.52C109.704 207.992 110.319 207.201 110.671 206.498C111.022 205.795 111.022 205.268 111.022 205.268C111.022 205.268 110.495 204.653 109.44 203.949C108.386 203.246 106.979 202.28 105.221 201.576C104.342 201.225 103.375 200.873 102.409 200.698C101.354 200.434 100.299 200.346 99.0686 200.346C96.6954 200.258 94.0585 200.873 91.158 202.543Z" fill="#00826C"/>
<path d="M110.934 185.669C112.78 189.8 114.099 192.876 114.714 195.337C115.329 197.797 115.329 199.555 114.978 200.786C114.626 202.104 113.923 202.895 113.307 203.334C112.692 203.774 112.165 203.862 112.165 203.862C112.165 203.862 111.55 203.422 110.671 202.543C109.792 201.665 108.825 200.346 108.034 198.676C107.682 197.885 107.418 196.919 107.243 195.952C107.067 194.985 107.067 193.93 107.243 192.788C107.594 190.503 108.649 188.13 110.934 185.669Z" fill="#00826C"/>
<path d="M82.0166 190.064C84.1261 192.174 85.9719 193.755 87.7298 194.986C88.6088 195.601 89.3998 196.128 90.1909 196.568C90.982 197.007 91.6851 197.359 92.3883 197.623C93.7067 198.238 94.8494 198.501 95.8162 198.589C96.7831 198.677 97.5741 198.677 98.2773 198.501C99.5957 198.15 100.299 197.447 100.738 196.832C101.178 196.216 101.266 195.601 101.266 195.601C101.266 195.601 100.738 194.986 99.8594 194.107C98.9805 193.228 97.7499 192.086 96.0799 191.119C95.2889 190.592 94.4099 190.152 93.3551 189.801C92.8278 189.625 92.3004 189.449 91.773 189.273C91.2457 189.097 90.7183 189.01 90.103 188.922C87.8177 188.57 85.093 188.834 82.0166 190.064Z" fill="#00826C"/>
<path d="M103.99 176.265C104.606 178.374 105.133 180.307 105.485 181.977C105.66 182.768 105.836 183.559 105.924 184.35C106.1 185.053 106.188 185.757 106.188 186.372C106.276 187.602 106.276 188.657 106.188 189.624C106.1 190.502 105.924 191.293 105.66 191.821C105.133 193.051 104.342 193.666 103.639 194.018C102.936 194.37 102.408 194.37 102.408 194.37C102.408 194.37 101.793 193.842 101.09 192.788C100.387 191.733 99.5956 190.327 99.0683 188.569C98.8046 187.69 98.7167 186.723 98.7167 185.757C98.7167 185.229 98.7167 184.79 98.8046 184.262C98.8925 183.735 98.9804 183.208 99.1562 182.68C100.035 180.571 101.441 178.374 103.99 176.265Z" fill="#00826C"/>
<path d="M74.7213 176.265C78.1492 181.098 81.3135 183.735 83.7746 185.317C85.0051 186.108 86.1478 186.547 87.0267 186.811C87.9936 187.075 88.7846 187.163 89.4878 187.075C90.8062 186.899 91.6852 186.284 92.2126 185.756C92.7399 185.229 92.9157 184.702 92.9157 184.702C92.9157 184.702 92.4762 183.999 91.7731 182.944C91.0699 181.889 89.9273 180.659 88.5209 179.429C87.8178 178.813 86.9388 178.198 86.0599 177.759C85.1809 177.231 84.1262 176.792 82.9835 176.44C81.8409 176.089 80.6103 175.913 79.204 175.825C77.8856 175.737 76.3913 175.913 74.7213 176.265Z" fill="#00826C"/>
<path d="M98.6289 165.982C99.2442 170.465 99.5079 173.804 99.3321 176.265C99.2442 177.496 99.1563 178.55 98.8926 179.429C98.6289 180.308 98.3652 181.011 98.0137 181.539C97.3105 182.681 96.4315 183.208 95.7284 183.472C95.0252 183.736 94.4099 183.648 94.4099 183.648C94.4099 183.648 93.8826 183.033 93.3552 181.89C92.8278 180.748 92.2125 179.253 92.0367 177.408C91.9489 176.529 91.9489 175.562 92.0367 174.595C92.2125 173.629 92.4762 172.574 93.0036 171.607C93.531 170.64 94.1462 169.586 95.1131 168.707C95.9921 167.74 97.1347 166.861 98.6289 165.982Z" fill="#00826C"/>
<path d="M69.7112 161.588C71.0296 164.225 72.4359 166.334 73.6665 168.004C74.9849 169.674 76.2155 170.904 77.2702 171.871C79.5555 173.717 81.3134 174.332 82.6319 174.42C83.9503 174.508 84.9171 173.98 85.5324 173.541C86.1477 173.014 86.4114 172.574 86.4114 172.574C86.4114 172.574 86.1477 171.783 85.5324 170.729C85.2687 170.201 84.8292 169.586 84.3898 168.883C83.9503 168.18 83.4229 167.477 82.8076 166.774C82.4561 166.422 82.1924 166.07 81.7529 165.719C81.4013 165.367 81.0497 165.016 80.6103 164.664C79.8192 164.049 78.8523 163.434 77.7976 162.907C76.7428 162.379 75.5123 162.028 74.1939 161.764C72.8754 161.588 71.3812 161.5 69.7112 161.588Z" fill="#00826C"/>
<path d="M94.7615 154.996C94.6736 157.281 94.6736 159.215 94.4978 160.885C94.4099 162.554 94.2341 164.049 93.8825 165.279C93.443 167.74 92.652 169.322 91.773 170.289C90.8941 171.255 89.9272 171.695 89.224 171.783C88.433 171.958 87.9056 171.783 87.9056 171.783C87.9056 171.783 87.554 171.08 87.1145 169.937C86.9388 169.322 86.763 168.707 86.5872 167.916C86.4993 167.125 86.4114 166.246 86.4114 165.367C86.4114 164.927 86.4993 164.488 86.4993 163.961C86.5872 163.521 86.6751 162.994 86.8509 162.554C87.1145 161.588 87.6419 160.621 88.2572 159.742C88.8725 158.863 89.7514 157.984 90.8062 157.193C91.9488 156.314 93.2672 155.611 94.7615 154.996Z" fill="#00826C"/>
<path d="M66.8986 146.296C67.4259 147.702 67.8654 148.933 68.3049 150.163C68.8323 151.305 69.3596 152.36 69.7991 153.239C70.0628 153.678 70.3265 154.118 70.5023 154.557C70.766 154.997 71.0297 155.348 71.2933 155.7C71.8207 156.403 72.2602 157.018 72.7876 157.633C73.7544 158.776 74.6334 159.479 75.5123 160.006C76.3034 160.534 77.0945 160.797 77.7097 160.973C79.0282 161.237 79.995 160.885 80.6982 160.534C81.4013 160.182 81.665 159.655 81.665 159.655C81.665 159.655 81.4892 158.864 81.0498 157.721C80.7861 157.106 80.6103 156.403 80.2587 155.7C79.9071 154.997 79.4676 154.206 78.9403 153.415C78.4129 152.624 77.8855 151.833 77.0945 151.042C76.3913 150.251 75.5123 149.548 74.5455 148.845C72.6997 147.526 70.2386 146.56 66.8986 146.296Z" fill="#00826C"/>
<path d="M92.7401 143.57C92.5643 144.713 92.3885 145.68 92.1248 146.646C91.949 147.613 91.7732 148.492 91.5974 149.371C91.5095 149.81 91.4216 150.162 91.2459 150.601C91.158 150.953 91.0701 151.392 90.9822 151.744C90.8064 152.447 90.5427 153.062 90.3669 153.677C89.9274 154.82 89.4879 155.787 88.9606 156.578C88.5211 157.369 87.9937 157.896 87.4663 158.335C86.4116 159.214 85.4447 159.478 84.6537 159.478C83.8626 159.478 83.3352 159.302 83.3352 159.302C83.3352 159.302 83.0716 158.511 82.8958 157.369C82.8079 156.753 82.72 156.05 82.72 155.259C82.72 154.468 82.8079 153.59 82.9837 152.711C83.1594 151.832 83.511 150.865 83.8626 149.986C84.3021 149.107 84.8295 148.228 85.6205 147.437C87.2027 145.68 89.4879 144.361 92.7401 143.57Z" fill="#00826C"/>
<path d="M66.3711 130.827C66.6348 132.321 66.9864 133.64 67.2501 134.782C67.6016 136.013 67.9532 137.067 68.3048 138.122C68.6564 139.089 69.008 139.967 69.4474 140.758C69.8869 141.549 70.2385 142.253 70.5901 142.868C71.3811 144.098 72.0843 144.977 72.8754 145.68C73.5785 146.295 74.2817 146.735 74.9849 146.999C76.2154 147.438 77.2702 147.262 77.9733 146.999C78.6765 146.735 79.116 146.295 79.116 146.295C79.116 146.295 79.116 145.504 78.8523 144.274C78.6765 143.044 78.237 141.374 77.4459 139.704C77.0944 138.825 76.567 137.946 76.0396 137.067C75.4243 136.188 74.7212 135.309 73.8422 134.518C71.9964 132.936 69.6232 131.53 66.3711 130.827Z" fill="#00826C"/>
<path d="M92.3004 131.97C91.9488 133.024 91.5972 134.079 91.2456 134.958C90.894 135.925 90.6303 136.716 90.2788 137.507C90.0151 138.298 89.5756 139.001 89.3119 139.704C89.0482 140.407 88.6966 140.934 88.433 141.549C87.8177 142.692 87.2024 143.571 86.5871 144.186C85.9719 144.889 85.4445 145.329 84.8292 145.68C83.6866 146.383 82.6318 146.471 81.9287 146.383C81.1376 146.295 80.6981 146.032 80.6981 146.032C80.6981 146.032 80.5223 145.241 80.5223 144.01C80.5223 142.78 80.6981 141.11 81.3134 139.44C81.665 138.561 82.1045 137.682 82.6318 136.891C83.1592 136.1 83.8624 135.309 84.7413 134.606C86.5871 133.2 89.0482 132.233 92.3004 131.97Z" fill="#00826C"/>
<path d="M68.217 115.358C68.3049 118.347 68.5686 120.807 69.0081 122.829C69.2718 123.884 69.4476 124.762 69.7113 125.641C69.8871 126.169 69.975 126.52 70.1507 126.872C70.3265 127.223 70.4144 127.575 70.5902 127.926C71.2055 129.245 71.8208 130.211 72.436 131.002C73.0513 131.793 73.6666 132.233 74.2818 132.584C75.5124 133.2 76.4792 133.2 77.2703 133.024C77.9735 132.848 78.5008 132.497 78.5008 132.497C78.5008 132.497 78.5008 132.321 78.5008 131.969C78.5008 131.618 78.5008 131.09 78.5008 130.475C78.5008 129.245 78.2371 127.575 77.7977 125.729C77.2703 123.884 76.4792 121.95 74.985 120.104C73.4029 118.259 71.3813 116.589 68.217 115.358Z" fill="#00826C"/>
<path d="M93.7067 120.368C92.652 122.39 91.773 124.06 90.894 125.554C90.4546 126.257 90.103 126.96 89.6635 127.575C89.4877 127.839 89.224 128.19 89.0482 128.454C88.8724 128.718 88.6967 128.981 88.5209 129.245C87.7298 130.212 87.0266 131.003 86.3235 131.618C85.6203 132.233 85.005 132.585 84.3898 132.848C83.1592 133.376 82.1045 133.288 81.4013 133.112C80.6981 132.936 80.2587 132.585 80.2587 132.585C80.2587 132.585 80.2587 132.409 80.2587 132.057C80.2587 131.706 80.2587 131.178 80.4345 130.563C80.6102 129.333 80.9618 127.751 81.8408 126.081C82.6319 124.499 84.0382 122.917 85.9719 121.774C87.8177 120.72 90.4546 120.192 93.7067 120.368Z" fill="#00826C"/>
<path d="M72.348 100.418C72.2602 101.121 72.1723 101.824 72.0844 102.527C71.9965 103.23 71.9965 103.846 71.9965 104.461C71.9965 105.076 71.9965 105.691 71.9086 106.306C71.9086 106.922 71.9086 107.449 71.9965 107.976C72.0844 109.031 72.1723 109.998 72.2602 110.877C72.4359 111.755 72.6117 112.546 72.7875 113.25C72.9633 113.953 73.227 114.568 73.4028 115.095C73.6665 115.623 73.9302 116.15 74.106 116.501C74.6333 117.38 75.1607 117.908 75.6881 118.347C76.7428 119.138 77.7976 119.314 78.5886 119.226C79.3797 119.138 79.8192 118.874 79.8192 118.874C79.8192 118.874 79.995 118.083 80.1708 116.853C80.2587 116.238 80.3466 115.535 80.3466 114.656C80.3466 113.865 80.2587 112.898 80.1708 112.019C80.0829 111.052 79.9071 110.086 79.5555 109.119C79.2039 108.152 78.8523 107.097 78.2371 106.043C77.0944 104.021 75.2486 102.088 72.348 100.418Z" fill="#00826C"/>
<path d="M96.7831 109.207C96.0799 110.086 95.4647 110.965 94.9373 111.756C94.322 112.547 93.7946 113.25 93.2673 113.953C92.7399 114.656 92.2125 115.183 91.6851 115.799C91.2457 116.326 90.7183 116.853 90.2788 117.293C89.8393 117.732 89.3999 118.084 88.9604 118.435C88.5209 118.787 88.1693 119.05 87.8177 119.314C87.0267 119.753 86.3235 120.105 85.7082 120.281C84.3898 120.632 83.423 120.369 82.7198 120.105C82.0166 119.753 81.665 119.402 81.665 119.402C81.665 119.402 81.7529 118.611 82.1045 117.468C82.2803 116.853 82.544 116.238 82.8956 115.447C83.2472 114.744 83.5987 113.953 84.214 113.25C84.7414 112.547 85.4446 111.844 86.2356 111.228C87.0267 110.613 87.9935 110.086 88.9604 109.646C90.8941 108.68 93.531 108.504 96.7831 109.207Z" fill="#00826C"/>
<path d="M78.6765 86.1807C77.8855 88.9931 77.3581 91.4539 77.1823 93.5632C76.9186 95.6725 77.0065 97.4303 77.1823 98.8365C77.2702 99.5396 77.3581 100.243 77.5339 100.77C77.7097 101.385 77.8855 101.825 78.0612 102.352C78.4128 103.231 78.8523 103.934 79.3797 104.373C80.3465 105.34 81.3134 105.604 82.1044 105.692C82.8955 105.78 83.4229 105.604 83.4229 105.604C83.4229 105.604 83.7745 104.901 84.0382 103.67C84.3018 102.44 84.7413 100.77 84.7413 98.9244C84.7413 97.9576 84.7413 96.9909 84.5655 95.9362C84.4776 95.4089 84.3897 94.8816 84.2139 94.3542C84.0382 93.8269 83.9503 93.2996 83.6866 92.7722C82.8076 90.5751 81.3134 88.29 78.6765 86.1807Z" fill="#00826C"/>
<path d="M101.53 98.5723C99.9474 100.154 98.5411 101.56 97.3105 102.703C95.9921 103.846 94.9373 104.812 93.8826 105.515C93.3552 105.867 92.9157 106.218 92.3884 106.482C91.9489 106.746 91.5094 107.009 91.0699 107.185C90.2789 107.537 89.4878 107.713 88.7846 107.8C87.4662 107.976 86.4994 107.537 85.8841 107.185C85.2688 106.746 84.9172 106.306 84.9172 106.306C84.9172 106.306 85.093 105.515 85.6204 104.461C86.1478 103.318 87.0267 101.912 88.2573 100.594C88.8725 99.9785 89.6636 99.3632 90.5426 98.8359C90.982 98.5723 91.4215 98.3965 91.9489 98.1328C92.4763 97.957 93.0036 97.7813 93.531 97.6934C95.8163 97.166 98.4532 97.3418 101.53 98.5723Z" fill="#00826C"/>
<path d="M87.1145 73.1729C84.6534 78.534 83.8624 82.6647 83.6866 85.4771C83.5987 88.3774 84.214 90.1352 85.005 91.2777C85.7961 92.4203 86.7629 92.7718 87.4661 92.9476C88.2572 93.1234 88.7845 93.0355 88.7845 93.0355C88.7845 93.0355 88.8724 92.8597 89.0482 92.5082C89.224 92.1566 89.4877 91.7172 89.7514 91.1898C90.0151 90.6625 90.2788 89.9594 90.5425 89.1684C90.8061 88.3774 91.0698 87.4986 91.2456 86.6197C91.4214 85.6529 91.5093 84.6861 91.5093 83.6315C91.5093 82.5768 91.3335 81.4343 91.1577 80.2918C90.5425 78.0067 89.3998 75.5458 87.1145 73.1729Z" fill="#00826C"/>
<path d="M107.858 88.8168C104.254 91.5413 101.529 93.3869 99.244 94.5295C97.0467 95.672 95.2887 96.0236 93.9703 96.0236C92.6519 95.9357 91.7729 95.4963 91.1576 94.9689C90.5424 94.4416 90.3666 93.9143 90.3666 93.9143C90.3666 93.9143 90.4545 93.7385 90.6303 93.3869C90.8061 93.0354 91.0697 92.6838 91.4213 92.1565C91.7729 91.6292 92.2124 91.1019 92.7398 90.4866C93.2671 89.8714 93.9703 89.3441 94.6735 88.8168C95.3766 88.2895 96.2556 87.85 97.2224 87.4106C98.1893 87.059 99.1561 86.7954 100.299 86.7075C102.408 86.6196 104.957 87.1469 107.858 88.8168Z" fill="#00826C"/>
<path d="M97.3103 61.4834C94.0581 66.4051 92.6518 70.3601 92.1244 73.1725C91.8607 74.5787 91.7728 75.8091 91.8607 76.7759C91.9486 77.7426 92.2123 78.5336 92.476 79.1488C93.0913 80.3793 93.9702 80.9066 94.6734 81.1703C95.3765 81.4339 95.9039 81.4339 95.9039 81.4339C95.9039 81.4339 95.9918 81.2581 96.2555 80.9945C96.4313 80.7308 96.7829 80.2914 97.1345 79.7641C97.486 79.2367 97.8376 78.6215 98.1892 77.8305C98.5408 77.1274 98.8924 76.3364 99.244 75.3697C99.4198 74.9302 99.5076 74.4908 99.6834 73.9635C99.7713 73.4361 99.9471 72.9967 100.035 72.4694C100.211 71.4147 100.211 70.2722 100.123 69.1296C100.035 66.8446 99.244 64.2079 97.3103 61.4834Z" fill="#00826C"/>
<path d="M115.505 80.0285C114.538 80.5558 113.571 81.0832 112.692 81.5226C111.813 81.962 111.022 82.4015 110.231 82.753C109.44 83.1046 108.737 83.4561 108.034 83.7198C107.33 83.9835 106.715 84.2471 106.1 84.4229C104.957 84.8623 103.902 85.0381 102.936 85.126C102.057 85.2139 101.266 85.2139 100.65 85.0381C99.3319 84.7745 98.5408 84.1592 98.0135 83.544C97.4861 82.9288 97.3982 82.4015 97.3982 82.4015C97.3982 82.4015 97.4861 82.2257 97.6619 81.962C97.8377 81.6984 98.1893 81.2589 98.6287 80.8195C99.0682 80.3801 99.5956 79.8527 100.211 79.3254C100.826 78.7981 101.529 78.3586 102.408 77.9192C102.848 77.7434 103.199 77.4798 103.639 77.304C104.078 77.1282 104.606 77.0403 105.045 76.8645C106.012 76.6888 107.067 76.6009 108.209 76.6888C110.495 77.0403 112.956 78.0071 115.505 80.0285Z" fill="#00826C"/>
<path d="M109.264 51.4648C107.243 53.662 105.836 55.6835 104.694 57.4412C103.639 59.2869 102.848 60.7809 102.408 62.1871C101.969 63.5934 101.705 64.7359 101.617 65.7027C101.529 66.6694 101.705 67.4604 101.881 68.1635C102.32 69.4818 103.111 70.097 103.727 70.5365C104.43 70.888 104.957 70.9759 104.957 70.9759C104.957 70.9759 105.133 70.8001 105.397 70.6244C105.66 70.3607 106.012 70.0092 106.452 69.5697C107.33 68.6908 108.297 67.2846 109.176 65.6148C110.055 63.9449 110.758 61.9235 110.934 59.5505C111.022 57.1775 110.671 54.5409 109.264 51.4648Z" fill="#00826C"/>
<path d="M124.382 72.5572C122.273 73.3482 120.427 73.9634 118.757 74.4029C117.175 74.9302 115.68 75.1939 114.45 75.4575C113.219 75.6333 112.165 75.7212 111.286 75.7212C110.407 75.7212 109.616 75.5454 109 75.2817C107.77 74.8423 107.067 74.0513 106.627 73.4361C106.188 72.8209 106.188 72.2057 106.188 72.2057C106.188 72.2057 106.276 72.0299 106.539 71.7662C106.803 71.5026 107.155 71.151 107.594 70.7995C108.561 70.0964 109.967 69.1296 111.725 68.5144C113.395 67.8992 115.505 67.7234 117.702 68.2507C119.899 68.778 122.185 70.1842 124.382 72.5572Z" fill="#00826C"/>
<path d="M122.449 43.3789C121.921 43.8183 121.306 44.3457 120.867 44.7851C120.339 45.2245 119.9 45.664 119.46 46.1034C118.581 46.9823 117.79 47.7733 117.087 48.6522C116.384 49.4432 115.857 50.2342 115.329 50.9373C114.802 51.6404 114.45 52.3435 114.099 53.0466C112.692 55.5953 112.517 57.5288 112.692 58.8472C112.956 60.1655 113.571 60.9565 114.187 61.4838C114.802 61.9232 115.329 62.099 115.329 62.099C115.329 62.099 116.032 61.6596 116.999 60.8686C117.439 60.4291 118.054 59.9897 118.581 59.3745C119.109 58.7593 119.724 58.0562 120.251 57.3531C120.779 56.5621 121.306 55.7711 121.834 54.8043C122.273 53.8376 122.712 52.8708 122.976 51.6404C123.064 51.0251 123.24 50.4978 123.24 49.7947C123.328 49.1795 123.328 48.5643 123.328 47.8612C123.24 46.455 122.976 44.9609 122.449 43.3789Z" fill="#00826C"/>
<path d="M134.315 66.4933C133.172 66.669 132.205 66.9327 131.238 67.1085C130.271 67.2843 129.305 67.3721 128.514 67.5479C127.635 67.6358 126.843 67.7237 126.14 67.8116C125.437 67.8995 124.734 67.8995 124.119 67.8995C121.57 67.8995 119.9 67.5479 118.757 66.9327C117.614 66.3175 116.999 65.4386 116.735 64.7355C116.472 64.0324 116.472 63.5051 116.472 63.5051C116.472 63.5051 117.087 62.9778 118.142 62.3625C118.669 62.0989 119.284 61.7473 120.076 61.4837C120.779 61.22 121.658 60.9563 122.537 60.7806C123.416 60.6048 124.382 60.5169 125.349 60.6048C126.316 60.6927 127.371 60.9563 128.426 61.3958C128.953 61.5716 129.48 61.8352 130.008 62.1868C130.535 62.5383 131.062 62.8899 131.502 63.3293C132.381 64.0324 133.436 65.0871 134.315 66.4933Z" fill="#00826C"/>
<path d="M143.104 48.9154C138.094 48.6517 134.051 49.4427 130.886 50.4973C130.095 50.761 129.392 51.1126 128.689 51.3762C127.986 51.6399 127.371 51.9914 126.843 52.343C126.316 52.6945 125.789 53.0461 125.261 53.3097C124.822 53.6613 124.382 54.0128 124.031 54.3644C122.448 55.6827 121.657 57.001 121.218 57.9678C120.778 58.8467 120.691 59.4619 120.691 59.4619C120.691 59.4619 121.218 59.6377 122.273 59.6377C122.8 59.6377 123.415 59.5498 124.118 59.4619C124.822 59.374 125.701 59.1982 126.58 58.9346C127.019 58.7588 127.546 58.583 128.074 58.4072C128.601 58.2315 129.129 57.9678 129.656 57.792C130.183 57.5284 130.799 57.2647 131.414 56.9131C132.029 56.5616 132.644 56.21 133.348 55.8585C135.984 54.1886 139.149 51.9035 143.104 48.9154Z" fill="#00826C"/>
<path d="M220.892 193.843C220.628 194.282 220.277 194.81 220.013 195.249C219.749 195.688 219.486 196.128 219.222 196.567C218.695 197.358 218.255 198.237 217.816 198.94C217.376 199.643 217.025 200.346 216.673 201.05C216.321 201.753 216.058 202.368 215.794 202.895C214.827 205.18 214.563 206.938 214.651 208.256C214.827 209.575 215.355 210.454 215.882 210.981C216.409 211.508 216.937 211.772 216.937 211.772C216.937 211.772 217.112 211.684 217.376 211.508C217.64 211.332 218.079 211.069 218.607 210.629C219.046 210.278 219.661 209.75 220.189 209.223C220.716 208.696 221.244 207.993 221.771 207.202C222.21 206.411 222.738 205.62 223.001 204.653C223.265 203.686 223.441 202.632 223.441 201.489C223.529 199.204 222.738 196.655 220.892 193.843Z" fill="#00826C"/>
<path d="M237.856 213.529C237.24 213.881 236.537 214.232 236.01 214.496C235.395 214.759 234.779 215.023 234.252 215.287C233.109 215.814 232.055 216.254 231 216.517C229.945 216.869 229.066 217.044 228.187 217.308C227.308 217.484 226.517 217.66 225.814 217.66C222.913 217.923 221.068 217.484 219.925 216.781C218.782 216.078 218.255 215.111 218.079 214.408C217.903 213.705 217.903 213.09 217.903 213.09C217.903 213.09 218.079 213.002 218.343 212.826C218.606 212.65 219.046 212.386 219.661 212.035C220.189 211.771 220.892 211.42 221.683 211.156C222.474 210.892 223.265 210.541 224.232 210.277C225.111 210.013 226.166 209.926 227.22 209.838C228.275 209.75 229.33 209.75 230.56 210.014C232.758 210.453 235.307 211.42 237.856 213.529Z" fill="#00826C"/>
<path d="M229.154 185.669C227.308 189.8 225.99 192.876 225.374 195.337C224.759 197.797 224.759 199.555 225.111 200.786C225.462 202.104 226.165 202.895 226.781 203.334C227.396 203.774 227.923 203.862 227.923 203.862C227.923 203.862 228.539 203.422 229.418 202.543C230.297 201.665 231.263 200.346 232.054 198.676C232.406 197.885 232.67 196.919 232.846 195.952C233.021 194.985 233.021 193.93 232.846 192.788C232.406 190.503 231.351 188.13 229.154 185.669Z" fill="#00826C"/>
<path d="M248.843 202.544C244.096 206.148 240.317 207.73 237.504 208.521C234.691 209.224 232.758 209.048 231.527 208.521C230.297 207.993 229.681 207.202 229.33 206.499C228.978 205.796 228.978 205.269 228.978 205.269C228.978 205.269 229.506 204.654 230.56 203.95C231.615 203.247 233.021 202.281 234.779 201.577C235.658 201.226 236.625 200.874 237.592 200.699C238.647 200.435 239.702 200.347 240.932 200.347C243.305 200.259 245.942 200.874 248.843 202.544Z" fill="#00826C"/>
<path d="M236.01 176.266C235.394 178.375 234.867 180.308 234.515 181.978C234.34 182.769 234.164 183.56 234.076 184.351C233.9 185.054 233.812 185.758 233.812 186.373C233.724 187.603 233.724 188.658 233.812 189.625C233.9 190.503 234.076 191.294 234.34 191.822C234.867 193.052 235.658 193.667 236.361 194.019C237.064 194.371 237.592 194.371 237.592 194.371C237.592 194.371 238.207 193.843 238.91 192.789C239.613 191.734 240.404 190.328 240.932 188.57C241.195 187.691 241.283 186.724 241.283 185.758C241.283 185.23 241.283 184.791 241.195 184.263C241.108 183.736 241.02 183.209 240.844 182.681C240.053 180.572 238.647 178.375 236.01 176.266Z" fill="#00826C"/>
<path d="M258.072 190.063C255.963 192.173 254.117 193.755 252.359 194.985C251.48 195.6 250.689 196.127 249.898 196.567C249.107 197.006 248.404 197.358 247.7 197.622C246.382 198.237 245.239 198.5 244.272 198.588C243.306 198.676 242.515 198.676 241.811 198.5C240.493 198.149 239.79 197.446 239.35 196.831C238.911 196.215 238.823 195.6 238.823 195.6C238.823 195.6 239.35 194.985 240.229 194.106C241.108 193.227 242.339 192.085 244.009 191.118C244.8 190.591 245.679 190.151 246.733 189.8C247.261 189.624 247.788 189.448 248.316 189.272C248.843 189.096 249.37 189.009 249.986 188.921C252.271 188.569 254.996 188.833 258.072 190.063Z" fill="#00826C"/>
<path d="M241.459 165.982C240.844 170.465 240.58 173.804 240.756 176.265C240.844 177.496 240.932 178.55 241.196 179.429C241.459 180.308 241.723 181.011 242.075 181.539C242.778 182.681 243.657 183.208 244.36 183.472C245.063 183.736 245.678 183.648 245.678 183.648C245.678 183.648 246.206 183.033 246.733 181.89C247.26 180.748 247.876 179.253 248.052 177.408C248.139 176.529 248.139 175.562 248.052 174.595C247.876 173.629 247.612 172.574 247.085 171.607C246.557 170.64 245.942 169.586 244.975 168.707C244.008 167.74 242.866 166.861 241.459 165.982Z" fill="#00826C"/>
<path d="M265.279 176.266C261.851 181.099 258.687 183.736 256.226 185.318C254.996 186.109 253.853 186.548 252.974 186.812C252.007 187.076 251.216 187.164 250.513 187.076C249.194 186.9 248.315 186.285 247.788 185.757C247.261 185.23 247.085 184.703 247.085 184.703C247.085 184.703 247.524 184 248.228 182.945C248.931 181.89 250.073 180.66 251.48 179.43C252.183 178.814 253.062 178.199 253.941 177.76C254.82 177.232 255.875 176.793 257.017 176.441C258.16 176.09 259.39 175.914 260.797 175.826C262.203 175.738 263.609 175.914 265.279 176.266Z" fill="#00826C"/>
<path d="M245.239 154.996C245.327 157.281 245.327 159.215 245.503 160.885C245.59 162.554 245.766 164.049 246.118 165.279C246.557 167.74 247.348 169.322 248.227 170.289C249.106 171.255 250.073 171.695 250.776 171.783C251.567 171.958 252.095 171.783 252.095 171.783C252.095 171.783 252.446 171.08 252.886 169.937C253.062 169.322 253.237 168.707 253.413 167.916C253.501 167.125 253.589 166.246 253.589 165.367C253.589 164.927 253.501 164.488 253.501 163.961C253.413 163.521 253.325 162.994 253.15 162.554C252.886 161.588 252.358 160.621 251.743 159.742C251.128 158.863 250.249 157.984 249.194 157.193C248.052 156.314 246.733 155.611 245.239 154.996Z" fill="#00826C"/>
<path d="M270.377 161.587C269.059 164.224 267.652 166.333 266.422 168.003C265.103 169.673 263.873 170.903 262.818 171.87C260.533 173.716 258.775 174.331 257.456 174.419C256.138 174.507 255.171 173.979 254.556 173.54C253.94 173.013 253.677 172.573 253.677 172.573C253.677 172.573 253.94 171.782 254.556 170.728C254.819 170.2 255.259 169.585 255.698 168.882C256.138 168.179 256.665 167.476 257.28 166.773C257.632 166.421 257.896 166.069 258.335 165.718C258.687 165.366 259.038 165.015 259.478 164.663C260.269 164.048 261.236 163.433 262.291 162.906C263.345 162.378 264.576 162.027 265.894 161.763C267.213 161.587 268.707 161.499 270.377 161.587Z" fill="#00826C"/>
<path d="M247.348 143.571C247.524 144.714 247.7 145.681 247.964 146.647C248.139 147.614 248.315 148.493 248.491 149.372C248.579 149.811 248.667 150.163 248.843 150.602C248.93 150.954 249.018 151.393 249.106 151.745C249.282 152.448 249.546 153.063 249.721 153.678C250.161 154.821 250.6 155.788 251.128 156.579C251.567 157.37 252.095 157.897 252.622 158.336C253.677 159.215 254.644 159.479 255.435 159.479C256.226 159.479 256.753 159.303 256.753 159.303C256.753 159.303 257.017 158.512 257.193 157.37C257.281 156.754 257.368 156.051 257.368 155.26C257.368 154.469 257.281 153.591 257.105 152.712C256.929 151.833 256.577 150.866 256.226 149.987C255.786 149.108 255.259 148.229 254.468 147.438C252.798 145.681 250.513 144.362 247.348 143.571Z" fill="#00826C"/>
<path d="M273.19 146.296C272.662 147.702 272.223 148.933 271.783 150.163C271.256 151.305 270.729 152.36 270.289 153.239C270.025 153.678 269.762 154.118 269.586 154.557C269.322 154.997 269.059 155.348 268.795 155.7C268.268 156.403 267.828 157.018 267.301 157.633C266.334 158.776 265.455 159.479 264.576 160.006C263.785 160.534 262.994 160.797 262.379 160.973C261.06 161.237 260.093 160.885 259.39 160.534C258.687 160.182 258.423 159.655 258.423 159.655C258.423 159.655 258.599 158.864 259.038 157.721C259.302 157.106 259.478 156.403 259.83 155.7C260.181 154.997 260.621 154.206 261.148 153.415C261.675 152.624 262.203 151.833 262.994 151.042C263.697 150.251 264.576 149.548 265.543 148.845C267.301 147.526 269.85 146.56 273.19 146.296Z" fill="#00826C"/>
<path d="M247.7 131.97C248.051 133.024 248.403 134.079 248.755 134.958C249.106 135.925 249.37 136.716 249.721 137.507C249.985 138.298 250.425 139.001 250.688 139.704C250.952 140.407 251.304 140.934 251.567 141.549C252.183 142.692 252.798 143.571 253.413 144.186C254.028 144.889 254.556 145.329 255.171 145.68C256.314 146.383 257.368 146.471 258.072 146.383C258.863 146.295 259.302 146.032 259.302 146.032C259.302 146.032 259.478 145.241 259.478 144.01C259.478 142.78 259.302 141.11 258.687 139.44C258.335 138.561 257.896 137.682 257.368 136.891C256.841 136.1 256.138 135.309 255.259 134.606C253.413 133.2 251.04 132.233 247.7 131.97Z" fill="#00826C"/>
<path d="M273.629 130.827C273.365 132.321 273.014 133.64 272.75 134.782C272.398 136.013 272.047 137.067 271.695 138.122C271.344 139.089 270.992 139.967 270.553 140.758C270.113 141.549 269.762 142.253 269.41 142.868C268.619 144.098 267.916 144.977 267.125 145.68C266.422 146.295 265.718 146.735 265.015 146.999C263.785 147.438 262.73 147.262 262.027 146.999C261.324 146.735 260.884 146.295 260.884 146.295C260.884 146.295 260.884 145.504 261.148 144.274C261.324 143.044 261.763 141.374 262.554 139.704C262.906 138.825 263.433 137.946 263.961 137.067C264.576 136.188 265.279 135.309 266.158 134.518C268.004 132.936 270.377 131.53 273.629 130.827Z" fill="#00826C"/>
<path d="M246.294 120.369C247.349 122.391 248.228 124.061 249.106 125.555C249.546 126.258 249.898 126.961 250.337 127.576C250.513 127.84 250.777 128.191 250.952 128.455C251.128 128.719 251.304 128.982 251.48 129.246C252.271 130.213 252.974 131.004 253.677 131.619C254.38 132.234 254.995 132.586 255.611 132.849C256.841 133.377 257.896 133.289 258.599 133.113C259.302 132.937 259.742 132.586 259.742 132.586C259.742 132.586 259.742 132.41 259.742 132.058C259.742 131.707 259.742 131.179 259.566 130.564C259.39 129.334 259.039 127.752 258.16 126.082C257.369 124.5 255.962 122.918 254.029 121.775C252.183 120.721 249.634 120.193 246.294 120.369Z" fill="#00826C"/>
<path d="M271.783 115.359C271.696 118.348 271.432 120.808 270.992 122.83C270.729 123.884 270.553 124.763 270.289 125.642C270.201 126.082 270.026 126.433 269.938 126.873C269.762 127.224 269.674 127.576 269.498 127.927C268.883 129.246 268.268 130.212 267.652 131.003C267.037 131.794 266.422 132.234 265.807 132.585C264.576 133.201 263.609 133.201 262.818 133.025C262.115 132.849 261.588 132.497 261.588 132.497C261.588 132.497 261.588 132.322 261.588 131.97C261.588 131.619 261.588 131.091 261.588 130.476C261.588 129.246 261.851 127.576 262.291 125.73C262.818 123.884 263.609 121.951 265.103 120.105C266.598 118.26 268.707 116.59 271.783 115.359Z" fill="#00826C"/>
<path d="M243.217 109.207C243.92 110.086 244.536 110.965 245.063 111.756C245.678 112.547 246.206 113.25 246.733 113.953C247.26 114.656 247.788 115.183 248.315 115.799C248.755 116.326 249.282 116.853 249.722 117.293C250.161 117.732 250.601 118.084 251.04 118.435C251.479 118.787 251.831 119.05 252.183 119.314C252.974 119.753 253.677 120.105 254.292 120.281C255.611 120.632 256.577 120.369 257.281 120.105C257.984 119.753 258.335 119.402 258.335 119.402C258.335 119.402 258.247 118.611 257.896 117.468C257.72 116.853 257.456 116.238 257.105 115.447C256.753 114.744 256.402 113.953 255.786 113.25C255.259 112.547 254.556 111.844 253.765 111.228C252.974 110.613 252.007 110.086 251.04 109.646C249.106 108.68 246.469 108.504 243.217 109.207Z" fill="#00826C"/>
<path d="M267.652 100.419C267.74 101.122 267.828 101.825 267.916 102.528C268.004 103.231 268.004 103.847 268.004 104.462C268.004 105.077 268.004 105.692 268.092 106.307C268.092 106.923 268.092 107.45 268.004 107.977C267.916 109.032 267.828 109.999 267.74 110.878C267.564 111.756 267.388 112.547 267.213 113.251C267.037 113.954 266.773 114.569 266.597 115.096C266.334 115.624 266.07 116.151 265.894 116.502C265.367 117.381 264.839 117.909 264.312 118.348C263.257 119.139 262.203 119.315 261.411 119.227C260.62 119.139 260.181 118.875 260.181 118.875C260.181 118.875 260.005 118.084 259.829 116.854C259.741 116.239 259.654 115.536 259.654 114.657C259.654 113.866 259.741 112.899 259.829 112.02C259.917 111.053 260.093 110.087 260.445 109.12C260.796 108.153 261.148 107.098 261.763 106.044C262.994 104.022 264.752 102.089 267.652 100.419Z" fill="#00826C"/>
<path d="M238.471 98.5732C240.053 100.155 241.459 101.561 242.69 102.704C244.008 103.846 245.063 104.813 246.118 105.516C246.645 105.868 247.084 106.219 247.612 106.483C248.051 106.747 248.491 107.01 248.93 107.186C249.721 107.538 250.512 107.714 251.215 107.801C252.534 107.977 253.501 107.538 254.116 107.186C254.731 106.747 255.083 106.307 255.083 106.307C255.083 106.307 254.907 105.516 254.38 104.462C253.852 103.319 252.973 101.913 251.743 100.595C251.128 99.9794 250.337 99.3642 249.458 98.8369C249.018 98.5732 248.579 98.3975 248.051 98.1338C247.524 97.958 246.996 97.7822 246.469 97.6943C244.184 97.167 241.635 97.3428 238.471 98.5732Z" fill="#00826C"/>
<path d="M261.324 86.1807C262.115 88.9931 262.642 91.4539 262.818 93.5632C263.081 95.6725 262.994 97.4303 262.818 98.8365C262.73 99.5396 262.642 100.243 262.466 100.77C262.29 101.385 262.115 101.825 261.939 102.352C261.587 103.231 261.148 103.934 260.62 104.373C259.654 105.34 258.687 105.604 257.896 105.692C257.105 105.78 256.577 105.604 256.577 105.604C256.577 105.604 256.226 104.901 255.962 103.67C255.698 102.44 255.259 100.77 255.259 98.9244C255.259 97.9576 255.259 96.9909 255.435 95.9362C255.522 95.4089 255.61 94.8816 255.786 94.3542C255.962 93.8269 256.05 93.2996 256.314 92.7723C257.192 90.5751 258.775 88.29 261.324 86.1807Z" fill="#00826C"/>
<path d="M232.23 88.8168C235.834 91.5413 238.559 93.3869 240.844 94.5295C243.042 95.672 244.799 96.0236 246.118 96.0236C247.436 95.9357 248.315 95.4962 248.931 94.9689C249.546 94.4416 249.722 93.9143 249.722 93.9143C249.722 93.9143 249.634 93.7385 249.458 93.3869C249.282 93.0354 249.018 92.6838 248.667 92.1565C248.315 91.6292 247.876 91.1019 247.348 90.4866C246.821 89.8714 246.118 89.3441 245.415 88.8168C244.712 88.2895 243.833 87.85 242.866 87.4106C241.899 87.059 240.932 86.7954 239.789 86.7075C237.592 86.6196 235.131 87.1469 232.23 88.8168Z" fill="#00826C"/>
<path d="M252.973 73.1729C255.434 78.534 256.226 82.6647 256.401 85.4771C256.489 88.3774 255.874 90.1352 255.083 91.2777C254.292 92.4203 253.325 92.7718 252.622 92.9476C251.831 93.1234 251.303 93.0355 251.303 93.0355C251.303 93.0355 251.215 92.8597 251.04 92.5082C250.864 92.1566 250.6 91.7172 250.337 91.1898C250.073 90.6625 249.809 89.9594 249.545 89.1684C249.282 88.3774 249.018 87.4986 248.842 86.6197C248.667 85.6529 248.579 84.6861 248.579 83.6315C248.579 82.5768 248.754 81.4343 248.93 80.2918C249.458 78.0067 250.688 75.5458 252.973 73.1729Z" fill="#00826C"/>
<path d="M224.496 80.0285C225.462 80.5558 226.429 81.0832 227.308 81.5226C228.187 81.962 228.978 82.4015 229.769 82.753C230.56 83.1046 231.264 83.4561 231.967 83.7198C232.67 83.9835 233.285 84.2471 233.9 84.4229C235.043 84.8623 236.098 85.0381 237.065 85.126C237.944 85.2139 238.735 85.2139 239.35 85.0381C240.668 84.7745 241.459 84.1592 241.987 83.544C242.514 82.9288 242.602 82.4015 242.602 82.4015C242.602 82.4015 242.514 82.2257 242.338 81.962C242.163 81.6984 241.811 81.2589 241.372 80.8195C240.932 80.3801 240.405 79.8527 239.789 79.3254C239.174 78.7981 238.471 78.3586 237.592 77.9192C237.153 77.7434 236.801 77.4798 236.362 77.304C235.922 77.1282 235.395 77.0403 234.955 76.8645C233.988 76.6888 232.934 76.6009 231.791 76.6888C229.594 77.0403 227.132 78.0071 224.496 80.0285Z" fill="#00826C"/>
<path d="M242.69 61.4834C245.942 66.4051 247.349 70.3601 247.876 73.1725C248.14 74.5787 248.228 75.8091 248.14 76.7759C248.052 77.7426 247.788 78.5336 247.524 79.1488C246.909 80.3793 246.03 80.9066 245.327 81.1703C244.624 81.4339 244.096 81.4339 244.096 81.4339C244.096 81.4339 244.009 81.2581 243.745 80.9945C243.569 80.7308 243.217 80.2914 242.866 79.7641C242.514 79.2367 242.163 78.6215 241.811 77.8305C241.46 77.1274 241.108 76.3364 240.756 75.3697C240.581 74.9302 240.493 74.4908 240.317 73.9635C240.229 73.4361 240.053 72.9967 239.965 72.4694C239.79 71.4147 239.79 70.2722 239.877 69.1296C239.965 66.8446 240.756 64.2079 242.69 61.4834Z" fill="#00826C"/>
<path d="M215.618 72.5572C217.727 73.3482 219.573 73.9634 221.243 74.4029C222.825 74.9302 224.32 75.1939 225.55 75.4575C226.781 75.6333 227.835 75.7212 228.714 75.7212C229.593 75.7212 230.384 75.5454 231 75.2817C232.23 74.8423 232.933 74.0513 233.373 73.4361C233.812 72.8209 233.812 72.2057 233.812 72.2057C233.812 72.2057 233.724 72.0299 233.461 71.7662C233.197 71.5026 232.845 71.151 232.406 70.7995C231.439 70.0964 230.033 69.1296 228.275 68.5144C226.605 67.8992 224.495 67.7234 222.298 68.2507C220.188 68.778 217.903 70.1842 215.618 72.5572Z" fill="#00826C"/>
<path d="M230.824 51.4648C232.846 53.662 234.252 55.6835 235.395 57.4412C236.449 59.2869 237.24 60.7809 237.68 62.1871C238.119 63.5934 238.383 64.7359 238.471 65.7027C238.559 66.6694 238.383 67.4604 238.207 68.1635C237.768 69.4818 236.977 70.097 236.361 70.5365C235.658 70.888 235.131 70.9759 235.131 70.9759C235.131 70.9759 234.955 70.8001 234.691 70.6244C234.428 70.3607 234.076 70.0092 233.637 69.5697C232.758 68.6908 231.791 67.2846 230.912 65.6148C230.033 63.9449 229.33 61.9235 229.154 59.5505C228.978 57.1775 229.33 54.5409 230.824 51.4648Z" fill="#00826C"/>
<path d="M205.686 66.4933C206.828 66.669 207.795 66.9327 208.762 67.1085C209.729 67.2843 210.696 67.3722 211.487 67.5479C212.366 67.6358 213.157 67.7237 213.86 67.8116C214.563 67.8995 215.266 67.8995 215.882 67.8995C218.431 67.8995 220.101 67.5479 221.243 66.9327C222.386 66.3175 223.001 65.4386 223.265 64.7355C223.529 64.0324 223.529 63.5051 223.529 63.5051C223.529 63.5051 222.913 62.9778 221.859 62.3625C221.331 62.0989 220.716 61.7473 219.925 61.4837C219.222 61.22 218.343 60.9563 217.464 60.7806C216.585 60.6048 215.618 60.5169 214.651 60.6048C213.684 60.6927 212.63 60.9563 211.575 61.3958C211.047 61.5716 210.52 61.8352 209.993 62.1868C209.465 62.5383 208.938 62.8899 208.498 63.3293C207.619 64.0324 206.653 65.0871 205.686 66.4933Z" fill="#00826C"/>
<path d="M217.552 43.3789C218.079 43.8183 218.694 44.3457 219.134 44.7851C219.661 45.2245 220.101 45.664 220.54 46.1034C221.419 46.9823 222.21 47.7733 222.913 48.6522C223.617 49.4432 224.144 50.2342 224.671 50.9373C225.199 51.6404 225.55 52.3435 225.902 53.0466C227.308 55.5953 227.484 57.5288 227.308 58.8472C227.044 60.1655 226.429 60.9565 225.814 61.4838C225.199 61.9232 224.671 62.099 224.671 62.099C224.671 62.099 223.968 61.6596 223.001 60.8686C222.562 60.4291 221.946 59.9897 221.419 59.3745C220.892 58.7593 220.276 58.0562 219.749 57.3531C219.222 56.5621 218.694 55.7711 218.167 54.8043C217.727 53.8376 217.288 52.8708 217.024 51.6404C216.936 51.0251 216.761 50.4978 216.761 49.7947C216.673 49.1795 216.673 48.5643 216.673 47.8612C216.849 46.455 217.024 44.9609 217.552 43.3789Z" fill="#00826C"/>
<path d="M196.896 49.0038C200.851 51.992 204.016 54.2771 206.74 55.7712C207.444 56.2106 208.059 56.5622 208.674 56.8259C209.289 57.1774 209.905 57.4411 210.432 57.7047C210.959 57.9684 211.575 58.1442 212.014 58.32C212.542 58.4957 212.981 58.6715 213.508 58.8473C215.354 59.3746 216.848 59.5504 217.815 59.5504C218.87 59.5504 219.397 59.3746 219.397 59.3746C219.397 59.3746 219.31 58.8473 218.782 57.8805C218.518 57.4411 218.255 56.9137 217.727 56.2985C217.288 55.6833 216.673 55.0681 215.882 54.365C215.53 54.0134 215.091 53.6619 214.563 53.3103C214.124 52.9588 213.596 52.6072 212.981 52.3436C212.366 51.992 211.75 51.6405 211.135 51.3768C210.432 51.1132 209.729 50.7616 208.938 50.4979C205.949 49.4433 201.906 48.7402 196.896 49.0038Z" fill="#00826C"/>
<path d="M83.9714 258.684H93.6476V263.47H78.9702V238.088H83.9714V258.684Z" fill="#2F3343"/>
<path d="M111.356 261.222C109.496 263.059 107.224 263.978 104.543 263.978C101.861 263.978 99.5898 263.059 97.7294 261.222C95.8933 259.361 94.9752 257.088 94.9752 254.405C94.9752 251.722 95.8933 249.462 97.7294 247.624C99.5898 245.763 101.861 244.832 104.543 244.832C107.224 244.832 109.496 245.763 111.356 247.624C113.216 249.462 114.146 251.722 114.146 254.405C114.146 257.088 113.216 259.361 111.356 261.222ZM101.027 257.995C101.97 258.938 103.141 259.409 104.543 259.409C105.944 259.409 107.116 258.938 108.058 257.995C109 257.052 109.471 255.856 109.471 254.405C109.471 252.955 109 251.758 108.058 250.815C107.116 249.873 105.944 249.401 104.543 249.401C103.141 249.401 101.97 249.873 101.027 250.815C100.109 251.758 99.6502 252.955 99.6502 254.405C99.6502 255.856 100.109 257.052 101.027 257.995Z" fill="#2F3343"/>
<path d="M126.06 263.978C123.33 263.978 121.047 263.059 119.211 261.222C117.399 259.385 116.493 257.113 116.493 254.405C116.493 251.698 117.399 249.425 119.211 247.588C121.047 245.751 123.33 244.832 126.06 244.832C127.824 244.832 129.431 245.255 130.88 246.101C132.33 246.948 133.429 248.084 134.178 249.51L130.156 251.867C129.793 251.118 129.237 250.525 128.489 250.09C127.764 249.655 126.942 249.437 126.024 249.437C124.623 249.437 123.463 249.909 122.545 250.852C121.627 251.77 121.168 252.955 121.168 254.405C121.168 255.831 121.627 257.016 122.545 257.959C123.463 258.877 124.623 259.337 126.024 259.337C126.966 259.337 127.8 259.131 128.525 258.72C129.274 258.285 129.829 257.693 130.192 256.943L134.251 259.264C133.453 260.69 132.33 261.839 130.88 262.709C129.431 263.555 127.824 263.978 126.06 263.978Z" fill="#2F3343"/>
<path d="M150.212 245.34H154.887V263.47H150.212V261.331C148.81 263.096 146.841 263.978 144.304 263.978C141.888 263.978 139.811 263.059 138.071 261.222C136.356 259.361 135.498 257.088 135.498 254.405C135.498 251.722 136.356 249.462 138.071 247.624C139.811 245.763 141.888 244.832 144.304 244.832C146.841 244.832 148.81 245.715 150.212 247.479V245.34ZM141.586 258.104C142.529 259.047 143.724 259.518 145.174 259.518C146.624 259.518 147.82 259.047 148.762 258.104C149.728 257.137 150.212 255.904 150.212 254.405C150.212 252.906 149.728 251.686 148.762 250.743C147.82 249.776 146.624 249.292 145.174 249.292C143.724 249.292 142.529 249.776 141.586 250.743C140.644 251.686 140.173 252.906 140.173 254.405C140.173 255.904 140.644 257.137 141.586 258.104Z" fill="#2F3343"/>
<path d="M159.126 263.47V237H163.801V263.47H159.126Z" fill="#2F3343"/>
<path d="M185.077 238.088V242.874H178.227V263.47H173.226V242.874H166.413V238.088H185.077Z" fill="#2F3343"/>
<path d="M190.026 248.458C190.461 247.298 191.173 246.428 192.164 245.848C193.179 245.267 194.302 244.977 195.534 244.977V250.199C194.109 250.03 192.828 250.32 191.693 251.069C190.581 251.819 190.026 253.064 190.026 254.804V263.47H185.351V245.34H190.026V248.458Z" fill="#2F3343"/>
<path d="M211.367 245.34H216.042V263.47H211.367V261.331C209.966 263.096 207.997 263.978 205.46 263.978C203.044 263.978 200.966 263.059 199.227 261.222C197.511 259.361 196.654 257.088 196.654 254.405C196.654 251.722 197.511 249.462 199.227 247.624C200.966 245.763 203.044 244.832 205.46 244.832C207.997 244.832 209.966 245.715 211.367 247.479V245.34ZM202.742 258.104C203.684 259.047 204.88 259.518 206.33 259.518C207.779 259.518 208.975 259.047 209.918 258.104C210.884 257.137 211.367 255.904 211.367 254.405C211.367 252.906 210.884 251.686 209.918 250.743C208.975 249.776 207.779 249.292 206.33 249.292C204.88 249.292 203.684 249.776 202.742 250.743C201.8 251.686 201.329 252.906 201.329 254.405C201.329 255.904 201.8 257.137 202.742 258.104Z" fill="#2F3343"/>
<path d="M234.017 238.088H238.692V263.47H234.017V261.331C232.64 263.096 230.683 263.978 228.146 263.978C225.706 263.978 223.616 263.059 221.876 261.222C220.161 259.361 219.303 257.088 219.303 254.405C219.303 251.722 220.161 249.462 221.876 247.624C223.616 245.763 225.706 244.832 228.146 244.832C230.683 244.832 232.64 245.715 234.017 247.479V238.088ZM225.391 258.104C226.358 259.047 227.566 259.518 229.015 259.518C230.465 259.518 231.661 259.047 232.603 258.104C233.546 257.137 234.017 255.904 234.017 254.405C234.017 252.906 233.546 251.686 232.603 250.743C231.661 249.776 230.465 249.292 229.015 249.292C227.566 249.292 226.358 249.776 225.391 250.743C224.449 251.686 223.978 252.906 223.978 254.405C223.978 255.904 224.449 257.137 225.391 258.104Z" fill="#2F3343"/>
<path d="M246.917 256.327C247.546 258.599 249.249 259.735 252.027 259.735C253.815 259.735 255.168 259.131 256.086 257.922L259.855 260.098C258.067 262.685 255.434 263.978 251.955 263.978C248.959 263.978 246.555 263.071 244.743 261.258C242.931 259.445 242.025 257.161 242.025 254.405C242.025 251.674 242.919 249.401 244.707 247.588C246.495 245.751 248.79 244.832 251.592 244.832C254.25 244.832 256.437 245.751 258.152 247.588C259.891 249.425 260.761 251.698 260.761 254.405C260.761 255.009 260.701 255.65 260.58 256.327H246.917ZM246.845 252.701H256.086C255.82 251.468 255.265 250.549 254.419 249.945C253.598 249.341 252.655 249.039 251.592 249.039C250.336 249.039 249.297 249.365 248.476 250.018C247.654 250.646 247.111 251.541 246.845 252.701Z" fill="#2F3343"/>
<path d="M98.9224 300.239C96.0957 300.239 93.7763 299.441 91.9642 297.846C90.1522 296.25 89.2462 294.111 89.2462 291.427V274.349H94.2112V291.028C94.2112 292.358 94.5856 293.41 95.3346 294.183C96.1077 294.957 97.3037 295.344 98.9224 295.344C100.541 295.344 101.725 294.957 102.474 294.183C103.247 293.41 103.634 292.358 103.634 291.028V274.349H108.635V291.427C108.635 294.111 107.729 296.25 105.917 297.846C104.105 299.441 101.773 300.239 98.9224 300.239Z" fill="#2F3343"/>
<path d="M122.998 281.093C124.979 281.093 126.61 281.758 127.89 283.087C129.195 284.417 129.847 286.254 129.847 288.599V299.731H125.172V289.179C125.172 287.97 124.846 287.052 124.194 286.423C123.541 285.771 122.672 285.444 121.584 285.444C120.376 285.444 119.41 285.819 118.685 286.568C117.96 287.318 117.598 288.442 117.598 289.941V299.731H112.923V281.601H117.598V283.631C118.733 281.939 120.533 281.093 122.998 281.093Z" fill="#2F3343"/>
<path d="M136.158 279.425C135.385 279.425 134.709 279.147 134.129 278.591C133.573 278.011 133.295 277.334 133.295 276.56C133.295 275.787 133.573 275.11 134.129 274.53C134.709 273.95 135.385 273.66 136.158 273.66C136.956 273.66 137.632 273.95 138.188 274.53C138.768 275.11 139.058 275.787 139.058 276.56C139.058 277.334 138.768 278.011 138.188 278.591C137.632 279.147 136.956 279.425 136.158 279.425ZM133.839 299.731V281.601H138.514V299.731H133.839Z" fill="#2F3343"/>
<path d="M154.716 281.601H159.862L152.976 299.731H147.649L140.763 281.601H145.91L150.295 294.292L154.716 281.601Z" fill="#2F3343"/>
<path d="M165.359 292.588C165.987 294.86 167.69 295.996 170.469 295.996C172.257 295.996 173.61 295.392 174.528 294.183L178.297 296.359C176.509 298.945 173.875 300.239 170.396 300.239C167.4 300.239 164.996 299.332 163.184 297.519C161.372 295.706 160.466 293.422 160.466 290.666C160.466 287.934 161.36 285.662 163.148 283.849C164.936 282.012 167.231 281.093 170.034 281.093C172.691 281.093 174.878 282.012 176.593 283.849C178.333 285.686 179.203 287.958 179.203 290.666C179.203 291.27 179.142 291.911 179.021 292.588H165.359ZM165.286 288.962H174.528C174.262 287.729 173.706 286.81 172.861 286.206C172.039 285.601 171.097 285.299 170.034 285.299C168.777 285.299 167.739 285.626 166.917 286.278C166.096 286.907 165.552 287.801 165.286 288.962Z" fill="#2F3343"/>
<path d="M187.141 284.719C187.576 283.559 188.289 282.689 189.279 282.108C190.294 281.528 191.418 281.238 192.65 281.238V286.46C191.224 286.29 189.944 286.581 188.808 287.33C187.697 288.079 187.141 289.324 187.141 291.065V299.731H182.466V281.601H187.141V284.719Z" fill="#2F3343"/>
<path d="M199.13 286.75C199.13 287.233 199.444 287.632 200.073 287.946C200.725 288.236 201.51 288.502 202.428 288.744C203.346 288.962 204.264 289.252 205.182 289.614C206.101 289.953 206.874 290.533 207.502 291.355C208.154 292.177 208.48 293.204 208.48 294.437C208.48 296.298 207.78 297.737 206.378 298.752C205.001 299.743 203.274 300.239 201.196 300.239C197.475 300.239 194.939 298.8 193.586 295.924L197.644 293.639C198.176 295.211 199.36 295.996 201.196 295.996C202.863 295.996 203.697 295.476 203.697 294.437C203.697 293.954 203.37 293.567 202.718 293.277C202.09 292.962 201.317 292.684 200.399 292.443C199.481 292.201 198.563 291.899 197.644 291.536C196.726 291.174 195.941 290.605 195.289 289.832C194.661 289.034 194.347 288.043 194.347 286.859C194.347 285.07 194.999 283.668 196.304 282.652C197.632 281.613 199.275 281.093 201.232 281.093C202.706 281.093 204.047 281.431 205.255 282.108C206.463 282.761 207.417 283.704 208.118 284.937L204.131 287.112C203.552 285.879 202.585 285.263 201.232 285.263C200.628 285.263 200.121 285.396 199.71 285.662C199.324 285.928 199.13 286.29 199.13 286.75Z" fill="#2F3343"/>
<path d="M213.806 279.425C213.033 279.425 212.357 279.147 211.777 278.591C211.221 278.011 210.943 277.334 210.943 276.56C210.943 275.787 211.221 275.11 211.777 274.53C212.357 273.95 213.033 273.66 213.806 273.66C214.604 273.66 215.28 273.95 215.836 274.53C216.416 275.11 216.706 275.787 216.706 276.56C216.706 277.334 216.416 278.011 215.836 278.591C215.28 279.147 214.604 279.425 213.806 279.425ZM211.487 299.731V281.601H216.162V299.731H211.487Z" fill="#2F3343"/>
<path d="M230.806 286.097H226.71V293.639C226.71 294.268 226.867 294.727 227.182 295.017C227.496 295.307 227.955 295.476 228.559 295.525C229.163 295.549 229.912 295.537 230.806 295.489V299.731C227.592 300.094 225.321 299.792 223.992 298.825C222.688 297.858 222.035 296.129 222.035 293.639V286.097H218.882V281.601H222.035V277.938L226.71 276.524V281.601H230.806V286.097Z" fill="#2F3343"/>
<path d="M246.305 281.601H251.307L244.711 299.731C243.769 302.342 242.512 304.227 240.942 305.388C239.396 306.572 237.463 307.104 235.143 306.983V302.632C236.4 302.656 237.39 302.39 238.115 301.834C238.864 301.278 239.456 300.384 239.891 299.151L232.462 281.601H237.572L242.283 293.784L246.305 281.601Z" fill="#2F3343"/>
</svg>
