<svg width="512" height="512" viewBox="0 0 512 512" fill="none" xmlns="http://www.w3.org/2000/svg">
<path d="M2.23802e-05 256C3.47405e-05 114.615 114.615 -3.47405e-05 256 -2.23802e-05C397.385 -1.002e-05 512 114.615 512 256C512 397.385 397.385 512 256 512C114.615 512 1.002e-05 397.385 2.23802e-05 256Z" fill="#00705C"/>
<path fill-rule="evenodd" clip-rule="evenodd" d="M256 37.2615C135.194 37.2614 37.2615 135.194 37.2615 256C37.2615 376.806 135.194 474.739 256 474.739C376.806 474.739 474.739 376.806 474.739 256C474.739 135.194 376.806 37.2615 256 37.2615ZM256 -2.23802e-05C114.615 -3.47405e-05 3.47405e-05 114.615 2.23802e-05 256C1.002e-05 397.385 114.615 512 256 512C397.385 512 512 397.385 512 256C512 114.615 397.385 -1.002e-05 256 -2.23802e-05Z" fill="#00957B"/>
<path d="M396.92 174.863C391.007 158.898 377.998 147.663 362.033 139.385C344.885 131.107 299.947 121.055 255.008 121.055C210.069 121.055 165.131 131.107 147.983 139.385C132.018 147.663 119.009 158.898 113.096 174.863C107.183 190.828 110.731 206.202 115.462 221.575C127.879 264.74 146.8 306.131 172.226 345.157C184.644 363.487 198.243 380.635 216.574 394.826C227.808 403.696 239.634 410.2 255.008 410.791C270.382 410.2 282.208 403.696 293.443 394.826C311.773 380.635 325.373 363.487 337.79 345.157C363.807 306.131 382.729 265.332 394.555 221.575C399.285 206.202 402.833 190.828 396.92 174.863Z" fill="#00957B"/>
<path d="M211.843 304.949C271.564 242.862 294.033 156.533 291.077 122.829C290.485 122.829 289.303 122.829 288.711 122.829C285.164 122.237 281.025 122.237 276.885 121.646C269.79 121.055 262.694 121.055 255.007 121.055C252.642 121.055 250.868 121.055 248.503 121.055C246.138 192.011 187.008 269.471 149.756 307.314C156.852 320.322 163.947 332.74 172.226 345.157C174 347.522 175.182 349.296 176.956 351.661C255.007 341.018 308.224 347.522 331.876 353.435C333.65 350.479 336.015 347.522 337.789 344.566C344.294 335.105 350.207 325.053 355.528 315.592C333.059 304.949 254.416 299.036 211.843 304.949Z" fill="white"/>
</svg>
