<svg width="650" height="223" viewBox="0 0 650 223" fill="none" xmlns="http://www.w3.org/2000/svg">
<path d="M1.0249e-05 111.099C1.56131e-05 49.7407 49.7405 0.000190679 111.099 0.000196043C172.457 0.000201407 222.197 49.7407 222.197 111.099C222.197 172.457 172.457 222.197 111.099 222.197C49.7405 222.197 4.88489e-06 172.457 1.0249e-05 111.099Z" fill="#00705C"/>
<path fill-rule="evenodd" clip-rule="evenodd" d="M111.099 16.1709C58.6713 16.1709 16.1707 58.6715 16.1707 111.099C16.1707 163.526 58.6713 206.027 111.099 206.027C163.526 206.027 206.026 163.526 206.026 111.099C206.026 58.6715 163.526 16.1709 111.099 16.1709ZM111.099 0.000196043C49.7405 0.000190679 1.56131e-05 49.7407 1.0249e-05 111.099C4.88489e-06 172.457 49.7405 222.197 111.099 222.197C172.457 222.197 222.197 172.457 222.197 111.099C222.197 49.7407 172.457 0.000201407 111.099 0.000196043Z" fill="#00957B"/>
<path d="M172.255 75.8868C169.689 68.9583 164.043 64.0827 157.115 60.4901C149.673 56.8975 130.171 52.5352 110.668 52.5352C91.1657 52.5352 71.6632 56.8975 64.2215 60.4901C57.293 64.0827 51.6476 68.9583 49.0815 75.8868C46.5154 82.8153 48.055 89.4872 50.1079 96.159C55.4967 114.892 63.7083 132.854 74.7426 149.791C80.1314 157.746 86.0334 165.187 93.9884 171.346C98.864 175.195 103.996 178.018 110.668 178.275C117.34 178.018 122.472 175.195 127.348 171.346C135.303 165.187 141.205 157.746 146.594 149.791C157.885 132.854 166.096 115.148 171.228 96.159C173.281 89.4872 174.821 82.8153 172.255 75.8868Z" fill="#00957B"/>
<path d="M91.9352 132.341C117.853 105.397 127.604 67.9318 126.321 53.305C126.064 53.305 125.551 53.305 125.295 53.305C123.755 53.0484 121.959 53.0484 120.162 52.7918C117.083 52.5352 114.004 52.5352 110.668 52.5352C109.641 52.5352 108.872 52.5352 107.845 52.5352C106.819 83.3285 81.1575 116.945 64.991 133.368C68.0704 139.013 71.1497 144.402 74.7422 149.791C75.5121 150.817 76.0253 151.587 76.7951 152.613C110.668 147.994 133.763 150.817 144.027 153.383C144.797 152.1 145.823 150.817 146.593 149.534C149.416 145.428 151.982 141.066 154.292 136.96C144.54 132.341 110.411 129.775 91.9352 132.341Z" fill="white"/>
<path d="M270.804 84.0239H288.96V92.9999H261.42V45.3999H270.804V84.0239Z" fill="#F4F6F9"/>
<path d="M322.187 88.7839C318.696 92.2292 314.435 93.9519 309.403 93.9519C304.371 93.9519 300.11 92.2292 296.619 88.7839C293.174 85.2932 291.451 81.0319 291.451 75.9999C291.451 70.9679 293.174 66.7292 296.619 63.2839C300.11 59.7932 304.371 58.0479 309.403 58.0479C314.435 58.0479 318.696 59.7932 322.187 63.2839C325.678 66.7292 327.423 70.9679 327.423 75.9999C327.423 81.0319 325.678 85.2932 322.187 88.7839ZM302.807 82.7319C304.575 84.4999 306.774 85.3839 309.403 85.3839C312.032 85.3839 314.231 84.4999 315.999 82.7319C317.767 80.9639 318.651 78.7199 318.651 75.9999C318.651 73.2799 317.767 71.0359 315.999 69.2679C314.231 67.4999 312.032 66.6159 309.403 66.6159C306.774 66.6159 304.575 67.4999 302.807 69.2679C301.084 71.0359 300.223 73.2799 300.223 75.9999C300.223 78.7199 301.084 80.9639 302.807 82.7319Z" fill="#F4F6F9"/>
<path d="M349.778 93.9519C344.655 93.9519 340.371 92.2292 336.926 88.7839C333.526 85.3385 331.826 81.0772 331.826 75.9999C331.826 70.9225 333.526 66.6612 336.926 63.2159C340.371 59.7705 344.655 58.0479 349.778 58.0479C353.087 58.0479 356.102 58.8412 358.822 60.4279C361.542 62.0145 363.605 64.1452 365.01 66.8199L357.462 71.2399C356.782 69.8345 355.739 68.7239 354.334 67.9079C352.974 67.0919 351.433 66.6839 349.71 66.6839C347.081 66.6839 344.905 67.5679 343.182 69.3359C341.459 71.0585 340.598 73.2799 340.598 75.9999C340.598 78.6745 341.459 80.8959 343.182 82.6639C344.905 84.3865 347.081 85.2479 349.71 85.2479C351.478 85.2479 353.042 84.8625 354.402 84.0919C355.807 83.2759 356.85 82.1652 357.53 80.7599L365.146 85.1119C363.65 87.7865 361.542 89.9399 358.822 91.5719C356.102 93.1585 353.087 93.9519 349.778 93.9519Z" fill="#F4F6F9"/>
<path d="M395.094 58.9999H403.866V92.9999H395.094V88.9879C392.465 92.2972 388.77 93.9519 384.01 93.9519C379.477 93.9519 375.578 92.2292 372.314 88.7839C369.096 85.2932 367.486 81.0319 367.486 75.9999C367.486 70.9679 369.096 66.7292 372.314 63.2839C375.578 59.7932 379.477 58.0479 384.01 58.0479C388.77 58.0479 392.465 59.7025 395.094 63.0119V58.9999ZM378.91 82.9359C380.678 84.7039 382.922 85.5879 385.642 85.5879C388.362 85.5879 390.606 84.7039 392.374 82.9359C394.188 81.1225 395.094 78.8105 395.094 75.9999C395.094 73.1892 394.188 70.8999 392.374 69.1319C390.606 67.3185 388.362 66.4119 385.642 66.4119C382.922 66.4119 380.678 67.3185 378.91 69.1319C377.142 70.8999 376.258 73.1892 376.258 75.9999C376.258 78.8105 377.142 81.1225 378.91 82.9359Z" fill="#F4F6F9"/>
<path d="M411.821 92.9999V43.3599H420.593V92.9999H411.821Z" fill="#F4F6F9"/>
<path d="M460.513 45.3999V54.3759H447.661V92.9999H438.277V54.3759H425.493V45.3999H460.513Z" fill="#F4F6F9"/>
<path d="M469.8 64.8479C470.616 62.6719 471.953 61.0399 473.812 59.9519C475.716 58.8639 477.824 58.3199 480.136 58.3199V68.1119C477.461 67.7945 475.058 68.3385 472.928 69.7439C470.842 71.1492 469.8 73.4839 469.8 76.7479V92.9999H461.028V58.9999H469.8V64.8479Z" fill="#F4F6F9"/>
<path d="M509.844 58.9999H518.616V92.9999H509.844V88.9879C507.215 92.2972 503.52 93.9519 498.76 93.9519C494.227 93.9519 490.328 92.2292 487.064 88.7839C483.846 85.2932 482.236 81.0319 482.236 75.9999C482.236 70.9679 483.846 66.7292 487.064 63.2839C490.328 59.7932 494.227 58.0479 498.76 58.0479C503.52 58.0479 507.215 59.7025 509.844 63.0119V58.9999ZM493.66 82.9359C495.428 84.7039 497.672 85.5879 500.392 85.5879C503.112 85.5879 505.356 84.7039 507.124 82.9359C508.938 81.1225 509.844 78.8105 509.844 75.9999C509.844 73.1892 508.938 70.8999 507.124 69.1319C505.356 67.3185 503.112 66.4119 500.392 66.4119C497.672 66.4119 495.428 67.3185 493.66 69.1319C491.892 70.8999 491.008 73.1892 491.008 75.9999C491.008 78.8105 491.892 81.1225 493.66 82.9359Z" fill="#F4F6F9"/>
<path d="M552.343 45.3999H561.115V92.9999H552.343V88.9879C549.759 92.2972 546.087 93.9519 541.327 93.9519C536.748 93.9519 532.827 92.2292 529.563 88.7839C526.344 85.2932 524.735 81.0319 524.735 75.9999C524.735 70.9679 526.344 66.7292 529.563 63.2839C532.827 59.7932 536.748 58.0479 541.327 58.0479C546.087 58.0479 549.759 59.7025 552.343 63.0119V45.3999ZM536.159 82.9359C537.972 84.7039 540.239 85.5879 542.959 85.5879C545.679 85.5879 547.923 84.7039 549.691 82.9359C551.459 81.1225 552.343 78.8105 552.343 75.9999C552.343 73.1892 551.459 70.8999 549.691 69.1319C547.923 67.3185 545.679 66.4119 542.959 66.4119C540.239 66.4119 537.972 67.3185 536.159 69.1319C534.391 70.8999 533.507 73.1892 533.507 75.9999C533.507 78.8105 534.391 81.1225 536.159 82.9359Z" fill="#F4F6F9"/>
<path d="M576.549 79.6039C577.728 83.8652 580.924 85.9959 586.137 85.9959C589.492 85.9959 592.03 84.8625 593.753 82.5959L600.825 86.6759C597.47 91.5265 592.529 93.9519 586.001 93.9519C580.38 93.9519 575.869 92.2519 572.469 88.8519C569.069 85.4519 567.369 81.1679 567.369 75.9999C567.369 70.8772 569.046 66.6159 572.401 63.2159C575.756 59.7705 580.062 58.0479 585.321 58.0479C590.308 58.0479 594.41 59.7705 597.629 63.2159C600.893 66.6612 602.525 70.9225 602.525 75.9999C602.525 77.1332 602.412 78.3345 602.185 79.6039H576.549ZM576.413 72.8039H593.753C593.254 70.4919 592.212 68.7692 590.625 67.6359C589.084 66.5025 587.316 65.9359 585.321 65.9359C582.964 65.9359 581.014 66.5479 579.473 67.7719C577.932 68.9505 576.912 70.6279 576.413 72.8039Z" fill="#F4F6F9"/>
<path d="M292.904 127.4V136.376H280.052V175H270.668V136.376H257.884V127.4H292.904Z" fill="#F4F6F9"/>
<path d="M320.527 170.784C317.036 174.229 312.775 175.952 307.743 175.952C302.711 175.952 298.45 174.229 294.959 170.784C291.514 167.293 289.791 163.032 289.791 158C289.791 152.968 291.514 148.729 294.959 145.284C298.45 141.793 302.711 140.048 307.743 140.048C312.775 140.048 317.036 141.793 320.527 145.284C324.018 148.729 325.763 152.968 325.763 158C325.763 163.032 324.018 167.293 320.527 170.784ZM301.147 164.732C302.915 166.5 305.114 167.384 307.743 167.384C310.372 167.384 312.571 166.5 314.339 164.732C316.107 162.964 316.991 160.72 316.991 158C316.991 155.28 316.107 153.036 314.339 151.268C312.571 149.5 310.372 148.616 307.743 148.616C305.114 148.616 302.915 149.5 301.147 151.268C299.424 153.036 298.563 155.28 298.563 158C298.563 160.72 299.424 162.964 301.147 164.732Z" fill="#F4F6F9"/>
<path d="M363.282 175H353.082L340.706 159.564V175H331.934V127.4H340.706V155.96L352.402 141H362.874L349.206 157.796L363.282 175Z" fill="#F4F6F9"/>
<path d="M372.615 161.604C373.794 165.865 376.99 167.996 382.203 167.996C385.558 167.996 388.097 166.863 389.819 164.596L396.891 168.676C393.537 173.527 388.595 175.952 382.067 175.952C376.446 175.952 371.935 174.252 368.535 170.852C365.135 167.452 363.435 163.168 363.435 158C363.435 152.877 365.113 148.616 368.467 145.216C371.822 141.771 376.129 140.048 381.387 140.048C386.374 140.048 390.477 141.771 393.695 145.216C396.959 148.661 398.591 152.923 398.591 158C398.591 159.133 398.478 160.335 398.251 161.604H372.615ZM372.479 154.804H389.819C389.321 152.492 388.278 150.769 386.691 149.636C385.15 148.503 383.382 147.936 381.387 147.936C379.03 147.936 377.081 148.548 375.539 149.772C373.998 150.951 372.978 152.628 372.479 154.804Z" fill="#F4F6F9"/>
<path d="M423.619 140.048C427.336 140.048 430.396 141.295 432.799 143.788C435.247 146.281 436.471 149.727 436.471 154.124V175H427.699V155.212C427.699 152.945 427.087 151.223 425.863 150.044C424.639 148.82 423.007 148.208 420.967 148.208C418.7 148.208 416.887 148.911 415.527 150.316C414.167 151.721 413.487 153.829 413.487 156.64V175H404.715V141H413.487V144.808C415.618 141.635 418.995 140.048 423.619 140.048Z" fill="#F4F6F9"/>
</svg>
