<svg width="650" height="223" viewBox="0 0 650 223" fill="none" xmlns="http://www.w3.org/2000/svg">
<path d="M1.0249e-05 111.099C1.56131e-05 49.7407 49.7405 0.000190679 111.099 0.000196043C172.457 0.000201407 222.197 49.7407 222.197 111.099C222.197 172.457 172.457 222.197 111.099 222.197C49.7405 222.197 4.88489e-06 172.457 1.0249e-05 111.099Z" fill="#00705C"/>
<path fill-rule="evenodd" clip-rule="evenodd" d="M111.099 16.1709C58.6713 16.1709 16.1707 58.6715 16.1707 111.099C16.1707 163.526 58.6713 206.027 111.099 206.027C163.526 206.027 206.026 163.526 206.026 111.099C206.026 58.6715 163.526 16.1709 111.099 16.1709ZM111.099 0.000196043C49.7405 0.000190679 1.56131e-05 49.7407 1.0249e-05 111.099C4.88489e-06 172.457 49.7405 222.197 111.099 222.197C172.457 222.197 222.197 172.457 222.197 111.099C222.197 49.7407 172.457 0.000201407 111.099 0.000196043Z" fill="#00957B"/>
<path d="M172.255 75.8868C169.689 68.9583 164.043 64.0827 157.115 60.4901C149.673 56.8975 130.171 52.5352 110.668 52.5352C91.1657 52.5352 71.6632 56.8975 64.2215 60.4901C57.293 64.0827 51.6476 68.9583 49.0815 75.8868C46.5154 82.8153 48.055 89.4872 50.1079 96.159C55.4967 114.892 63.7083 132.854 74.7426 149.791C80.1314 157.746 86.0334 165.187 93.9884 171.346C98.864 175.195 103.996 178.018 110.668 178.275C117.34 178.018 122.472 175.195 127.348 171.346C135.303 165.187 141.205 157.746 146.594 149.791C157.885 132.854 166.096 115.148 171.228 96.159C173.281 89.4872 174.821 82.8153 172.255 75.8868Z" fill="#00957B"/>
<path d="M91.9352 132.341C117.853 105.397 127.604 67.9318 126.321 53.305C126.064 53.305 125.551 53.305 125.295 53.305C123.755 53.0484 121.959 53.0484 120.162 52.7918C117.083 52.5352 114.004 52.5352 110.668 52.5352C109.641 52.5352 108.872 52.5352 107.845 52.5352C106.819 83.3285 81.1575 116.945 64.991 133.368C68.0704 139.013 71.1497 144.402 74.7422 149.791C75.5121 150.817 76.0253 151.587 76.7951 152.613C110.668 147.994 133.763 150.817 144.027 153.383C144.797 152.1 145.823 150.817 146.593 149.534C149.416 145.428 151.982 141.066 154.292 136.96C144.54 132.341 110.411 129.775 91.9352 132.341Z" fill="white"/>
<path d="M266.804 91.0239H284.96V99.9999H257.42V52.3999H266.804V91.0239Z" fill="#2F3343"/>
<path d="M318.187 95.7839C314.696 99.2292 310.435 100.952 305.403 100.952C300.371 100.952 296.11 99.2292 292.619 95.7839C289.174 92.2932 287.451 88.0319 287.451 82.9999C287.451 77.9679 289.174 73.7292 292.619 70.2839C296.11 66.7932 300.371 65.0479 305.403 65.0479C310.435 65.0479 314.696 66.7932 318.187 70.2839C321.678 73.7292 323.423 77.9679 323.423 82.9999C323.423 88.0319 321.678 92.2932 318.187 95.7839ZM298.807 89.7319C300.575 91.4999 302.774 92.3839 305.403 92.3839C308.032 92.3839 310.231 91.4999 311.999 89.7319C313.767 87.9639 314.651 85.7199 314.651 82.9999C314.651 80.2799 313.767 78.0359 311.999 76.2679C310.231 74.4999 308.032 73.6159 305.403 73.6159C302.774 73.6159 300.575 74.4999 298.807 76.2679C297.084 78.0359 296.223 80.2799 296.223 82.9999C296.223 85.7199 297.084 87.9639 298.807 89.7319Z" fill="#2F3343"/>
<path d="M345.778 100.952C340.655 100.952 336.371 99.2292 332.926 95.7839C329.526 92.3385 327.826 88.0772 327.826 82.9999C327.826 77.9225 329.526 73.6612 332.926 70.2159C336.371 66.7705 340.655 65.0479 345.778 65.0479C349.087 65.0479 352.102 65.8412 354.822 67.4279C357.542 69.0145 359.605 71.1452 361.01 73.8199L353.462 78.2399C352.782 76.8345 351.739 75.7239 350.334 74.9079C348.974 74.0919 347.433 73.6839 345.71 73.6839C343.081 73.6839 340.905 74.5679 339.182 76.3359C337.459 78.0585 336.598 80.2799 336.598 82.9999C336.598 85.6745 337.459 87.8959 339.182 89.6639C340.905 91.3865 343.081 92.2479 345.71 92.2479C347.478 92.2479 349.042 91.8625 350.402 91.0919C351.807 90.2759 352.85 89.1652 353.53 87.7599L361.146 92.1119C359.65 94.7865 357.542 96.9399 354.822 98.5719C352.102 100.159 349.087 100.952 345.778 100.952Z" fill="#2F3343"/>
<path d="M391.094 65.9999H399.866V99.9999H391.094V95.9879C388.465 99.2972 384.77 100.952 380.01 100.952C375.477 100.952 371.578 99.2292 368.314 95.7839C365.095 92.2932 363.486 88.0319 363.486 82.9999C363.486 77.9679 365.095 73.7292 368.314 70.2839C371.578 66.7932 375.477 65.0479 380.01 65.0479C384.77 65.0479 388.465 66.7025 391.094 70.0119V65.9999ZM374.91 89.9359C376.678 91.7039 378.922 92.5879 381.642 92.5879C384.362 92.5879 386.606 91.7039 388.374 89.9359C390.187 88.1225 391.094 85.8105 391.094 82.9999C391.094 80.1892 390.187 77.8999 388.374 76.1319C386.606 74.3185 384.362 73.4119 381.642 73.4119C378.922 73.4119 376.678 74.3185 374.91 76.1319C373.142 77.8999 372.258 80.1892 372.258 82.9999C372.258 85.8105 373.142 88.1225 374.91 89.9359Z" fill="#2F3343"/>
<path d="M407.821 99.9999V50.3599H416.593V99.9999H407.821Z" fill="#2F3343"/>
<path d="M456.513 52.3999V61.3759H443.661V99.9999H434.277V61.3759H421.493V52.3999H456.513Z" fill="#2F3343"/>
<path d="M465.8 71.8479C466.616 69.6719 467.953 68.0399 469.812 66.9519C471.716 65.8639 473.824 65.3199 476.136 65.3199V75.1119C473.461 74.7945 471.058 75.3385 468.928 76.7439C466.842 78.1492 465.8 80.4839 465.8 83.7479V99.9999H457.028V65.9999H465.8V71.8479Z" fill="#2F3343"/>
<path d="M505.844 65.9999H514.616V99.9999H505.844V95.9879C503.215 99.2972 499.52 100.952 494.76 100.952C490.227 100.952 486.328 99.2292 483.064 95.7839C479.845 92.2932 478.236 88.0319 478.236 82.9999C478.236 77.9679 479.845 73.7292 483.064 70.2839C486.328 66.7932 490.227 65.0479 494.76 65.0479C499.52 65.0479 503.215 66.7025 505.844 70.0119V65.9999ZM489.66 89.9359C491.428 91.7039 493.672 92.5879 496.392 92.5879C499.112 92.5879 501.356 91.7039 503.124 89.9359C504.937 88.1225 505.844 85.8105 505.844 82.9999C505.844 80.1892 504.937 77.8999 503.124 76.1319C501.356 74.3185 499.112 73.4119 496.392 73.4119C493.672 73.4119 491.428 74.3185 489.66 76.1319C487.892 77.8999 487.008 80.1892 487.008 82.9999C487.008 85.8105 487.892 88.1225 489.66 89.9359Z" fill="#2F3343"/>
<path d="M548.343 52.3999H557.115V99.9999H548.343V95.9879C545.759 99.2972 542.087 100.952 537.327 100.952C532.748 100.952 528.827 99.2292 525.563 95.7839C522.344 92.2932 520.735 88.0319 520.735 82.9999C520.735 77.9679 522.344 73.7292 525.563 70.2839C528.827 66.7932 532.748 65.0479 537.327 65.0479C542.087 65.0479 545.759 66.7025 548.343 70.0119V52.3999ZM532.159 89.9359C533.972 91.7039 536.239 92.5879 538.959 92.5879C541.679 92.5879 543.923 91.7039 545.691 89.9359C547.459 88.1225 548.343 85.8105 548.343 82.9999C548.343 80.1892 547.459 77.8999 545.691 76.1319C543.923 74.3185 541.679 73.4119 538.959 73.4119C536.239 73.4119 533.972 74.3185 532.159 76.1319C530.391 77.8999 529.507 80.1892 529.507 82.9999C529.507 85.8105 530.391 88.1225 532.159 89.9359Z" fill="#2F3343"/>
<path d="M572.549 86.6039C573.728 90.8652 576.924 92.9959 582.137 92.9959C585.492 92.9959 588.03 91.8625 589.753 89.5959L596.825 93.6759C593.47 98.5265 588.529 100.952 582.001 100.952C576.38 100.952 571.869 99.2519 568.469 95.8519C565.069 92.4519 563.369 88.1679 563.369 82.9999C563.369 77.8772 565.046 73.6159 568.401 70.2159C571.756 66.7705 576.062 65.0479 581.321 65.0479C586.308 65.0479 590.41 66.7705 593.629 70.2159C596.893 73.6612 598.525 77.9225 598.525 82.9999C598.525 84.1332 598.412 85.3345 598.185 86.6039H572.549ZM572.413 79.8039H589.753C589.254 77.4919 588.212 75.7692 586.625 74.6359C585.084 73.5025 583.316 72.9359 581.321 72.9359C578.964 72.9359 577.014 73.5479 575.473 74.7719C573.932 75.9505 572.912 77.6279 572.413 79.8039Z" fill="#2F3343"/>
<path d="M288.904 134.4V143.376H276.052V182H266.668V143.376H253.884V134.4H288.904Z" fill="#2F3343"/>
<path d="M316.527 177.784C313.036 181.229 308.775 182.952 303.743 182.952C298.711 182.952 294.45 181.229 290.959 177.784C287.514 174.293 285.791 170.032 285.791 165C285.791 159.968 287.514 155.729 290.959 152.284C294.45 148.793 298.711 147.048 303.743 147.048C308.775 147.048 313.036 148.793 316.527 152.284C320.018 155.729 321.763 159.968 321.763 165C321.763 170.032 320.018 174.293 316.527 177.784ZM297.147 171.732C298.915 173.5 301.114 174.384 303.743 174.384C306.372 174.384 308.571 173.5 310.339 171.732C312.107 169.964 312.991 167.72 312.991 165C312.991 162.28 312.107 160.036 310.339 158.268C308.571 156.5 306.372 155.616 303.743 155.616C301.114 155.616 298.915 156.5 297.147 158.268C295.424 160.036 294.563 162.28 294.563 165C294.563 167.72 295.424 169.964 297.147 171.732Z" fill="#2F3343"/>
<path d="M359.282 182H349.082L336.706 166.564V182H327.934V134.4H336.706V162.96L348.402 148H358.874L345.206 164.796L359.282 182Z" fill="#2F3343"/>
<path d="M368.615 168.604C369.794 172.865 372.99 174.996 378.203 174.996C381.558 174.996 384.097 173.863 385.819 171.596L392.891 175.676C389.537 180.527 384.595 182.952 378.067 182.952C372.446 182.952 367.935 181.252 364.535 177.852C361.135 174.452 359.435 170.168 359.435 165C359.435 159.877 361.113 155.616 364.467 152.216C367.822 148.771 372.129 147.048 377.387 147.048C382.374 147.048 386.477 148.771 389.695 152.216C392.959 155.661 394.591 159.923 394.591 165C394.591 166.133 394.478 167.335 394.251 168.604H368.615ZM368.479 161.804H385.819C385.321 159.492 384.278 157.769 382.691 156.636C381.15 155.503 379.382 154.936 377.387 154.936C375.03 154.936 373.081 155.548 371.539 156.772C369.998 157.951 368.978 159.628 368.479 161.804Z" fill="#2F3343"/>
<path d="M419.619 147.048C423.336 147.048 426.396 148.295 428.799 150.788C431.247 153.281 432.471 156.727 432.471 161.124V182H423.699V162.212C423.699 159.945 423.087 158.223 421.863 157.044C420.639 155.82 419.007 155.208 416.967 155.208C414.7 155.208 412.887 155.911 411.527 157.316C410.167 158.721 409.487 160.829 409.487 163.64V182H400.715V148H409.487V151.808C411.618 148.635 414.995 147.048 419.619 147.048Z" fill="#2F3343"/>
</svg>
