<svg width="512" height="512" viewBox="0 0 512 512" fill="none" xmlns="http://www.w3.org/2000/svg">
<path d="M383.222 185.051C377.942 170.794 366.325 160.762 352.068 153.369C336.755 145.977 296.625 137 256.494 137C216.363 137 176.233 145.977 160.92 153.369C146.663 160.762 135.046 170.794 129.766 185.051C124.486 199.308 127.654 213.037 131.878 226.766C142.967 265.312 159.864 302.275 182.569 337.125C193.658 353.494 205.803 368.807 222.172 381.48C232.204 389.4 242.765 395.208 256.494 395.736C270.223 395.208 280.784 389.4 290.816 381.48C307.185 368.807 319.33 353.494 330.419 337.125C353.652 302.275 370.549 265.84 381.11 226.766C385.334 213.037 388.502 199.308 383.222 185.051Z" fill="#00957B"/>
<path d="M217.947 301.218C271.278 245.775 291.344 168.682 288.704 138.584C288.175 138.584 287.119 138.584 286.591 138.584C283.423 138.056 279.727 138.056 276.031 137.528C269.694 137 263.358 137 256.493 137C254.381 137 252.797 137 250.685 137C248.573 200.364 195.77 269.536 162.504 303.331C168.84 314.947 175.176 326.036 182.569 337.125C184.153 339.237 185.209 340.821 186.793 342.933C256.493 333.429 304.016 339.237 325.138 344.517C326.722 341.877 328.834 339.237 330.418 336.597C336.227 328.148 341.507 319.172 346.259 310.723C326.194 301.218 255.965 295.938 217.947 301.218Z" fill="white"/>
<path d="M99.5052 439.42C100.924 440.23 102.546 441.041 103.762 441.649C105.181 442.257 106.6 442.865 107.817 443.474C110.452 444.69 112.884 445.703 115.317 446.311C117.75 447.122 119.777 447.527 121.804 448.136C123.831 448.541 125.655 448.946 127.277 448.946C133.967 449.554 138.224 448.541 140.859 446.919C143.494 445.298 144.711 443.068 145.116 441.447C145.521 439.825 145.521 438.406 145.521 438.406C145.521 438.406 145.116 438.203 144.508 437.798C143.9 437.393 142.886 436.785 141.467 435.974C140.251 435.366 138.629 434.555 136.805 433.947C134.98 433.339 133.156 432.528 130.926 431.92C128.899 431.312 126.466 431.109 124.034 430.906C121.601 430.704 119.169 430.704 116.331 431.312C111.263 432.325 105.587 434.555 99.5052 439.42Z" fill="#00826C"/>
<path d="M138.629 394.016C139.237 395.029 140.048 396.245 140.656 397.259C141.264 398.272 141.872 399.286 142.48 400.299C143.697 402.123 144.71 404.15 145.724 405.772C146.737 407.394 147.548 409.015 148.359 410.637C149.17 412.258 149.778 413.677 150.386 414.893C152.616 420.163 153.224 424.217 153.021 427.258C152.616 430.298 151.4 432.325 150.183 433.541C148.967 434.758 147.751 435.366 147.751 435.366C147.751 435.366 147.345 435.163 146.737 434.758C146.129 434.352 145.116 433.744 143.899 432.731C142.886 431.92 141.467 430.704 140.25 429.487C139.034 428.271 137.818 426.65 136.602 424.825C135.588 423.001 134.372 421.177 133.764 418.947C133.155 416.718 132.75 414.285 132.75 411.65C132.75 406.38 134.372 400.502 138.629 394.016Z" fill="#00826C"/>
<path d="M74.1662 414.083C85.1127 422.394 93.8295 426.042 100.316 427.867C106.803 429.488 111.263 429.083 114.101 427.867C116.939 426.65 118.358 424.826 119.169 423.205C119.98 421.583 119.98 420.367 119.98 420.367C119.98 420.367 118.763 418.948 116.331 417.326C113.898 415.705 110.655 413.475 106.6 411.854C104.573 411.043 102.343 410.232 100.114 409.827C97.681 409.219 95.2485 409.016 92.4105 409.016C86.9372 408.813 80.8557 410.232 74.1662 414.083Z" fill="#00826C"/>
<path d="M119.776 375.165C124.033 384.692 127.074 391.786 128.493 397.462C129.912 403.137 129.912 407.191 129.101 410.029C128.29 413.069 126.669 414.894 125.25 415.907C123.831 416.92 122.614 417.123 122.614 417.123C122.614 417.123 121.195 416.11 119.168 414.083C117.141 412.056 114.911 409.015 113.087 405.164C112.276 403.34 111.668 401.11 111.262 398.881C110.857 396.651 110.857 394.218 111.262 391.583C112.073 386.313 114.506 380.841 119.776 375.165Z" fill="#00826C"/>
<path d="M53.0833 385.3C57.9484 390.164 62.2054 393.813 66.2597 396.651C68.2869 398.069 70.1113 399.286 71.9357 400.299C73.7602 401.313 75.3819 402.123 77.0036 402.731C80.0443 404.15 82.6796 404.758 84.9094 404.961C87.1393 405.164 88.9637 405.164 90.5854 404.758C93.6262 403.948 95.2479 402.326 96.2614 400.907C97.275 399.488 97.4777 398.069 97.4777 398.069C97.4777 398.069 96.2614 396.651 94.2343 394.624C92.2072 392.597 89.3692 389.962 85.5176 387.732C83.6932 386.516 81.666 385.502 79.2334 384.692C78.0172 384.286 76.8009 383.881 75.5846 383.475C74.3683 383.07 73.152 382.867 71.733 382.665C66.4624 381.854 60.1783 382.462 53.0833 385.3Z" fill="#00826C"/>
<path d="M103.762 353.477C105.181 358.341 106.397 362.801 107.208 366.652C107.613 368.476 108.019 370.3 108.221 372.125C108.627 373.746 108.829 375.368 108.829 376.787C109.032 379.624 109.032 382.057 108.829 384.286C108.627 386.313 108.221 388.138 107.613 389.354C106.397 392.192 104.572 393.61 102.951 394.421C101.329 395.232 100.113 395.232 100.113 395.232C100.113 395.232 98.6937 394.016 97.072 391.583C95.4503 389.151 93.6258 385.908 92.4096 381.854C91.8014 379.827 91.5987 377.597 91.5987 375.368C91.5987 374.152 91.5987 373.138 91.8014 371.922C92.0041 370.706 92.2068 369.49 92.6123 368.273C94.6394 363.409 97.8828 358.341 103.762 353.477Z" fill="#00826C"/>
<path d="M36.2581 353.477C44.164 364.626 51.4617 370.706 57.1377 374.355C59.9757 376.179 62.611 377.193 64.6381 377.801C66.868 378.409 68.6924 378.612 70.3141 378.409C73.3549 378.003 75.382 376.585 76.5983 375.368C77.8146 374.152 78.22 372.936 78.22 372.936C78.22 372.936 77.2064 371.315 75.5847 368.882C73.963 366.45 71.3277 363.612 68.0843 360.774C66.4626 359.355 64.4354 357.937 62.4083 356.923C60.3811 355.707 57.9486 354.693 55.3133 353.883C52.678 353.072 49.84 352.666 46.5966 352.464C43.5558 352.261 40.1097 352.666 36.2581 353.477Z" fill="#00826C"/>
<path d="M91.3962 329.761C92.8152 340.098 93.4234 347.801 93.0179 353.476C92.8152 356.314 92.6125 358.746 92.0044 360.773C91.3962 362.8 90.7881 364.422 89.9772 365.638C88.3555 368.273 86.3284 369.489 84.7067 370.097C83.0849 370.705 81.6659 370.503 81.6659 370.503C81.6659 370.503 80.4497 369.084 79.2334 366.449C78.0171 363.814 76.5981 360.368 76.1927 356.111C75.9899 354.084 75.9899 351.855 76.1927 349.625C76.5981 347.395 77.2062 344.963 78.4225 342.733C79.6388 340.504 81.0578 338.071 83.2877 336.044C85.3148 333.815 87.9501 331.788 91.3962 329.761Z" fill="#00826C"/>
<path d="M24.7033 319.625C27.7441 325.706 30.9875 330.571 33.8255 334.422C36.8662 338.273 39.7042 341.111 42.1368 343.341C47.4074 347.597 51.4616 349.016 54.5024 349.219C57.5431 349.422 59.7729 348.206 61.1919 347.192C62.6109 345.976 63.2191 344.962 63.2191 344.962C63.2191 344.962 62.6109 343.138 61.1919 340.706C60.5838 339.49 59.5702 338.071 58.5567 336.449C57.5431 334.828 56.3268 333.206 54.9078 331.584C54.0969 330.774 53.4888 329.963 52.4752 329.152C51.6644 328.341 50.8535 327.531 49.8399 326.72C48.0155 325.301 45.7856 323.882 43.3531 322.666C40.9205 321.45 38.0825 320.639 35.0418 320.031C32.0011 319.625 28.5549 319.423 24.7033 319.625Z" fill="#00826C"/>
<path d="M82.4769 304.424C82.2741 309.694 82.2742 314.153 81.8687 318.004C81.666 321.856 81.2606 325.302 80.4497 328.139C79.4361 333.815 77.6117 337.463 75.5846 339.693C73.5574 341.923 71.3276 342.936 69.7059 343.139C67.8814 343.544 66.6651 343.139 66.6651 343.139C66.6651 343.139 65.8543 341.517 64.8407 338.882C64.4353 337.463 64.0299 336.044 63.6244 334.22C63.4217 332.396 63.219 330.369 63.219 328.342C63.219 327.329 63.4217 326.315 63.4217 325.099C63.6244 324.085 63.8271 322.869 64.2326 321.856C64.8407 319.626 66.057 317.396 67.476 315.369C68.895 313.342 70.9221 311.315 73.3547 309.491C75.99 307.464 79.0307 305.843 82.4769 304.424Z" fill="#00826C"/>
<path d="M18.2165 284.356C19.4327 287.6 20.4463 290.437 21.4599 293.275C22.6762 295.91 23.8925 298.342 24.906 300.369C25.5142 301.383 26.1223 302.396 26.5278 303.41C27.1359 304.423 27.744 305.234 28.3522 306.045C29.5685 307.667 30.582 309.085 31.7983 310.504C34.0282 313.139 36.0553 314.761 38.0825 315.977C39.9069 317.193 41.7313 317.801 43.1503 318.207C46.191 318.815 48.4209 318.004 50.0426 317.193C51.6643 316.382 52.2725 315.166 52.2725 315.166C52.2725 315.166 51.8671 313.342 50.8535 310.707C50.2453 309.288 49.8399 307.667 49.029 306.045C48.2182 304.423 47.2046 302.599 45.9883 300.775C44.772 298.951 43.5558 297.126 41.7313 295.302C40.1096 293.478 38.0825 291.856 35.8526 290.235C31.5956 287.194 25.9196 284.965 18.2165 284.356Z" fill="#00826C"/>
<path d="M77.8149 278.073C77.4095 280.708 77.0041 282.938 76.3959 285.168C75.9905 287.397 75.5851 289.424 75.1796 291.451C74.9769 292.465 74.7742 293.275 74.3688 294.289C74.1661 295.1 73.9633 296.113 73.7606 296.924C73.3552 298.546 72.7471 299.964 72.3416 301.383C71.3281 304.018 70.3145 306.248 69.0982 308.072C68.0846 309.897 66.8683 311.113 65.6521 312.126C63.2195 314.153 60.9896 314.761 59.1652 314.761C57.3408 314.761 56.1245 314.356 56.1245 314.356C56.1245 314.356 55.5163 312.532 55.1109 309.897C54.9082 308.478 54.7055 306.856 54.7055 305.032C54.7055 303.208 54.9082 301.181 55.3136 299.154C55.719 297.127 56.5299 294.897 57.3408 292.87C58.3543 290.843 59.5706 288.816 61.395 286.992C65.0439 282.938 70.3145 279.898 77.8149 278.073Z" fill="#00826C"/>
<path d="M16.9999 248.682C17.6081 252.127 18.4189 255.168 19.0271 257.803C19.8379 260.641 20.6488 263.073 21.4597 265.505C22.2705 267.735 23.0814 269.762 24.0949 271.586C25.1085 273.411 25.9194 275.032 26.7302 276.451C28.5547 279.289 30.1764 281.316 32.0008 282.937C33.6225 284.356 35.2442 285.37 36.8659 285.978C39.7039 286.991 42.1365 286.586 43.7582 285.978C45.38 285.37 46.3935 284.356 46.3935 284.356C46.3935 284.356 46.3935 282.532 45.7854 279.694C45.38 276.856 44.3664 273.005 42.542 269.154C41.7311 267.127 40.5148 265.1 39.2985 263.073C37.8795 261.046 36.2578 259.019 34.2307 257.195C29.9737 253.546 24.5004 250.303 16.9999 248.682Z" fill="#00826C"/>
<path d="M76.8008 251.317C75.99 253.75 75.1791 256.182 74.3682 258.209C73.5574 260.439 72.9492 262.263 72.1384 264.087C71.5302 265.911 70.5167 267.533 69.9085 269.155C69.3004 270.776 68.4895 271.992 67.8814 273.411C66.4624 276.046 65.0434 278.073 63.6244 279.492C62.2054 281.114 60.9891 282.127 59.5701 282.938C56.9348 284.56 54.5022 284.762 52.8805 284.56C51.0561 284.357 50.0425 283.749 50.0425 283.749C50.0425 283.749 49.6371 281.924 49.6371 279.087C49.6371 276.249 50.0425 272.398 51.4615 268.547C52.2724 266.52 53.2859 264.493 54.5022 262.668C55.7185 260.844 57.3402 259.02 59.3674 257.398C63.6244 254.155 69.3004 251.925 76.8008 251.317Z" fill="#00826C"/>
<path d="M21.2574 213.008C21.4601 219.899 22.0682 225.575 23.0818 230.237C23.69 232.669 24.0954 234.696 24.7035 236.723C25.109 237.939 25.3117 238.75 25.7171 239.561C26.1225 240.372 26.3252 241.183 26.7307 241.993C28.1497 245.034 29.5687 247.263 30.9877 249.088C32.4067 250.912 33.8257 251.925 35.2447 252.736C38.0827 254.155 40.3125 254.155 42.137 253.75C43.7587 253.344 44.975 252.534 44.975 252.534C44.975 252.534 44.975 252.128 44.975 251.317C44.975 250.507 44.975 249.29 44.975 247.872C44.975 245.034 44.3668 241.183 43.3533 236.926C42.137 232.669 40.3125 228.21 36.8664 223.953C33.2175 219.697 28.5551 215.846 21.2574 213.008Z" fill="#00826C"/>
<path d="M80.0443 224.561C77.6117 229.223 75.5845 233.074 73.5574 236.52C72.5438 238.142 71.733 239.763 70.7194 241.182C70.314 241.79 69.7058 242.601 69.3004 243.209C68.895 243.817 68.4895 244.425 68.0841 245.034C66.2597 247.263 64.638 249.087 63.0163 250.506C61.3945 251.925 59.9755 252.736 58.5565 253.344C55.7185 254.56 53.286 254.358 51.6642 253.952C50.0425 253.547 49.029 252.736 49.029 252.736C49.029 252.736 49.029 252.331 49.029 251.52C49.029 250.709 49.029 249.493 49.4344 248.074C49.8398 245.236 50.6507 241.588 52.6778 237.736C54.5023 234.088 57.7457 230.439 62.2054 227.804C66.4624 225.372 72.5438 224.156 80.0443 224.561Z" fill="#00826C"/>
<path d="M30.7846 178.55C30.5819 180.171 30.3791 181.793 30.1764 183.415C29.9737 185.036 29.9737 186.455 29.9737 187.874C29.9737 189.293 29.9737 190.712 29.771 192.13C29.771 193.549 29.771 194.765 29.9737 195.982C30.1764 198.414 30.3791 200.644 30.5819 202.671C30.9873 204.698 31.3927 206.522 31.7981 208.143C32.2036 209.765 32.8117 211.184 33.2171 212.4C33.8253 213.616 34.4334 214.832 34.8389 215.643C36.0551 217.67 37.2714 218.886 38.4877 219.9C40.9203 221.724 43.3529 222.129 45.1773 221.927C47.0017 221.724 48.0153 221.116 48.0153 221.116C48.0153 221.116 48.4207 219.292 48.8262 216.454C49.0289 215.035 49.2316 213.414 49.2316 211.387C49.2316 209.562 49.0289 207.333 48.8262 205.306C48.6234 203.076 48.218 200.846 47.4072 198.617C46.5963 196.387 45.7854 193.955 44.3664 191.522C41.7311 186.86 37.4741 182.401 30.7846 178.55Z" fill="#00826C"/>
<path d="M87.1393 198.818C85.5176 200.845 84.0986 202.872 82.8823 204.697C81.4633 206.521 80.247 208.142 79.0307 209.764C77.8144 211.386 76.5981 212.602 75.3818 214.021C74.3683 215.237 73.152 216.453 72.1384 217.466C71.1248 218.48 70.1113 219.291 69.0977 220.101C68.0841 220.912 67.2733 221.52 66.4624 222.128C64.638 223.142 63.0163 223.953 61.5973 224.358C58.5565 225.169 56.3267 224.561 54.705 223.953C53.0833 223.142 52.2724 222.331 52.2724 222.331C52.2724 222.331 52.4751 220.507 53.286 217.872C53.6914 216.453 54.2995 215.034 55.1104 213.21C55.9213 211.588 56.7321 209.764 58.1511 208.142C59.3674 206.521 60.9891 204.899 62.8135 203.48C64.638 202.061 66.8678 200.845 69.0977 199.832C73.5574 197.602 79.6388 197.197 87.1393 198.818Z" fill="#00826C"/>
<path d="M45.38 145.713C43.5556 152.199 42.3393 157.875 41.9338 162.739C41.3257 167.604 41.5284 171.658 41.9338 174.901C42.1366 176.523 42.3393 178.144 42.7447 179.36C43.1501 180.779 43.5556 181.793 43.961 183.009C44.7718 185.036 45.7854 186.658 47.0017 187.671C49.2316 189.901 51.4614 190.509 53.2858 190.711C55.1103 190.914 56.3266 190.509 56.3266 190.509C56.3266 190.509 57.1374 188.887 57.7456 186.049C58.3537 183.212 59.3673 179.36 59.3673 175.104C59.3673 172.874 59.3673 170.645 58.9618 168.212C58.7591 166.996 58.5564 165.78 58.151 164.564C57.7456 163.347 57.5428 162.131 56.9347 160.915C54.9076 155.848 51.4614 150.578 45.38 145.713Z" fill="#00826C"/>
<path d="M98.086 174.294C94.4372 177.942 91.1937 181.185 88.3557 183.82C85.315 186.455 82.8825 188.685 80.4499 190.306C79.2336 191.117 78.22 191.928 77.0037 192.536C75.9902 193.144 74.9766 193.752 73.963 194.158C72.1386 194.968 70.3142 195.374 68.6924 195.577C65.6517 195.982 63.4219 194.968 62.0029 194.158C60.5839 193.144 59.773 192.131 59.773 192.131C59.773 192.131 60.1784 190.306 61.3947 187.874C62.611 185.239 64.6382 181.996 67.4762 178.956C68.8952 177.537 70.7196 176.118 72.7467 174.902C73.7603 174.294 74.7739 173.888 75.9902 173.28C77.2065 172.875 78.4227 172.469 79.639 172.267C84.9096 171.05 90.991 171.456 98.086 174.294Z" fill="#00826C"/>
<path d="M64.8406 115.714C59.1646 128.078 57.3402 137.605 56.9347 144.091C56.732 150.78 58.151 154.834 59.9755 157.469C61.7999 160.104 64.0298 160.915 65.6515 161.32C67.4759 161.726 68.6922 161.523 68.6922 161.523C68.6922 161.523 68.8949 161.118 69.3003 160.307C69.7058 159.496 70.3139 158.483 70.922 157.267C71.5302 156.05 72.1383 154.429 72.7465 152.605C73.3546 150.78 73.9628 148.753 74.3682 146.726C74.7736 144.497 74.9763 142.267 74.9763 139.835C74.9763 137.402 74.5709 134.767 74.1655 132.132C72.7465 126.862 70.1112 121.187 64.8406 115.714Z" fill="#00826C"/>
<path d="M112.681 151.794C104.37 158.078 98.0857 162.334 92.8152 164.969C87.7473 167.605 83.693 168.415 80.6523 168.415C77.6116 168.213 75.5844 167.199 74.1654 165.983C72.7464 164.767 72.341 163.551 72.341 163.551C72.341 163.551 72.5437 163.145 72.9491 162.334C73.3546 161.524 73.9627 160.713 74.7736 159.497C75.5844 158.28 76.598 157.064 77.8143 155.645C79.0306 154.227 80.6523 153.01 82.274 151.794C83.8957 150.578 85.9229 149.565 88.1527 148.551C90.3826 147.74 92.6124 147.132 95.2477 146.929C100.113 146.727 105.992 147.943 112.681 151.794Z" fill="#00826C"/>
<path d="M88.3551 88.7549C80.8546 100.106 77.6112 109.227 76.3949 115.713C75.7868 118.957 75.5841 121.794 75.7868 124.024C75.9895 126.254 76.5976 128.078 77.2058 129.497C78.6248 132.335 80.6519 133.551 82.2736 134.159C83.8953 134.767 85.1116 134.767 85.1116 134.767C85.1116 134.767 85.3143 134.362 85.9225 133.753C86.3279 133.145 87.1388 132.132 87.9496 130.916C88.7605 129.7 89.5713 128.281 90.3822 126.456C91.1931 124.835 92.0039 123.011 92.8148 120.781C93.2202 119.767 93.4229 118.754 93.8284 117.538C94.0311 116.322 94.4365 115.308 94.6392 114.092C95.0446 111.66 95.0446 109.024 94.8419 106.389C94.6392 101.119 92.8148 95.0385 88.3551 88.7549Z" fill="#00826C"/>
<path d="M130.317 131.524C128.087 132.74 125.857 133.957 123.83 134.97C121.803 135.983 119.979 136.997 118.154 137.808C116.33 138.619 114.708 139.429 113.086 140.037C111.465 140.645 110.046 141.254 108.627 141.659C105.991 142.672 103.559 143.078 101.329 143.281C99.3019 143.483 97.4775 143.483 96.0585 143.078C93.0178 142.47 91.1933 141.051 89.977 139.632C88.7608 138.213 88.558 136.997 88.558 136.997C88.558 136.997 88.7608 136.592 89.1662 135.983C89.5716 135.375 90.3825 134.362 91.396 133.348C92.4096 132.335 93.6259 131.119 95.0449 129.903C96.4639 128.686 98.0856 127.673 100.113 126.659C101.126 126.254 101.937 125.646 102.951 125.241C103.964 124.835 105.181 124.632 106.194 124.227C108.424 123.822 110.857 123.619 113.492 123.822C118.762 124.632 124.438 126.862 130.317 131.524Z" fill="#00826C"/>
<path d="M115.925 65.6475C111.262 70.7149 108.019 75.3769 105.383 79.4308C102.951 83.6874 101.126 87.1332 100.113 90.3764C99.0993 93.6195 98.4911 96.2546 98.2884 98.4842C98.0857 100.714 98.4911 102.538 98.8966 104.16C99.9101 107.2 101.735 108.619 103.154 109.633C104.775 110.443 105.992 110.646 105.992 110.646C105.992 110.646 106.397 110.241 107.005 109.835C107.613 109.227 108.424 108.416 109.438 107.403C111.465 105.376 113.695 102.133 115.722 98.2815C117.749 94.4303 119.371 89.7683 119.776 84.2955C119.979 78.8227 119.168 72.7418 115.925 65.6475Z" fill="#00826C"/>
<path d="M150.791 114.296C145.926 116.12 141.669 117.539 137.817 118.552C134.169 119.769 130.722 120.377 127.884 120.985C125.046 121.39 122.614 121.593 120.587 121.593C118.56 121.593 116.735 121.187 115.316 120.579C112.478 119.566 110.856 117.742 109.843 116.323C108.829 114.904 108.829 113.485 108.829 113.485C108.829 113.485 109.032 113.08 109.64 112.472C110.248 111.863 111.059 111.053 112.073 110.242C114.303 108.62 117.546 106.391 121.6 104.972C125.452 103.553 130.317 103.147 135.385 104.364C140.453 105.58 145.723 108.823 150.791 114.296Z" fill="#00826C"/>
<path d="M146.332 47C145.116 48.0135 143.697 49.2297 142.683 50.2431C141.467 51.2566 140.453 52.2701 139.44 53.2836C137.413 55.3105 135.588 57.1348 133.967 59.1618C132.345 60.986 131.129 62.8103 129.912 64.4319C128.696 66.0534 127.885 67.675 127.074 69.2966C123.831 75.1748 123.425 79.6341 123.831 82.6745C124.439 85.715 125.858 87.5392 127.277 88.7554C128.696 89.7689 129.912 90.1743 129.912 90.1743C129.912 90.1743 131.534 89.1608 133.764 87.3365C134.777 86.323 136.196 85.3096 137.413 83.8907C138.629 82.4718 140.048 80.8502 141.264 79.2287C142.481 77.4044 143.697 75.5802 144.913 73.3505C145.927 71.1208 146.94 68.8912 147.548 66.0534C147.751 64.6346 148.157 63.4184 148.157 61.7968C148.359 60.3779 148.359 58.9591 148.359 57.3375C148.157 54.0944 147.548 50.6485 146.332 47Z" fill="#00826C"/>
<path d="M173.698 100.309C171.063 100.714 168.833 101.322 166.603 101.727C164.374 102.133 162.144 102.336 160.319 102.741C158.292 102.944 156.468 103.146 154.846 103.349C153.224 103.552 151.603 103.552 150.184 103.552C144.305 103.552 140.453 102.741 137.818 101.322C135.183 99.9032 133.764 97.8762 133.156 96.2547C132.547 94.6331 132.547 93.4169 132.547 93.4169C132.547 93.4169 133.966 92.2008 136.399 90.7819C137.615 90.1738 139.034 89.363 140.859 88.7549C142.48 88.1468 144.508 87.5387 146.535 87.1333C148.562 86.728 150.792 86.5253 153.022 86.728C155.251 86.9307 157.684 87.5387 160.117 88.5522C161.333 88.9576 162.549 89.5657 163.765 90.3765C164.982 91.1873 166.198 91.9981 167.212 93.0115C169.239 94.6331 171.671 97.0655 173.698 100.309Z" fill="#00826C"/>
<path d="M193.969 59.7702C182.415 59.1621 173.09 60.9864 165.792 63.4187C163.968 64.0268 162.346 64.8376 160.724 65.4457C159.103 66.0538 157.684 66.8646 156.467 67.6753C155.251 68.4861 154.035 69.2969 152.818 69.905C151.805 70.7158 150.791 71.5266 149.98 72.3374C146.332 75.3778 144.507 78.4182 143.494 80.6479C142.48 82.6749 142.277 84.0937 142.277 84.0937C142.277 84.0937 143.494 84.4991 145.926 84.4991C147.142 84.4991 148.561 84.2964 150.183 84.0937C151.805 83.891 153.832 83.4856 155.859 82.8776C156.873 82.4722 158.089 82.0668 159.305 81.6614C160.522 81.256 161.738 80.6479 162.954 80.2425C164.17 79.6344 165.589 79.0263 167.008 78.2155C168.427 77.4048 169.846 76.594 171.468 75.7832C177.55 71.932 184.847 66.6619 193.969 59.7702Z" fill="#00826C"/>
<path d="M373.372 394.016C372.764 395.029 371.953 396.245 371.345 397.259C370.737 398.272 370.129 399.286 369.521 400.299C368.304 402.123 367.291 404.15 366.277 405.772C365.264 407.394 364.453 409.015 363.642 410.637C362.831 412.258 362.223 413.677 361.615 414.893C359.385 420.163 358.777 424.217 358.98 427.258C359.385 430.298 360.601 432.325 361.818 433.541C363.034 434.758 364.25 435.366 364.25 435.366C364.25 435.366 364.656 435.163 365.264 434.758C365.872 434.352 366.885 433.744 368.102 432.731C369.115 431.92 370.534 430.704 371.751 429.487C372.967 428.271 374.183 426.65 375.4 424.825C376.413 423.001 377.629 421.177 378.237 418.947C378.846 416.718 379.251 414.285 379.251 411.65C379.454 406.38 377.629 400.502 373.372 394.016Z" fill="#00826C"/>
<path d="M412.496 439.42C411.077 440.23 409.455 441.041 408.239 441.649C406.82 442.257 405.401 442.865 404.184 443.474C401.549 444.69 399.117 445.703 396.684 446.311C394.251 447.122 392.224 447.527 390.197 448.136C388.17 448.541 386.346 448.946 384.724 448.946C378.034 449.554 373.777 448.541 371.142 446.919C368.507 445.298 367.29 443.068 366.885 441.447C366.48 439.825 366.48 438.406 366.48 438.406C366.48 438.406 366.885 438.203 367.493 437.798C368.101 437.393 369.115 436.785 370.534 435.974C371.75 435.366 373.372 434.555 375.196 433.947C377.021 433.339 378.845 432.528 381.075 431.92C383.102 431.312 385.535 431.109 387.967 430.906C390.4 430.704 392.832 430.704 395.67 431.312C400.738 432.325 406.617 434.555 412.496 439.42Z" fill="#00826C"/>
<path d="M392.427 375.165C388.17 384.692 385.129 391.786 383.71 397.462C382.291 403.137 382.291 407.191 383.102 410.029C383.913 413.069 385.535 414.894 386.954 415.907C388.373 416.92 389.589 417.123 389.589 417.123C389.589 417.123 391.008 416.11 393.035 414.083C395.062 412.056 397.292 409.015 399.117 405.164C399.927 403.34 400.536 401.11 400.941 398.881C401.346 396.651 401.346 394.218 400.941 391.583C399.927 386.313 397.495 380.841 392.427 375.165Z" fill="#00826C"/>
<path d="M437.835 414.083C426.889 422.394 418.172 426.042 411.685 427.867C405.198 429.488 400.739 429.083 397.901 427.867C395.063 426.65 393.644 424.826 392.833 423.205C392.022 421.583 392.022 420.367 392.022 420.367C392.022 420.367 393.238 418.948 395.671 417.326C398.103 415.705 401.347 413.475 405.401 411.854C407.428 411.043 409.658 410.232 411.888 409.827C414.32 409.219 416.753 409.016 419.591 409.016C425.064 408.813 431.146 410.232 437.835 414.083Z" fill="#00826C"/>
<path d="M408.238 353.477C406.819 358.341 405.603 362.801 404.792 366.652C404.387 368.476 403.981 370.3 403.779 372.125C403.373 373.746 403.171 375.368 403.171 376.787C402.968 379.624 402.968 382.057 403.171 384.286C403.373 386.313 403.779 388.138 404.387 389.354C405.603 392.192 407.428 393.61 409.049 394.421C410.671 395.232 411.887 395.232 411.887 395.232C411.887 395.232 413.306 394.016 414.928 391.583C416.55 389.151 418.374 385.908 419.59 381.854C420.199 379.827 420.401 377.597 420.401 375.368C420.401 374.152 420.401 373.138 420.199 371.922C419.996 370.706 419.793 369.49 419.388 368.273C417.563 363.409 414.32 358.341 408.238 353.477Z" fill="#00826C"/>
<path d="M459.121 385.301C454.256 390.165 449.999 393.814 445.945 396.652C443.918 398.07 442.093 399.287 440.269 400.3C438.444 401.314 436.822 402.124 435.201 402.732C432.16 404.151 429.525 404.759 427.295 404.962C425.065 405.165 423.241 405.165 421.619 404.759C418.578 403.949 416.956 402.327 415.943 400.908C414.929 399.489 414.727 398.07 414.727 398.07C414.727 398.07 415.943 396.652 417.97 394.625C419.997 392.598 422.835 389.963 426.687 387.733C428.511 386.517 430.538 385.503 432.971 384.692C434.187 384.287 435.403 383.882 436.62 383.476C437.836 383.071 439.052 382.868 440.471 382.666C445.742 381.855 452.026 382.463 459.121 385.301Z" fill="#00826C"/>
<path d="M420.807 329.761C419.388 340.098 418.78 347.801 419.185 353.476C419.388 356.314 419.591 358.746 420.199 360.773C420.807 362.8 421.415 364.422 422.226 365.638C423.848 368.273 425.875 369.489 427.497 370.097C429.118 370.705 430.537 370.503 430.537 370.503C430.537 370.503 431.754 369.084 432.97 366.449C434.186 363.814 435.605 360.368 436.011 356.111C436.213 354.084 436.213 351.855 436.011 349.625C435.605 347.395 434.997 344.963 433.781 342.733C432.565 340.504 431.146 338.071 428.916 336.044C426.686 333.815 424.051 331.788 420.807 329.761Z" fill="#00826C"/>
<path d="M475.743 353.477C467.837 364.626 460.54 370.706 454.864 374.355C452.026 376.179 449.39 377.193 447.363 377.801C445.133 378.409 443.309 378.612 441.687 378.409C438.646 378.003 436.619 376.585 435.403 375.368C434.187 374.152 433.781 372.936 433.781 372.936C433.781 372.936 434.795 371.315 436.417 368.882C438.038 366.45 440.674 363.612 443.917 360.774C445.539 359.355 447.566 357.937 449.593 356.923C451.62 355.707 454.053 354.693 456.688 353.883C459.323 353.072 462.161 352.666 465.405 352.464C468.648 352.261 471.892 352.666 475.743 353.477Z" fill="#00826C"/>
<path d="M429.524 304.424C429.727 309.694 429.727 314.153 430.132 318.004C430.335 321.856 430.74 325.302 431.551 328.139C432.565 333.815 434.389 337.463 436.416 339.693C438.443 341.923 440.673 342.936 442.295 343.139C444.119 343.544 445.336 343.139 445.336 343.139C445.336 343.139 446.146 341.517 447.16 338.882C447.565 337.463 447.971 336.044 448.376 334.22C448.579 332.396 448.782 330.369 448.782 328.342C448.782 327.329 448.579 326.315 448.579 325.099C448.376 324.085 448.174 322.869 447.768 321.856C447.16 319.626 445.944 317.396 444.525 315.369C443.106 313.342 441.079 311.315 438.646 309.491C436.011 307.464 432.97 305.843 429.524 304.424Z" fill="#00826C"/>
<path d="M487.5 319.626C484.459 325.707 481.216 330.572 478.378 334.423C475.337 338.274 472.499 341.112 470.067 343.342C464.796 347.598 460.742 349.017 457.701 349.22C454.66 349.423 452.43 348.207 451.011 347.193C449.592 345.977 448.984 344.963 448.984 344.963C448.984 344.963 449.592 343.139 451.011 340.707C451.62 339.491 452.633 338.072 453.647 336.45C454.66 334.829 455.877 333.207 457.296 331.585C458.106 330.775 458.715 329.964 459.728 329.153C460.539 328.342 461.35 327.532 462.363 326.721C464.188 325.302 466.418 323.883 468.85 322.667C471.283 321.451 474.121 320.64 477.162 320.032C480.202 319.626 483.649 319.424 487.5 319.626Z" fill="#00826C"/>
<path d="M434.389 278.073C434.794 280.708 435.2 282.938 435.808 285.168C436.213 287.397 436.619 289.424 437.024 291.451C437.227 292.465 437.43 293.275 437.835 294.289C438.038 295.1 438.24 296.113 438.443 296.924C438.849 298.546 439.457 299.964 439.862 301.383C440.876 304.018 441.889 306.248 443.106 308.072C444.119 309.897 445.335 311.113 446.552 312.126C448.984 314.153 451.214 314.761 453.039 314.761C454.863 314.761 456.079 314.356 456.079 314.356C456.079 314.356 456.687 312.532 457.093 309.897C457.296 308.478 457.498 306.856 457.498 305.032C457.498 303.208 457.296 301.181 456.89 299.154C456.485 297.127 455.674 294.897 454.863 292.87C453.849 290.843 452.633 288.816 450.809 286.992C446.957 282.938 441.687 279.898 434.389 278.073Z" fill="#00826C"/>
<path d="M493.987 284.357C492.771 287.601 491.757 290.438 490.744 293.276C489.527 295.911 488.311 298.343 487.297 300.37C486.689 301.384 486.081 302.397 485.676 303.411C485.068 304.424 484.459 305.235 483.851 306.046C482.635 307.667 481.621 309.086 480.405 310.505C478.175 313.14 476.148 314.762 474.121 315.978C472.297 317.194 470.472 317.802 469.053 318.208C466.012 318.816 463.783 318.005 462.161 317.194C460.539 316.383 459.931 315.167 459.931 315.167C459.931 315.167 460.336 313.343 461.35 310.708C461.958 309.289 462.364 307.667 463.174 306.046C463.985 304.424 464.999 302.6 466.215 300.776C467.431 298.952 468.648 297.127 470.472 295.303C472.094 293.479 474.121 291.857 476.351 290.236C480.405 287.195 486.284 284.966 493.987 284.357Z" fill="#00826C"/>
<path d="M435.2 251.318C436.01 253.751 436.821 256.183 437.632 258.21C438.443 260.44 439.051 262.264 439.862 264.088C440.47 265.912 441.484 267.534 442.092 269.156C442.7 270.777 443.511 271.993 444.119 273.412C445.538 276.047 446.957 278.074 448.376 279.493C449.795 281.115 451.011 282.128 452.43 282.939C455.066 284.561 457.498 284.763 459.12 284.561C460.944 284.358 461.958 283.75 461.958 283.75C461.958 283.75 462.363 281.925 462.363 279.088C462.363 276.25 461.958 272.399 460.539 268.548C459.728 266.521 458.714 264.494 457.498 262.669C456.282 260.845 454.66 259.021 452.633 257.399C448.376 254.156 442.903 251.926 435.2 251.318Z" fill="#00826C"/>
<path d="M495 248.683C494.392 252.128 493.581 255.169 492.973 257.804C492.162 260.642 491.351 263.074 490.541 265.506C489.73 267.736 488.919 269.763 487.905 271.587C486.892 273.412 486.081 275.033 485.27 276.452C483.446 279.29 481.824 281.317 479.999 282.938C478.378 284.357 476.756 285.371 475.134 285.979C472.296 286.992 469.864 286.587 468.242 285.979C466.62 285.371 465.607 284.357 465.607 284.357C465.607 284.357 465.607 282.533 466.215 279.695C466.62 276.857 467.634 273.006 469.458 269.155C470.269 267.128 471.485 265.101 472.702 263.074C474.121 261.047 475.742 259.02 477.77 257.196C482.027 253.547 487.5 250.304 495 248.683Z" fill="#00826C"/>
<path d="M431.957 224.561C434.389 229.223 436.417 233.074 438.444 236.52C439.457 238.142 440.268 239.763 441.282 241.182C441.687 241.79 442.295 242.601 442.701 243.209C443.106 243.817 443.512 244.425 443.917 245.034C445.741 247.263 447.363 249.087 448.985 250.506C450.607 251.925 452.026 252.736 453.445 253.344C456.283 254.56 458.715 254.358 460.337 253.952C461.959 253.547 462.972 252.736 462.972 252.736C462.972 252.736 462.972 252.331 462.972 251.52C462.972 250.709 462.972 249.493 462.567 248.074C462.161 245.236 461.35 241.588 459.323 237.736C457.499 234.088 454.255 230.439 449.796 227.804C445.539 225.372 439.66 224.156 431.957 224.561Z" fill="#00826C"/>
<path d="M490.744 213.008C490.541 219.899 489.933 225.575 488.919 230.237C488.311 232.669 487.906 234.696 487.298 236.723C487.095 237.737 486.689 238.548 486.487 239.561C486.081 240.372 485.879 241.183 485.473 241.993C484.054 245.034 482.635 247.263 481.216 249.088C479.797 250.912 478.378 251.925 476.959 252.736C474.121 254.155 471.891 254.155 470.067 253.75C468.445 253.344 467.229 252.534 467.229 252.534C467.229 252.534 467.229 252.128 467.229 251.317C467.229 250.507 467.229 249.29 467.229 247.872C467.229 245.034 467.837 241.183 468.851 236.926C470.067 232.669 471.891 228.21 475.337 223.953C478.784 219.697 483.649 215.846 490.744 213.008Z" fill="#00826C"/>
<path d="M424.862 198.819C426.483 200.846 427.902 202.873 429.119 204.698C430.538 206.522 431.754 208.143 432.97 209.765C434.186 211.386 435.403 212.603 436.619 214.022C437.633 215.238 438.849 216.454 439.862 217.467C440.876 218.481 441.89 219.292 442.903 220.102C443.917 220.913 444.728 221.521 445.538 222.129C447.363 223.143 448.985 223.954 450.404 224.359C453.444 225.17 455.674 224.562 457.296 223.954C458.918 223.143 459.728 222.332 459.728 222.332C459.728 222.332 459.526 220.508 458.715 217.873C458.309 216.454 457.701 215.035 456.89 213.211C456.08 211.589 455.269 209.765 453.85 208.143C452.633 206.522 451.012 204.9 449.187 203.481C447.363 202.062 445.133 200.846 442.903 199.833C438.443 197.603 432.362 197.198 424.862 198.819Z" fill="#00826C"/>
<path d="M481.216 178.55C481.418 180.171 481.621 181.793 481.824 183.415C482.026 185.036 482.026 186.455 482.026 187.874C482.026 189.293 482.026 190.712 482.229 192.13C482.229 193.549 482.229 194.765 482.026 195.982C481.824 198.414 481.621 200.644 481.418 202.671C481.013 204.698 480.607 206.522 480.202 208.143C479.797 209.765 479.188 211.184 478.783 212.4C478.175 213.616 477.567 214.832 477.161 215.643C475.945 217.67 474.729 218.886 473.512 219.9C471.08 221.724 468.647 222.129 466.823 221.927C464.998 221.724 463.985 221.116 463.985 221.116C463.985 221.116 463.579 219.292 463.174 216.454C462.971 215.035 462.769 213.414 462.769 211.387C462.769 209.562 462.971 207.333 463.174 205.306C463.377 203.076 463.782 200.846 464.593 198.617C465.404 196.387 466.215 193.955 467.634 191.522C470.472 186.86 474.526 182.401 481.216 178.55Z" fill="#00826C"/>
<path d="M413.914 174.294C417.563 177.942 420.806 181.185 423.644 183.82C426.685 186.455 429.118 188.685 431.55 190.306C432.767 191.117 433.78 191.928 434.996 192.536C436.01 193.144 437.024 193.752 438.037 194.158C439.862 194.968 441.686 195.374 443.308 195.577C446.348 195.982 448.578 194.968 449.997 194.158C451.416 193.144 452.227 192.131 452.227 192.131C452.227 192.131 451.822 190.306 450.605 187.874C449.389 185.239 447.362 181.996 444.524 178.956C443.105 177.537 441.281 176.118 439.253 174.902C438.24 174.294 437.226 173.888 436.01 173.28C434.794 172.875 433.577 172.469 432.361 172.267C427.091 171.05 421.212 171.456 413.914 174.294Z" fill="#00826C"/>
<path d="M466.62 145.713C468.445 152.199 469.661 157.875 470.066 162.739C470.674 167.604 470.472 171.658 470.066 174.901C469.864 176.523 469.661 178.144 469.255 179.36C468.85 180.779 468.445 181.793 468.039 183.009C467.228 185.036 466.215 186.658 464.998 187.671C462.769 189.901 460.539 190.509 458.714 190.711C456.89 190.914 455.674 190.509 455.674 190.509C455.674 190.509 454.863 188.887 454.255 186.049C453.646 183.212 452.633 179.36 452.633 175.104C452.633 172.874 452.633 170.645 453.038 168.212C453.241 166.996 453.444 165.78 453.849 164.564C454.255 163.347 454.457 162.131 455.065 160.915C457.093 155.848 460.741 150.578 466.62 145.713Z" fill="#00826C"/>
<path d="M399.522 151.794C407.834 158.078 414.118 162.334 419.388 164.969C424.456 167.605 428.51 168.415 431.551 168.415C434.592 168.213 436.619 167.199 438.038 165.983C439.457 164.767 439.862 163.551 439.862 163.551C439.862 163.551 439.66 163.145 439.254 162.334C438.849 161.524 438.241 160.713 437.43 159.497C436.619 158.28 435.605 157.064 434.389 155.645C433.173 154.227 431.551 153.01 429.929 151.794C428.308 150.578 426.281 149.565 424.051 148.551C421.821 147.74 419.591 147.132 416.956 146.929C411.888 146.727 406.212 147.943 399.522 151.794Z" fill="#00826C"/>
<path d="M447.362 115.714C453.038 128.078 454.863 137.605 455.268 144.091C455.471 150.78 454.052 154.834 452.227 157.469C450.403 160.104 448.173 160.915 446.551 161.32C444.727 161.726 443.511 161.523 443.511 161.523C443.511 161.523 443.308 161.118 442.903 160.307C442.497 159.496 441.889 158.483 441.281 157.267C440.673 156.05 440.064 154.429 439.456 152.605C438.848 150.78 438.24 148.753 437.835 146.726C437.429 144.497 437.226 142.267 437.226 139.835C437.226 137.402 437.632 134.767 438.037 132.132C439.254 126.862 442.092 121.187 447.362 115.714Z" fill="#00826C"/>
<path d="M381.683 131.524C383.913 132.74 386.143 133.957 388.17 134.97C390.197 135.983 392.022 136.997 393.846 137.808C395.671 138.619 397.292 139.429 398.914 140.037C400.536 140.645 401.955 141.254 403.374 141.659C406.009 142.672 408.442 143.078 410.671 143.281C412.699 143.483 414.523 143.483 415.942 143.078C418.983 142.47 420.807 141.051 422.023 139.632C423.24 138.213 423.442 136.997 423.442 136.997C423.442 136.997 423.24 136.592 422.834 135.983C422.429 135.375 421.618 134.362 420.605 133.348C419.591 132.335 418.375 131.119 416.956 129.903C415.537 128.686 413.915 127.673 411.888 126.659C410.874 126.254 410.063 125.646 409.05 125.241C408.036 124.835 406.82 124.632 405.806 124.227C403.577 123.822 401.144 123.619 398.509 123.822C393.441 124.632 387.765 126.862 381.683 131.524Z" fill="#00826C"/>
<path d="M423.646 88.7559C431.146 100.107 434.389 109.228 435.606 115.714C436.214 118.958 436.417 121.795 436.214 124.025C436.011 126.255 435.403 128.079 434.795 129.498C433.376 132.336 431.349 133.552 429.727 134.16C428.105 134.768 426.889 134.768 426.889 134.768C426.889 134.768 426.686 134.362 426.078 133.754C425.673 133.146 424.862 132.133 424.051 130.917C423.24 129.7 422.429 128.282 421.618 126.457C420.808 124.836 419.997 123.012 419.186 120.782C418.78 119.768 418.578 118.755 418.172 117.539C417.97 116.323 417.564 115.309 417.361 114.093C416.956 111.661 416.956 109.025 417.159 106.39C417.361 101.12 419.186 95.0394 423.646 88.7559Z" fill="#00826C"/>
<path d="M361.209 114.296C366.074 116.12 370.331 117.539 374.183 118.552C377.831 119.769 381.278 120.377 384.116 120.985C386.954 121.39 389.386 121.593 391.413 121.593C393.44 121.593 395.265 121.187 396.684 120.579C399.522 119.566 401.144 117.742 402.157 116.323C403.171 114.904 403.171 113.485 403.171 113.485C403.171 113.485 402.968 113.08 402.36 112.472C401.752 111.863 400.941 111.053 399.927 110.242C397.697 108.62 394.454 106.391 390.4 104.972C386.548 103.553 381.683 103.147 376.615 104.364C371.75 105.58 366.479 108.823 361.209 114.296Z" fill="#00826C"/>
<path d="M396.279 65.6475C400.941 70.7149 404.185 75.3769 406.82 79.4308C409.252 83.6874 411.077 87.1332 412.09 90.3764C413.104 93.6195 413.712 96.2546 413.915 98.4842C414.118 100.714 413.712 102.538 413.307 104.16C412.293 107.2 410.469 108.619 409.05 109.633C407.428 110.443 406.212 110.646 406.212 110.646C406.212 110.646 405.806 110.241 405.198 109.835C404.59 109.227 403.779 108.416 402.766 107.403C400.738 105.376 398.509 102.133 396.481 98.2815C394.454 94.4303 392.833 89.7683 392.427 84.2955C392.022 78.8227 392.833 72.7418 396.279 65.6475Z" fill="#00826C"/>
<path d="M338.302 100.31C340.938 100.715 343.167 101.323 345.397 101.728C347.627 102.134 349.857 102.337 351.682 102.742C353.709 102.945 355.533 103.147 357.155 103.35C358.777 103.553 360.398 103.553 361.817 103.553C367.696 103.553 371.548 102.742 374.183 101.323C376.818 99.9042 378.237 97.8772 378.845 96.2557C379.453 94.6341 379.453 93.4179 379.453 93.4179C379.453 93.4179 378.034 92.2017 375.602 90.7829C374.386 90.1748 372.967 89.364 371.142 88.7559C369.52 88.1478 367.493 87.5397 365.466 87.1343C363.439 86.7289 361.209 86.5262 358.979 86.7289C356.749 86.9316 354.317 87.5397 351.884 88.5532C350.668 88.9586 349.452 89.5667 348.235 90.3775C347.019 91.1882 345.803 91.999 344.789 93.0125C342.762 94.6341 340.532 97.0664 338.302 100.31Z" fill="#00826C"/>
<path d="M365.669 47C366.885 48.0135 368.304 49.2297 369.318 50.2431C370.534 51.2566 371.548 52.2701 372.561 53.2836C374.588 55.3105 376.413 57.1348 378.034 59.1618C379.656 60.986 380.872 62.8103 382.089 64.4319C383.305 66.0534 384.116 67.675 384.927 69.2966C388.17 75.1748 388.576 79.6341 388.17 82.6745C387.562 85.715 386.143 87.5392 384.724 88.7554C383.305 89.7689 382.089 90.1743 382.089 90.1743C382.089 90.1743 380.467 89.1608 378.237 87.3365C377.224 86.323 375.805 85.3096 374.588 83.8907C373.372 82.4718 371.953 80.8502 370.737 79.2287C369.52 77.4044 368.304 75.5802 367.088 73.3505C366.074 71.1208 365.061 68.8912 364.452 66.0534C364.25 64.6346 363.844 63.4184 363.844 61.7968C363.642 60.3779 363.642 58.9591 363.642 57.3375C364.047 54.0944 364.453 50.6485 365.669 47Z" fill="#00826C"/>
<path d="M318.031 59.973C327.153 66.8646 334.45 72.1347 340.735 75.5806C342.356 76.594 343.775 77.4048 345.194 78.0129C346.613 78.8237 348.032 79.4318 349.249 80.0399C350.465 80.648 351.884 81.0534 352.897 81.4588C354.114 81.8641 355.127 82.2695 356.344 82.6749C360.601 83.8911 364.047 84.2965 366.277 84.2965C368.709 84.2965 369.926 83.8911 369.926 83.8911C369.926 83.8911 369.723 82.6749 368.506 80.4453C367.898 79.4318 367.29 78.2156 366.074 76.7967C365.06 75.3779 363.641 73.959 361.817 72.3374C361.006 71.5266 359.993 70.7159 358.776 69.9051C357.763 69.0943 356.546 68.2835 355.127 67.6754C353.708 66.8646 352.289 66.0538 350.87 65.4458C349.249 64.8377 347.627 64.0269 345.802 63.4188C338.91 60.9864 329.585 59.3649 318.031 59.973Z" fill="#00826C"/>
</svg>
