<svg width="946" height="222" viewBox="0 0 946 222" fill="none" xmlns="http://www.w3.org/2000/svg">
<path d="M166.163 80.237C163.873 74.0553 158.836 69.7052 152.655 66.4999C146.015 63.2945 128.615 59.4023 111.214 59.4023C93.8139 59.4023 76.4135 63.2945 69.7739 66.4999C63.5922 69.7052 58.5553 74.0553 56.2657 80.237C53.9762 86.4187 55.3499 92.3714 57.1815 98.3242C61.9895 115.038 69.316 131.064 79.1609 146.175C83.9689 153.273 89.2348 159.912 96.3323 165.407C100.682 168.841 105.261 171.36 111.214 171.589C117.167 171.36 121.746 168.841 126.096 165.407C133.194 159.912 138.459 153.273 143.267 146.175C153.341 131.064 160.668 115.267 165.247 98.3242C167.078 92.3714 168.452 86.4187 166.163 80.237Z" fill="#00957B"/>
<path d="M94.5004 130.606C117.625 106.566 126.325 73.1395 125.18 60.0892C124.951 60.0892 124.493 60.0892 124.264 60.0892C122.89 59.8602 121.288 59.8602 119.685 59.6313C116.938 59.4023 114.19 59.4023 111.214 59.4023C110.298 59.4023 109.611 59.4023 108.695 59.4023C107.78 86.8766 84.8844 116.869 70.4604 131.522C73.2079 136.559 75.9553 141.367 79.1606 146.175C79.8475 147.091 80.3054 147.778 80.9922 148.694C111.214 144.573 131.82 147.091 140.978 149.38C141.665 148.236 142.58 147.091 143.267 145.946C145.786 142.283 148.075 138.391 150.136 134.728C141.436 130.606 110.985 128.317 94.5004 130.606Z" fill="white"/>
<path d="M43.1449 190.529C43.7602 190.881 44.4633 191.232 44.9907 191.496C45.606 191.759 46.2212 192.023 46.7486 192.287C47.8913 192.814 48.946 193.254 50.0008 193.517C51.0555 193.869 51.9345 194.045 52.8134 194.308C53.6924 194.484 54.4834 194.66 55.1866 194.66C58.0872 194.923 59.933 194.484 61.0756 193.781C62.2183 193.078 62.7456 192.111 62.9214 191.408C63.0972 190.705 63.0972 190.09 63.0972 190.09C63.0972 190.09 62.9214 190.002 62.6577 189.826C62.3941 189.65 61.9546 189.386 61.3393 189.035C60.8119 188.771 60.1088 188.42 59.3177 188.156C58.5266 187.892 57.7356 187.541 56.7687 187.277C55.8898 187.013 54.835 186.926 53.7803 186.838C52.7255 186.75 51.6708 186.75 50.4402 187.014C48.2428 187.453 45.7818 188.42 43.1449 190.529Z" fill="#00826C"/>
<path d="M60.1085 170.842C60.3722 171.281 60.7238 171.809 60.9875 172.248C61.2512 172.687 61.5149 173.127 61.7786 173.566C62.3059 174.357 62.7454 175.236 63.1849 175.939C63.6244 176.642 63.976 177.345 64.3275 178.049C64.6791 178.752 64.9428 179.367 65.2065 179.894C66.1734 182.179 66.437 183.937 66.3491 185.255C66.1733 186.574 65.646 187.453 65.1186 187.98C64.5912 188.507 64.0639 188.771 64.0639 188.771C64.0639 188.771 63.8881 188.683 63.6244 188.507C63.3607 188.331 62.9212 188.068 62.3938 187.628C61.9544 187.277 61.3391 186.749 60.8117 186.222C60.2843 185.695 59.757 184.992 59.2296 184.201C58.7901 183.41 58.2627 182.619 57.999 181.652C57.7354 180.685 57.5596 179.631 57.5596 178.488C57.5596 176.203 58.2627 173.654 60.1085 170.842Z" fill="#00826C"/>
<path d="M32.158 179.543C36.9043 183.147 40.6838 184.729 43.4965 185.52C46.3092 186.223 48.2429 186.047 49.4734 185.52C50.704 184.992 51.3192 184.201 51.6708 183.498C52.0224 182.795 52.0224 182.268 52.0224 182.268C52.0224 182.268 51.495 181.653 50.4403 180.949C49.3855 180.246 47.9792 179.28 46.2213 178.576C45.3423 178.225 44.3755 177.873 43.4086 177.698C42.3539 177.434 41.2991 177.346 40.0686 177.346C37.6954 177.258 35.0585 177.873 32.158 179.543Z" fill="#00826C"/>
<path d="M51.9343 162.669C53.7801 166.8 55.0985 169.876 55.7138 172.337C56.3291 174.797 56.3291 176.555 55.9775 177.786C55.6259 179.104 54.9228 179.895 54.3075 180.334C53.6922 180.774 53.1648 180.862 53.1648 180.862C53.1648 180.862 52.5496 180.422 51.6706 179.543C50.7917 178.665 49.8248 177.346 49.0337 175.676C48.6822 174.885 48.4185 173.919 48.2427 172.952C48.0669 171.985 48.0669 170.93 48.2427 169.788C48.5943 167.503 49.649 165.13 51.9343 162.669Z" fill="#00826C"/>
<path d="M23.0166 167.064C25.1261 169.174 26.9719 170.755 28.7298 171.986C29.6088 172.601 30.3998 173.128 31.1909 173.568C31.982 174.007 32.6851 174.359 33.3883 174.623C34.7067 175.238 35.8494 175.501 36.8162 175.589C37.7831 175.677 38.5741 175.677 39.2773 175.501C40.5957 175.15 41.2989 174.447 41.7384 173.832C42.1779 173.216 42.2658 172.601 42.2658 172.601C42.2658 172.601 41.7384 171.986 40.8594 171.107C39.9805 170.228 38.7499 169.086 37.0799 168.119C36.2889 167.592 35.4099 167.152 34.3551 166.801C33.8278 166.625 33.3004 166.449 32.773 166.273C32.2457 166.097 31.7183 166.01 31.103 165.922C28.8177 165.57 26.093 165.834 23.0166 167.064Z" fill="#00826C"/>
<path d="M44.9904 153.265C45.6057 155.374 46.1331 157.307 46.4846 158.977C46.6604 159.768 46.8362 160.559 46.9241 161.35C47.0999 162.053 47.1878 162.757 47.1878 163.372C47.2757 164.602 47.2757 165.657 47.1878 166.624C47.0999 167.502 46.9241 168.293 46.6604 168.821C46.1331 170.051 45.342 170.666 44.6388 171.018C43.9357 171.37 43.4083 171.37 43.4083 171.37C43.4083 171.37 42.793 170.842 42.0899 169.788C41.3867 168.733 40.5956 167.327 40.0683 165.569C39.8046 164.69 39.7167 163.723 39.7167 162.757C39.7167 162.229 39.7167 161.79 39.8046 161.262C39.8925 160.735 39.9804 160.208 40.1562 159.68C41.0351 157.571 42.4414 155.374 44.9904 153.265Z" fill="#00826C"/>
<path d="M15.7213 153.265C19.1492 158.098 22.3135 160.735 24.7746 162.317C26.0051 163.108 27.1478 163.547 28.0267 163.811C28.9936 164.075 29.7846 164.163 30.4878 164.075C31.8062 163.899 32.6852 163.284 33.2126 162.756C33.7399 162.229 33.9157 161.702 33.9157 161.702C33.9157 161.702 33.4762 160.999 32.7731 159.944C32.0699 158.889 30.9273 157.659 29.5209 156.429C28.8178 155.813 27.9388 155.198 27.0599 154.759C26.1809 154.231 25.1262 153.792 23.9835 153.44C22.8409 153.089 21.6103 152.913 20.204 152.825C18.8856 152.737 17.3913 152.913 15.7213 153.265Z" fill="#00826C"/>
<path d="M39.6289 142.982C40.2442 147.465 40.5079 150.804 40.3321 153.265C40.2442 154.496 40.1563 155.55 39.8926 156.429C39.6289 157.308 39.3652 158.011 39.0137 158.539C38.3105 159.681 37.4315 160.208 36.7284 160.472C36.0252 160.736 35.4099 160.648 35.4099 160.648C35.4099 160.648 34.8826 160.033 34.3552 158.89C33.8278 157.748 33.2125 156.253 33.0367 154.408C32.9489 153.529 32.9489 152.562 33.0367 151.595C33.2125 150.629 33.4762 149.574 34.0036 148.607C34.531 147.64 35.1462 146.586 36.1131 145.707C36.9921 144.74 38.1347 143.861 39.6289 142.982Z" fill="#00826C"/>
<path d="M10.7112 138.588C12.0296 141.225 13.4359 143.334 14.6665 145.004C15.9849 146.674 17.2155 147.904 18.2702 148.871C20.5555 150.717 22.3134 151.332 23.6319 151.42C24.9503 151.508 25.9171 150.98 26.5324 150.541C27.1477 150.014 27.4114 149.574 27.4114 149.574C27.4114 149.574 27.1477 148.783 26.5324 147.729C26.2687 147.201 25.8292 146.586 25.3898 145.883C24.9503 145.18 24.4229 144.477 23.8076 143.774C23.4561 143.422 23.1924 143.07 22.7529 142.719C22.4013 142.367 22.0497 142.016 21.6103 141.664C20.8192 141.049 19.8523 140.434 18.7976 139.907C17.7428 139.379 16.5123 139.028 15.1939 138.764C13.8754 138.588 12.3812 138.5 10.7112 138.588Z" fill="#00826C"/>
<path d="M35.7615 131.996C35.6736 134.281 35.6736 136.215 35.4978 137.885C35.4099 139.554 35.2341 141.049 34.8825 142.279C34.443 144.74 33.652 146.322 32.773 147.289C31.8941 148.255 30.9272 148.695 30.224 148.783C29.433 148.958 28.9056 148.783 28.9056 148.783C28.9056 148.783 28.554 148.08 28.1145 146.937C27.9388 146.322 27.763 145.707 27.5872 144.916C27.4993 144.125 27.4114 143.246 27.4114 142.367C27.4114 141.927 27.4993 141.488 27.4993 140.961C27.5872 140.521 27.6751 139.994 27.8509 139.554C28.1145 138.588 28.6419 137.621 29.2572 136.742C29.8725 135.863 30.7514 134.984 31.8062 134.193C32.9488 133.314 34.2672 132.611 35.7615 131.996Z" fill="#00826C"/>
<path d="M7.89856 123.296C8.42593 124.702 8.86541 125.933 9.30489 127.163C9.83226 128.305 10.3596 129.36 10.7991 130.239C11.0628 130.678 11.3265 131.118 11.5023 131.557C11.766 131.997 12.0297 132.348 12.2933 132.7C12.8207 133.403 13.2602 134.018 13.7876 134.633C14.7544 135.776 15.6334 136.479 16.5123 137.006C17.3034 137.534 18.0945 137.797 18.7097 137.973C20.0282 138.237 20.995 137.885 21.6982 137.534C22.4013 137.182 22.665 136.655 22.665 136.655C22.665 136.655 22.4892 135.864 22.0498 134.721C21.7861 134.106 21.6103 133.403 21.2587 132.7C20.9071 131.997 20.4676 131.206 19.9403 130.415C19.4129 129.624 18.8855 128.833 18.0945 128.042C17.3913 127.251 16.5123 126.548 15.5455 125.845C13.6997 124.526 11.2386 123.56 7.89856 123.296Z" fill="#00826C"/>
<path d="M33.7401 120.57C33.5643 121.713 33.3885 122.68 33.1248 123.646C32.949 124.613 32.7732 125.492 32.5974 126.371C32.5095 126.81 32.4216 127.162 32.2459 127.601C32.158 127.953 32.0701 128.392 31.9822 128.744C31.8064 129.447 31.5427 130.062 31.3669 130.677C30.9274 131.82 30.4879 132.787 29.9606 133.578C29.5211 134.369 28.9937 134.896 28.4663 135.335C27.4116 136.214 26.4447 136.478 25.6537 136.478C24.8626 136.478 24.3352 136.302 24.3352 136.302C24.3352 136.302 24.0716 135.511 23.8958 134.369C23.8079 133.753 23.72 133.05 23.72 132.259C23.72 131.468 23.8079 130.59 23.9837 129.711C24.1594 128.832 24.511 127.865 24.8626 126.986C25.3021 126.107 25.8295 125.228 26.6205 124.437C28.2027 122.68 30.4879 121.361 33.7401 120.57Z" fill="#00826C"/>
<path d="M7.37109 107.827C7.63478 109.321 7.98636 110.64 8.25005 111.782C8.60163 113.013 8.95322 114.067 9.3048 115.122C9.65638 116.089 10.008 116.967 10.4474 117.758C10.8869 118.549 11.2385 119.253 11.5901 119.868C12.3811 121.098 13.0843 121.977 13.8754 122.68C14.5785 123.295 15.2817 123.735 15.9849 123.999C17.2154 124.438 18.2702 124.262 18.9733 123.999C19.6765 123.735 20.116 123.295 20.116 123.295C20.116 123.295 20.116 122.504 19.8523 121.274C19.6765 120.044 19.237 118.374 18.4459 116.704C18.0944 115.825 17.567 114.946 17.0396 114.067C16.4243 113.188 15.7212 112.309 14.8422 111.518C12.9964 109.936 10.6232 108.53 7.37109 107.827Z" fill="#00826C"/>
<path d="M33.3004 108.97C32.9488 110.024 32.5972 111.079 32.2456 111.958C31.894 112.925 31.6303 113.716 31.2788 114.507C31.0151 115.298 30.5756 116.001 30.3119 116.704C30.0482 117.407 29.6966 117.934 29.433 118.549C28.8177 119.692 28.2024 120.571 27.5871 121.186C26.9719 121.889 26.4445 122.329 25.8292 122.68C24.6866 123.383 23.6318 123.471 22.9287 123.383C22.1376 123.295 21.6981 123.032 21.6981 123.032C21.6981 123.032 21.5223 122.241 21.5223 121.01C21.5223 119.78 21.6981 118.11 22.3134 116.44C22.665 115.561 23.1045 114.682 23.6318 113.891C24.1592 113.1 24.8624 112.309 25.7413 111.606C27.5871 110.2 30.0482 109.233 33.3004 108.97Z" fill="#00826C"/>
<path d="M9.21704 92.3584C9.30494 95.3466 9.56862 97.8074 10.0081 99.8289C10.2718 100.884 10.4476 101.762 10.7113 102.641C10.8871 103.169 10.975 103.52 11.1507 103.872C11.3265 104.223 11.4144 104.575 11.5902 104.926C12.2055 106.245 12.8208 107.211 13.436 108.002C14.0513 108.793 14.6666 109.233 15.2818 109.584C16.5124 110.2 17.4792 110.2 18.2703 110.024C18.9735 109.848 19.5008 109.497 19.5008 109.497C19.5008 109.497 19.5008 109.321 19.5008 108.969C19.5008 108.618 19.5008 108.09 19.5008 107.475C19.5008 106.245 19.2371 104.575 18.7977 102.729C18.2703 100.884 17.4792 98.95 15.985 97.1043C14.4029 95.2587 12.3813 93.5888 9.21704 92.3584Z" fill="#00826C"/>
<path d="M34.7067 97.3683C33.652 99.3897 32.773 101.06 31.894 102.554C31.4546 103.257 31.103 103.96 30.6635 104.575C30.4877 104.839 30.224 105.19 30.0482 105.454C29.8724 105.718 29.6967 105.981 29.5209 106.245C28.7298 107.212 28.0266 108.003 27.3235 108.618C26.6203 109.233 26.005 109.585 25.3898 109.848C24.1592 110.376 23.1045 110.288 22.4013 110.112C21.6981 109.936 21.2587 109.585 21.2587 109.585C21.2587 109.585 21.2587 109.409 21.2587 109.057C21.2587 108.706 21.2587 108.178 21.4345 107.563C21.6102 106.333 21.9618 104.751 22.8408 103.081C23.6319 101.499 25.0382 99.917 26.9719 98.7745C28.8177 97.7198 31.4546 97.1925 34.7067 97.3683Z" fill="#00826C"/>
<path d="M13.348 77.418C13.2602 78.1211 13.1723 78.8242 13.0844 79.5273C12.9965 80.2304 12.9965 80.8456 12.9965 81.4608C12.9965 82.076 12.9965 82.6912 12.9086 83.3064C12.9086 83.9217 12.9086 84.449 12.9965 84.9763C13.0844 86.031 13.1723 86.9977 13.2602 87.8766C13.4359 88.7555 13.6117 89.5465 13.7875 90.2496C13.9633 90.9527 14.227 91.5679 14.4028 92.0952C14.6665 92.6226 14.9302 93.1499 15.106 93.5014C15.6333 94.3803 16.1607 94.9076 16.6881 95.3471C17.7428 96.1381 18.7976 96.3138 19.5886 96.226C20.3797 96.1381 20.8192 95.8744 20.8192 95.8744C20.8192 95.8744 20.995 95.0834 21.1708 93.853C21.2587 93.2378 21.3466 92.5347 21.3466 91.6558C21.3466 90.8648 21.2587 89.898 21.1708 89.0192C21.0829 88.0524 20.9071 87.0856 20.5555 86.1189C20.2039 85.1521 19.8523 84.0974 19.2371 83.0428C18.0944 81.0214 16.2486 79.0878 13.348 77.418Z" fill="#00826C"/>
<path d="M37.7831 86.207C37.0799 87.0858 36.4647 87.9647 35.9373 88.7557C35.322 89.5467 34.7946 90.2498 34.2673 90.9529C33.7399 91.656 33.2125 92.1833 32.6851 92.7985C32.2457 93.3259 31.7183 93.8532 31.2788 94.2926C30.8393 94.7321 30.3999 95.0836 29.9604 95.4352C29.5209 95.7867 29.1693 96.0504 28.8177 96.3141C28.0267 96.7535 27.3235 97.105 26.7082 97.2808C25.3898 97.6324 24.423 97.3687 23.7198 97.105C23.0166 96.7535 22.665 96.4019 22.665 96.4019C22.665 96.4019 22.7529 95.611 23.1045 94.4684C23.2803 93.8532 23.544 93.238 23.8956 92.447C24.2472 91.7439 24.5987 90.9529 25.214 90.2498C25.7414 89.5467 26.4446 88.8436 27.2356 88.2284C28.0267 87.6132 28.9935 87.0858 29.9604 86.6464C31.8941 85.6796 34.531 85.5039 37.7831 86.207Z" fill="#00826C"/>
<path d="M19.6765 63.1807C18.8855 65.9931 18.3581 68.4539 18.1823 70.5632C17.9186 72.6725 18.0065 74.4303 18.1823 75.8365C18.2702 76.5396 18.3581 77.2427 18.5339 77.77C18.7097 78.3853 18.8855 78.8247 19.0612 79.352C19.4128 80.2309 19.8523 80.934 20.3797 81.3734C21.3465 82.3402 22.3134 82.6039 23.1044 82.6918C23.8955 82.7796 24.4229 82.6039 24.4229 82.6039C24.4229 82.6039 24.7745 81.9008 25.0382 80.6703C25.3018 79.4399 25.7413 77.77 25.7413 75.9244C25.7413 74.9576 25.7413 73.9909 25.5655 72.9362C25.4776 72.4089 25.3897 71.8816 25.2139 71.3542C25.0382 70.8269 24.9503 70.2996 24.6866 69.7722C23.8076 67.5751 22.3134 65.29 19.6765 63.1807Z" fill="#00826C"/>
<path d="M42.5295 75.5723C40.9474 77.1542 39.5411 78.5604 38.3105 79.703C36.9921 80.8455 35.9373 81.8123 34.8826 82.5154C34.3552 82.8669 33.9157 83.2185 33.3884 83.4822C32.9489 83.7458 32.5094 84.0095 32.0699 84.1853C31.2789 84.5368 30.4878 84.7126 29.7846 84.8005C28.4662 84.9762 27.4994 84.5368 26.8841 84.1853C26.2688 83.7458 25.9172 83.3064 25.9172 83.3064C25.9172 83.3064 26.093 82.5154 26.6204 81.4607C27.1478 80.3182 28.0267 78.912 29.2573 77.5937C29.8725 76.9785 30.6636 76.3632 31.5426 75.8359C31.982 75.5723 32.4215 75.3965 32.9489 75.1328C33.4763 74.957 34.0036 74.7813 34.531 74.6934C36.8163 74.166 39.4532 74.3418 42.5295 75.5723Z" fill="#00826C"/>
<path d="M28.1145 50.1729C25.6534 55.534 24.8624 59.6647 24.6866 62.4771C24.5987 65.3774 25.214 67.1352 26.005 68.2777C26.7961 69.4203 27.7629 69.7718 28.4661 69.9476C29.2572 70.1234 29.7845 70.0355 29.7845 70.0355C29.7845 70.0355 29.8724 69.8597 30.0482 69.5082C30.224 69.1566 30.4877 68.7172 30.7514 68.1898C31.0151 67.6625 31.2788 66.9594 31.5425 66.1684C31.8061 65.3774 32.0698 64.4986 32.2456 63.6197C32.4214 62.6529 32.5093 61.6861 32.5093 60.6315C32.5093 59.5768 32.3335 58.4343 32.1577 57.2918C31.5425 55.0067 30.3998 52.5458 28.1145 50.1729Z" fill="#00826C"/>
<path d="M48.8578 65.8168C45.2541 68.5413 42.5293 70.3869 40.244 71.5295C38.0467 72.672 36.2887 73.0236 34.9703 73.0236C33.6519 72.9357 32.7729 72.4963 32.1576 71.9689C31.5424 71.4416 31.3666 70.9143 31.3666 70.9143C31.3666 70.9143 31.4545 70.7385 31.6303 70.3869C31.8061 70.0354 32.0697 69.6838 32.4213 69.1565C32.7729 68.6292 33.2124 68.1019 33.7398 67.4866C34.2671 66.8714 34.9703 66.3441 35.6735 65.8168C36.3766 65.2895 37.2556 64.85 38.2224 64.4106C39.1893 64.059 40.1561 63.7954 41.2988 63.7075C43.4083 63.6196 45.9573 64.1469 48.8578 65.8168Z" fill="#00826C"/>
<path d="M38.3103 38.4834C35.0581 43.4051 33.6518 47.3601 33.1244 50.1725C32.8607 51.5787 32.7728 52.8091 32.8607 53.7759C32.9486 54.7426 33.2123 55.5336 33.476 56.1488C34.0913 57.3793 34.9702 57.9066 35.6734 58.1703C36.3765 58.4339 36.9039 58.4339 36.9039 58.4339C36.9039 58.4339 36.9918 58.2581 37.2555 57.9945C37.4313 57.7308 37.7829 57.2914 38.1345 56.7641C38.486 56.2367 38.8376 55.6215 39.1892 54.8305C39.5408 54.1274 39.8924 53.3364 40.244 52.3697C40.4198 51.9302 40.5076 51.4908 40.6834 50.9635C40.7713 50.4361 40.9471 49.9967 41.035 49.4694C41.2108 48.4147 41.2108 47.2722 41.1229 46.1296C41.035 43.8446 40.244 41.2079 38.3103 38.4834Z" fill="#00826C"/>
<path d="M56.5047 57.0285C55.5379 57.5558 54.571 58.0832 53.692 58.5226C52.8131 58.962 52.022 59.4015 51.231 59.753C50.4399 60.1046 49.7367 60.4561 49.0336 60.7198C48.3304 60.9835 47.7151 61.2471 47.0999 61.4229C45.9572 61.8623 44.9025 62.0381 43.9356 62.126C43.0567 62.2139 42.2656 62.2139 41.6503 62.0381C40.3319 61.7745 39.5408 61.1592 39.0135 60.544C38.4861 59.9288 38.3982 59.4015 38.3982 59.4015C38.3982 59.4015 38.4861 59.2257 38.6619 58.962C38.8377 58.6984 39.1893 58.2589 39.6287 57.8195C40.0682 57.3801 40.5956 56.8527 41.2109 56.3254C41.8261 55.7981 42.5293 55.3586 43.4082 54.9192C43.8477 54.7434 44.1993 54.4798 44.6388 54.304C45.0783 54.1282 45.6056 54.0403 46.0451 53.8645C47.012 53.6888 48.0667 53.6009 49.2094 53.6888C51.4947 54.0403 53.9557 55.0071 56.5047 57.0285Z" fill="#00826C"/>
<path d="M50.2642 28.4648C48.2426 30.662 46.8362 32.6835 45.6936 34.4412C44.6389 36.2869 43.8478 37.7809 43.4083 39.1871C42.9688 40.5934 42.7051 41.7359 42.6173 42.7027C42.5294 43.6694 42.7051 44.4604 42.8809 45.1635C43.3204 46.4818 44.1115 47.097 44.7267 47.5365C45.4299 47.888 45.9573 47.9759 45.9573 47.9759C45.9573 47.9759 46.1331 47.8001 46.3968 47.6244C46.6605 47.3607 47.012 47.0092 47.4515 46.5697C48.3305 45.6908 49.2973 44.2846 50.1763 42.6148C51.0552 40.9449 51.7584 38.9235 51.9342 36.5505C52.0221 34.1775 51.6705 31.5409 50.2642 28.4648Z" fill="#00826C"/>
<path d="M65.3821 49.5572C63.2726 50.3482 61.4268 50.9634 59.7568 51.4029C58.1747 51.9302 56.6805 52.1939 55.4499 52.4575C54.2194 52.6333 53.1646 52.7212 52.2857 52.7212C51.4067 52.7212 50.6157 52.5454 50.0004 52.2817C48.7699 51.8423 48.0667 51.0513 47.6272 50.4361C47.1877 49.8209 47.1877 49.2057 47.1877 49.2057C47.1877 49.2057 47.2756 49.0299 47.5393 48.7662C47.803 48.5026 48.1546 48.151 48.5941 47.7995C49.5609 47.0964 50.9673 46.1296 52.7252 45.5144C54.3952 44.8992 56.5047 44.7234 58.7021 45.2507C60.8995 45.778 63.1848 47.1842 65.3821 49.5572Z" fill="#00826C"/>
<path d="M63.4488 20.3789C62.9214 20.8183 62.3061 21.3457 61.8667 21.7851C61.3393 22.2245 60.8998 22.664 60.4603 23.1034C59.5814 23.9823 58.7903 24.7733 58.0871 25.6522C57.384 26.4432 56.8566 27.2342 56.3292 27.9373C55.8019 28.6404 55.4503 29.3435 55.0987 30.0466C53.6924 32.5953 53.5166 34.5288 53.6924 35.8472C53.956 37.1655 54.5713 37.9565 55.1866 38.4838C55.8019 38.9232 56.3292 39.099 56.3292 39.099C56.3292 39.099 57.0324 38.6596 57.9992 37.8686C58.4387 37.4291 59.054 36.9897 59.5814 36.3745C60.1087 35.7593 60.724 35.0562 61.2514 34.3531C61.7788 33.5621 62.3061 32.7711 62.8335 31.8043C63.273 30.8376 63.7125 29.8708 63.9762 28.6404C64.0641 28.0251 64.2398 27.4978 64.2398 26.7947C64.3277 26.1795 64.3277 25.5643 64.3277 24.8612C64.2398 23.455 63.9762 21.9609 63.4488 20.3789Z" fill="#00826C"/>
<path d="M75.3146 43.4933C74.172 43.669 73.2051 43.9327 72.2383 44.1085C71.2714 44.2843 70.3046 44.3721 69.5135 44.5479C68.6345 44.6358 67.8435 44.7237 67.1403 44.8116C66.4372 44.8995 65.734 44.8995 65.1187 44.8995C62.5697 44.8995 60.8997 44.5479 59.7571 43.9327C58.6144 43.3175 57.9992 42.4386 57.7355 41.7355C57.4718 41.0324 57.4718 40.5051 57.4718 40.5051C57.4718 40.5051 58.0871 39.9778 59.1418 39.3625C59.6692 39.0989 60.2845 38.7473 61.0755 38.4837C61.7787 38.22 62.6576 37.9563 63.5366 37.7806C64.4156 37.6048 65.3824 37.5169 66.3493 37.6048C67.3161 37.6927 68.3709 37.9563 69.4256 38.3958C69.953 38.5716 70.4804 38.8352 71.0077 39.1868C71.5351 39.5383 72.0625 39.8899 72.502 40.3293C73.3809 41.0324 74.4357 42.0871 75.3146 43.4933Z" fill="#00826C"/>
<path d="M84.104 25.9154C79.0939 25.6517 75.0507 26.4427 71.8865 27.4973C71.0954 27.761 70.3922 28.1126 69.6891 28.3762C68.9859 28.6399 68.3706 28.9914 67.8433 29.343C67.3159 29.6945 66.7885 30.0461 66.2611 30.3097C65.8217 30.6613 65.3822 31.0128 65.0306 31.3644C63.4485 32.6827 62.6574 34.001 62.2179 34.9678C61.7784 35.8467 61.6906 36.4619 61.6906 36.4619C61.6906 36.4619 62.2179 36.6377 63.2727 36.6377C63.8 36.6377 64.4153 36.5498 65.1185 36.4619C65.8216 36.374 66.7006 36.1982 67.5796 35.9346C68.019 35.7588 68.5464 35.583 69.0738 35.4072C69.6012 35.2315 70.1285 34.9678 70.6559 34.792C71.1833 34.5284 71.7986 34.2647 72.4138 33.9131C73.0291 33.5616 73.6444 33.21 74.3475 32.8585C76.9844 31.1886 80.1487 28.9035 84.104 25.9154Z" fill="#00826C"/>
<path d="M161.892 170.843C161.628 171.282 161.277 171.81 161.013 172.249C160.749 172.688 160.486 173.128 160.222 173.567C159.695 174.358 159.255 175.237 158.816 175.94C158.376 176.643 158.025 177.346 157.673 178.05C157.321 178.753 157.058 179.368 156.794 179.895C155.827 182.18 155.563 183.938 155.651 185.256C155.827 186.575 156.355 187.454 156.882 187.981C157.409 188.508 157.937 188.772 157.937 188.772C157.937 188.772 158.112 188.684 158.376 188.508C158.64 188.332 159.079 188.069 159.607 187.629C160.046 187.278 160.661 186.75 161.189 186.223C161.716 185.696 162.244 184.993 162.771 184.202C163.21 183.411 163.738 182.62 164.001 181.653C164.265 180.686 164.441 179.632 164.441 178.489C164.529 176.204 163.738 173.655 161.892 170.843Z" fill="#00826C"/>
<path d="M178.856 190.529C178.24 190.881 177.537 191.232 177.01 191.496C176.395 191.759 175.779 192.023 175.252 192.287C174.109 192.814 173.055 193.254 172 193.517C170.945 193.869 170.066 194.044 169.187 194.308C168.308 194.484 167.517 194.66 166.814 194.66C163.913 194.923 162.068 194.484 160.925 193.781C159.782 193.078 159.255 192.111 159.079 191.408C158.903 190.705 158.903 190.09 158.903 190.09C158.903 190.09 159.079 190.002 159.343 189.826C159.606 189.65 160.046 189.386 160.661 189.035C161.189 188.771 161.892 188.42 162.683 188.156C163.474 187.892 164.265 187.541 165.232 187.277C166.111 187.013 167.166 186.926 168.22 186.838C169.275 186.75 170.33 186.75 171.56 187.014C173.758 187.453 176.307 188.42 178.856 190.529Z" fill="#00826C"/>
<path d="M170.154 162.669C168.308 166.8 166.99 169.876 166.374 172.337C165.759 174.797 165.759 176.555 166.111 177.786C166.462 179.104 167.165 179.895 167.781 180.334C168.396 180.774 168.923 180.862 168.923 180.862C168.923 180.862 169.539 180.422 170.417 179.543C171.296 178.665 172.263 177.346 173.054 175.676C173.406 174.885 173.67 173.919 173.845 172.952C174.021 171.985 174.021 170.93 173.845 169.788C173.406 167.503 172.351 165.13 170.154 162.669Z" fill="#00826C"/>
<path d="M189.843 179.544C185.096 183.148 181.317 184.73 178.504 185.521C175.691 186.224 173.758 186.048 172.527 185.521C171.297 184.993 170.681 184.202 170.33 183.499C169.978 182.796 169.978 182.269 169.978 182.269C169.978 182.269 170.506 181.654 171.56 180.95C172.615 180.247 174.021 179.281 175.779 178.577C176.658 178.226 177.625 177.874 178.592 177.699C179.647 177.435 180.702 177.347 181.932 177.347C184.305 177.259 186.942 177.874 189.843 179.544Z" fill="#00826C"/>
<path d="M177.01 153.266C176.394 155.375 175.867 157.308 175.515 158.978C175.34 159.769 175.164 160.56 175.076 161.351C174.9 162.054 174.812 162.758 174.812 163.373C174.724 164.603 174.724 165.658 174.812 166.625C174.9 167.503 175.076 168.294 175.34 168.822C175.867 170.052 176.658 170.667 177.361 171.019C178.064 171.371 178.592 171.371 178.592 171.371C178.592 171.371 179.207 170.843 179.91 169.789C180.613 168.734 181.404 167.328 181.932 165.57C182.195 164.691 182.283 163.724 182.283 162.758C182.283 162.23 182.283 161.791 182.195 161.263C182.108 160.736 182.02 160.209 181.844 159.681C181.053 157.572 179.647 155.375 177.01 153.266Z" fill="#00826C"/>
<path d="M199.072 167.063C196.962 169.173 195.117 170.755 193.359 171.985C192.48 172.6 191.689 173.127 190.898 173.567C190.107 174.006 189.403 174.358 188.7 174.622C187.382 175.237 186.239 175.5 185.272 175.588C184.305 175.676 183.514 175.676 182.811 175.5C181.493 175.149 180.79 174.446 180.35 173.831C179.911 173.215 179.823 172.6 179.823 172.6C179.823 172.6 180.35 171.985 181.229 171.106C182.108 170.227 183.339 169.085 185.009 168.118C185.8 167.591 186.679 167.151 187.733 166.8C188.261 166.624 188.788 166.448 189.315 166.272C189.843 166.096 190.37 166.009 190.986 165.921C193.271 165.569 195.996 165.833 199.072 167.063Z" fill="#00826C"/>
<path d="M182.459 142.982C181.844 147.465 181.58 150.804 181.756 153.265C181.844 154.496 181.932 155.55 182.196 156.429C182.459 157.308 182.723 158.011 183.075 158.539C183.778 159.681 184.657 160.208 185.36 160.472C186.063 160.736 186.678 160.648 186.678 160.648C186.678 160.648 187.206 160.033 187.733 158.89C188.26 157.748 188.876 156.253 189.051 154.408C189.139 153.529 189.139 152.562 189.051 151.595C188.876 150.629 188.612 149.574 188.085 148.607C187.557 147.64 186.942 146.586 185.975 145.707C185.008 144.74 183.866 143.861 182.459 142.982Z" fill="#00826C"/>
<path d="M206.279 153.266C202.851 158.099 199.687 160.736 197.226 162.318C195.996 163.109 194.853 163.548 193.974 163.812C193.007 164.076 192.216 164.164 191.513 164.076C190.194 163.9 189.315 163.285 188.788 162.757C188.261 162.23 188.085 161.703 188.085 161.703C188.085 161.703 188.524 161 189.228 159.945C189.931 158.89 191.073 157.66 192.48 156.43C193.183 155.814 194.062 155.199 194.941 154.76C195.82 154.232 196.875 153.793 198.017 153.441C199.16 153.09 200.39 152.914 201.797 152.826C203.203 152.738 204.609 152.914 206.279 153.266Z" fill="#00826C"/>
<path d="M186.239 131.996C186.327 134.281 186.327 136.215 186.502 137.885C186.59 139.554 186.766 141.049 187.118 142.279C187.557 144.74 188.348 146.322 189.227 147.289C190.106 148.255 191.073 148.695 191.776 148.783C192.567 148.958 193.095 148.783 193.095 148.783C193.095 148.783 193.446 148.08 193.886 146.937C194.061 146.322 194.237 145.707 194.413 144.916C194.501 144.125 194.589 143.246 194.589 142.367C194.589 141.927 194.501 141.488 194.501 140.961C194.413 140.521 194.325 139.994 194.149 139.554C193.886 138.588 193.358 137.621 192.743 136.742C192.128 135.863 191.249 134.984 190.194 134.193C189.051 133.314 187.733 132.611 186.239 131.996Z" fill="#00826C"/>
<path d="M211.377 138.587C210.059 141.224 208.652 143.333 207.422 145.003C206.103 146.673 204.873 147.903 203.818 148.87C201.533 150.716 199.775 151.331 198.456 151.419C197.138 151.507 196.171 150.979 195.556 150.54C194.94 150.013 194.677 149.573 194.677 149.573C194.677 149.573 194.94 148.782 195.556 147.728C195.819 147.2 196.259 146.585 196.698 145.882C197.138 145.179 197.665 144.476 198.28 143.773C198.632 143.421 198.896 143.069 199.335 142.718C199.687 142.366 200.038 142.015 200.478 141.663C201.269 141.048 202.236 140.433 203.291 139.906C204.345 139.378 205.576 139.027 206.894 138.763C208.213 138.587 209.707 138.499 211.377 138.587Z" fill="#00826C"/>
<path d="M188.348 120.571C188.524 121.714 188.7 122.681 188.964 123.647C189.139 124.614 189.315 125.493 189.491 126.372C189.579 126.811 189.667 127.163 189.843 127.602C189.931 127.954 190.018 128.393 190.106 128.745C190.282 129.448 190.546 130.063 190.722 130.678C191.161 131.821 191.601 132.788 192.128 133.579C192.567 134.37 193.095 134.897 193.622 135.336C194.677 136.215 195.644 136.479 196.435 136.479C197.226 136.479 197.753 136.303 197.753 136.303C197.753 136.303 198.017 135.512 198.193 134.37C198.281 133.754 198.369 133.051 198.369 132.26C198.369 131.469 198.281 130.591 198.105 129.712C197.929 128.833 197.577 127.866 197.226 126.987C196.786 126.108 196.259 125.229 195.468 124.438C193.798 122.681 191.513 121.362 188.348 120.571Z" fill="#00826C"/>
<path d="M214.19 123.296C213.662 124.702 213.223 125.933 212.783 127.163C212.256 128.305 211.729 129.36 211.289 130.239C211.025 130.678 210.762 131.118 210.586 131.557C210.322 131.997 210.058 132.348 209.795 132.7C209.267 133.403 208.828 134.018 208.301 134.633C207.334 135.776 206.455 136.479 205.576 137.006C204.785 137.534 203.994 137.797 203.378 137.973C202.06 138.237 201.093 137.885 200.39 137.534C199.687 137.182 199.423 136.655 199.423 136.655C199.423 136.655 199.599 135.864 200.038 134.721C200.302 134.106 200.478 133.403 200.829 132.7C201.181 131.997 201.62 131.206 202.148 130.415C202.675 129.624 203.203 128.833 203.994 128.042C204.697 127.251 205.576 126.548 206.543 125.845C208.301 124.526 210.85 123.56 214.19 123.296Z" fill="#00826C"/>
<path d="M188.7 108.97C189.051 110.024 189.403 111.079 189.754 111.958C190.106 112.925 190.37 113.716 190.721 114.507C190.985 115.298 191.424 116.001 191.688 116.704C191.952 117.407 192.303 117.934 192.567 118.549C193.182 119.692 193.798 120.571 194.413 121.186C195.028 121.889 195.556 122.329 196.171 122.68C197.313 123.383 198.368 123.471 199.071 123.383C199.862 123.295 200.302 123.032 200.302 123.032C200.302 123.032 200.478 122.241 200.478 121.01C200.478 119.78 200.302 118.11 199.687 116.44C199.335 115.561 198.896 114.682 198.368 113.891C197.841 113.1 197.138 112.309 196.259 111.606C194.413 110.2 192.04 109.233 188.7 108.97Z" fill="#00826C"/>
<path d="M214.629 107.827C214.365 109.321 214.014 110.64 213.75 111.782C213.399 113.013 213.047 114.067 212.695 115.122C212.344 116.089 211.992 116.967 211.553 117.758C211.113 118.549 210.762 119.253 210.41 119.868C209.619 121.098 208.916 121.977 208.125 122.68C207.422 123.295 206.719 123.735 206.015 123.999C204.785 124.438 203.73 124.262 203.027 123.999C202.324 123.735 201.884 123.295 201.884 123.295C201.884 123.295 201.884 122.504 202.148 121.274C202.324 120.044 202.763 118.374 203.554 116.704C203.906 115.825 204.433 114.946 204.961 114.067C205.576 113.188 206.279 112.309 207.158 111.518C209.004 109.936 211.377 108.53 214.629 107.827Z" fill="#00826C"/>
<path d="M187.294 97.3692C188.348 99.3907 189.227 101.061 190.106 102.555C190.546 103.258 190.897 103.961 191.337 104.576C191.513 104.84 191.776 105.191 191.952 105.455C192.128 105.719 192.304 105.982 192.48 106.246C193.271 107.213 193.974 108.004 194.677 108.619C195.38 109.234 195.995 109.586 196.611 109.849C197.841 110.377 198.896 110.289 199.599 110.113C200.302 109.937 200.742 109.586 200.742 109.586C200.742 109.586 200.742 109.41 200.742 109.058C200.742 108.707 200.742 108.179 200.566 107.564C200.39 106.334 200.039 104.752 199.16 103.082C198.369 101.5 196.962 99.918 195.029 98.7754C193.183 97.7208 190.634 97.1935 187.294 97.3692Z" fill="#00826C"/>
<path d="M212.783 92.3594C212.695 95.3476 212.432 97.8084 211.992 99.8298C211.729 100.884 211.553 101.763 211.289 102.642C211.201 103.082 211.025 103.433 210.938 103.873C210.762 104.224 210.674 104.576 210.498 104.927C209.883 106.246 209.267 107.212 208.652 108.003C208.037 108.794 207.422 109.234 206.806 109.585C205.576 110.201 204.609 110.201 203.818 110.025C203.115 109.849 202.587 109.497 202.587 109.497C202.587 109.497 202.587 109.322 202.587 108.97C202.587 108.619 202.587 108.091 202.587 107.476C202.587 106.246 202.851 104.576 203.291 102.73C203.818 100.884 204.609 98.951 206.103 97.1053C207.597 95.2597 209.707 93.5898 212.783 92.3594Z" fill="#00826C"/>
<path d="M184.217 86.207C184.92 87.0858 185.536 87.9647 186.063 88.7557C186.678 89.5467 187.206 90.2498 187.733 90.9529C188.26 91.656 188.788 92.1833 189.315 92.7985C189.755 93.3259 190.282 93.8532 190.722 94.2926C191.161 94.7321 191.601 95.0836 192.04 95.4352C192.479 95.7867 192.831 96.0504 193.183 96.3141C193.974 96.7535 194.677 97.105 195.292 97.2808C196.611 97.6324 197.577 97.3687 198.281 97.105C198.984 96.7535 199.335 96.4019 199.335 96.4019C199.335 96.4019 199.247 95.611 198.896 94.4684C198.72 93.8532 198.456 93.238 198.105 92.447C197.753 91.7439 197.402 90.9529 196.786 90.2498C196.259 89.5467 195.556 88.8436 194.765 88.2284C193.974 87.6132 193.007 87.0858 192.04 86.6464C190.106 85.6796 187.469 85.5039 184.217 86.207Z" fill="#00826C"/>
<path d="M208.652 77.4189C208.74 78.122 208.828 78.8252 208.916 79.5283C209.004 80.2314 209.004 80.8466 209.004 81.4618C209.004 82.077 209.004 82.6922 209.092 83.3074C209.092 83.9226 209.092 84.45 209.004 84.9773C208.916 86.0319 208.828 86.9987 208.74 87.8776C208.564 88.7565 208.388 89.5475 208.213 90.2506C208.037 90.9537 207.773 91.5689 207.597 92.0962C207.334 92.6235 207.07 93.1509 206.894 93.5024C206.367 94.3813 205.839 94.9086 205.312 95.3481C204.257 96.139 203.203 96.3148 202.411 96.2269C201.62 96.139 201.181 95.8754 201.181 95.8754C201.181 95.8754 201.005 95.0844 200.829 93.854C200.741 93.2387 200.654 92.5356 200.654 91.6568C200.654 90.8658 200.741 89.899 200.829 89.0201C200.917 88.0534 201.093 87.0866 201.445 86.1198C201.796 85.1531 202.148 84.0984 202.763 83.0438C203.994 81.0223 205.752 79.0888 208.652 77.4189Z" fill="#00826C"/>
<path d="M179.471 75.5732C181.053 77.1552 182.459 78.5614 183.69 79.704C185.008 80.8465 186.063 81.8133 187.118 82.5164C187.645 82.8679 188.084 83.2195 188.612 83.4831C189.051 83.7468 189.491 84.0105 189.93 84.1862C190.721 84.5378 191.512 84.7136 192.216 84.8015C193.534 84.9772 194.501 84.5378 195.116 84.1862C195.731 83.7468 196.083 83.3074 196.083 83.3074C196.083 83.3074 195.907 82.5164 195.38 81.4617C194.852 80.3192 193.973 78.913 192.743 77.5946C192.128 76.9794 191.337 76.3642 190.458 75.8369C190.018 75.5732 189.579 75.3975 189.051 75.1338C188.524 74.958 187.997 74.7822 187.469 74.6943C185.184 74.167 182.635 74.3428 179.471 75.5732Z" fill="#00826C"/>
<path d="M202.324 63.1807C203.115 65.9931 203.642 68.4539 203.818 70.5632C204.081 72.6725 203.994 74.4303 203.818 75.8365C203.73 76.5396 203.642 77.2427 203.466 77.77C203.29 78.3853 203.115 78.8247 202.939 79.352C202.587 80.2309 202.148 80.934 201.62 81.3734C200.654 82.3402 199.687 82.6039 198.896 82.6918C198.105 82.7796 197.577 82.6039 197.577 82.6039C197.577 82.6039 197.226 81.9008 196.962 80.6703C196.698 79.4399 196.259 77.77 196.259 75.9244C196.259 74.9576 196.259 73.9909 196.435 72.9362C196.522 72.4089 196.61 71.8816 196.786 71.3542C196.962 70.8269 197.05 70.2996 197.314 69.7723C198.192 67.5751 199.775 65.29 202.324 63.1807Z" fill="#00826C"/>
<path d="M173.23 65.8168C176.834 68.5413 179.559 70.3869 181.844 71.5295C184.041 72.672 185.799 73.0236 187.118 73.0236C188.436 72.9357 189.315 72.4962 189.93 71.9689C190.546 71.4416 190.721 70.9143 190.721 70.9143C190.721 70.9143 190.634 70.7385 190.458 70.3869C190.282 70.0354 190.018 69.6838 189.667 69.1565C189.315 68.6292 188.876 68.1019 188.348 67.4866C187.821 66.8714 187.118 66.3441 186.415 65.8168C185.711 65.2895 184.832 64.85 183.866 64.4106C182.899 64.059 181.932 63.7954 180.789 63.7075C178.592 63.6196 176.131 64.1469 173.23 65.8168Z" fill="#00826C"/>
<path d="M193.973 50.1729C196.434 55.534 197.226 59.6647 197.401 62.4771C197.489 65.3774 196.874 67.1352 196.083 68.2777C195.292 69.4203 194.325 69.7718 193.622 69.9476C192.831 70.1234 192.303 70.0355 192.303 70.0355C192.303 70.0355 192.215 69.8597 192.04 69.5082C191.864 69.1566 191.6 68.7172 191.337 68.1898C191.073 67.6625 190.809 66.9594 190.545 66.1684C190.282 65.3774 190.018 64.4986 189.842 63.6197C189.667 62.6529 189.579 61.6861 189.579 60.6315C189.579 59.5768 189.754 58.4343 189.93 57.2918C190.458 55.0067 191.688 52.5458 193.973 50.1729Z" fill="#00826C"/>
<path d="M165.496 57.0285C166.462 57.5558 167.429 58.0832 168.308 58.5226C169.187 58.962 169.978 59.4015 170.769 59.753C171.56 60.1046 172.264 60.4561 172.967 60.7198C173.67 60.9835 174.285 61.2471 174.9 61.4229C176.043 61.8623 177.098 62.0381 178.065 62.126C178.944 62.2139 179.735 62.2139 180.35 62.0381C181.668 61.7745 182.459 61.1592 182.987 60.544C183.514 59.9288 183.602 59.4015 183.602 59.4015C183.602 59.4015 183.514 59.2257 183.338 58.962C183.163 58.6984 182.811 58.2589 182.372 57.8195C181.932 57.3801 181.405 56.8527 180.789 56.3254C180.174 55.7981 179.471 55.3586 178.592 54.9192C178.153 54.7434 177.801 54.4798 177.362 54.304C176.922 54.1282 176.395 54.0403 175.955 53.8645C174.988 53.6888 173.934 53.6009 172.791 53.6888C170.594 54.0403 168.132 55.0071 165.496 57.0285Z" fill="#00826C"/>
<path d="M183.69 38.4834C186.942 43.4051 188.349 47.3601 188.876 50.1725C189.14 51.5787 189.228 52.8091 189.14 53.7759C189.052 54.7426 188.788 55.5336 188.525 56.1488C187.909 57.3793 187.03 57.9066 186.327 58.1703C185.624 58.4339 185.097 58.4339 185.097 58.4339C185.097 58.4339 185.009 58.2581 184.745 57.9945C184.569 57.7308 184.218 57.2914 183.866 56.7641C183.514 56.2367 183.163 55.6215 182.811 54.8305C182.46 54.1274 182.108 53.3364 181.757 52.3697C181.581 51.9302 181.493 51.4908 181.317 50.9635C181.229 50.4361 181.053 49.9967 180.965 49.4694C180.79 48.4147 180.79 47.2722 180.878 46.1296C180.965 43.8446 181.757 41.2079 183.69 38.4834Z" fill="#00826C"/>
<path d="M156.618 49.5572C158.727 50.3482 160.573 50.9634 162.243 51.4029C163.825 51.9302 165.32 52.1939 166.55 52.4575C167.781 52.6333 168.835 52.7212 169.714 52.7212C170.593 52.7212 171.384 52.5454 172 52.2817C173.23 51.8423 173.933 51.0513 174.373 50.4361C174.812 49.8209 174.812 49.2057 174.812 49.2057C174.812 49.2057 174.724 49.0299 174.461 48.7662C174.197 48.5026 173.845 48.151 173.406 47.7995C172.439 47.0964 171.033 46.1296 169.275 45.5144C167.605 44.8992 165.495 44.7234 163.298 45.2507C161.188 45.778 158.903 47.1842 156.618 49.5572Z" fill="#00826C"/>
<path d="M171.824 28.4648C173.846 30.662 175.252 32.6835 176.395 34.4412C177.449 36.2869 178.24 37.7809 178.68 39.1871C179.119 40.5934 179.383 41.7359 179.471 42.7027C179.559 43.6694 179.383 44.4604 179.207 45.1635C178.768 46.4818 177.977 47.097 177.361 47.5365C176.658 47.888 176.131 47.9759 176.131 47.9759C176.131 47.9759 175.955 47.8001 175.691 47.6244C175.428 47.3607 175.076 47.0092 174.637 46.5697C173.758 45.6908 172.791 44.2846 171.912 42.6148C171.033 40.9449 170.33 38.9235 170.154 36.5505C169.978 34.1775 170.33 31.5409 171.824 28.4648Z" fill="#00826C"/>
<path d="M146.686 43.4933C147.828 43.669 148.795 43.9327 149.762 44.1085C150.729 44.2843 151.696 44.3722 152.487 44.5479C153.366 44.6358 154.157 44.7237 154.86 44.8116C155.563 44.8995 156.266 44.8995 156.882 44.8995C159.431 44.8995 161.101 44.5479 162.243 43.9327C163.386 43.3175 164.001 42.4386 164.265 41.7355C164.529 41.0324 164.529 40.5051 164.529 40.5051C164.529 40.5051 163.913 39.9778 162.859 39.3625C162.331 39.0989 161.716 38.7473 160.925 38.4837C160.222 38.22 159.343 37.9563 158.464 37.7806C157.585 37.6048 156.618 37.5169 155.651 37.6048C154.684 37.6927 153.63 37.9563 152.575 38.3958C152.047 38.5716 151.52 38.8352 150.993 39.1868C150.465 39.5383 149.938 39.8899 149.498 40.3293C148.619 41.0324 147.653 42.0871 146.686 43.4933Z" fill="#00826C"/>
<path d="M158.552 20.3789C159.079 20.8183 159.694 21.3457 160.134 21.7851C160.661 22.2245 161.101 22.664 161.54 23.1034C162.419 23.9823 163.21 24.7733 163.913 25.6522C164.617 26.4432 165.144 27.2342 165.671 27.9373C166.199 28.6404 166.55 29.3435 166.902 30.0466C168.308 32.5953 168.484 34.5288 168.308 35.8472C168.045 37.1655 167.429 37.9565 166.814 38.4838C166.199 38.9232 165.671 39.099 165.671 39.099C165.671 39.099 164.968 38.6596 164.001 37.8686C163.562 37.4291 162.947 36.9897 162.419 36.3745C161.892 35.7593 161.277 35.0562 160.749 34.3531C160.222 33.5621 159.694 32.7711 159.167 31.8043C158.728 30.8376 158.288 29.8708 158.024 28.6404C157.937 28.0251 157.761 27.4978 157.761 26.7947C157.673 26.1795 157.673 25.5643 157.673 24.8612C157.849 23.455 158.024 21.9609 158.552 20.3789Z" fill="#00826C"/>
<path d="M137.896 26.0038C141.851 28.992 145.016 31.2771 147.74 32.7712C148.443 33.2106 149.059 33.5622 149.674 33.8259C150.289 34.1774 150.905 34.4411 151.432 34.7047C151.959 34.9684 152.575 35.1442 153.014 35.32C153.541 35.4957 153.981 35.6715 154.508 35.8473C156.354 36.3746 157.848 36.5504 158.815 36.5504C159.87 36.5504 160.397 36.3746 160.397 36.3746C160.397 36.3746 160.309 35.8473 159.782 34.8805C159.518 34.4411 159.255 33.9137 158.727 33.2985C158.288 32.6833 157.673 32.0681 156.881 31.365C156.53 31.0134 156.09 30.6619 155.563 30.3103C155.124 29.9588 154.596 29.6072 153.981 29.3436C153.366 28.992 152.75 28.6405 152.135 28.3768C151.432 28.1132 150.729 27.7616 149.938 27.4979C146.949 26.4433 142.906 25.7402 137.896 26.0038Z" fill="#00826C"/>
<path d="M247.936 120.559H267.16V130.063H238V79.6629H247.936V120.559Z" fill="#2F3343"/>
<path d="M302.342 125.599C298.646 129.247 294.134 131.071 288.806 131.071C283.478 131.071 278.966 129.247 275.27 125.599C271.622 121.903 269.798 117.391 269.798 112.063C269.798 106.735 271.622 102.247 275.27 98.5989C278.966 94.9029 283.478 93.0549 288.806 93.0549C294.134 93.0549 298.646 94.9029 302.342 98.5989C306.038 102.247 307.886 106.735 307.886 112.063C307.886 117.391 306.038 121.903 302.342 125.599ZM281.822 119.191C283.694 121.063 286.022 121.999 288.806 121.999C291.59 121.999 293.918 121.063 295.79 119.191C297.662 117.319 298.598 114.943 298.598 112.063C298.598 109.183 297.662 106.807 295.79 104.935C293.918 103.063 291.59 102.127 288.806 102.127C286.022 102.127 283.694 103.063 281.822 104.935C279.998 106.807 279.086 109.183 279.086 112.063C279.086 114.943 279.998 117.319 281.822 119.191Z" fill="#2F3343"/>
<path d="M331.556 131.071C326.132 131.071 321.596 129.247 317.948 125.599C314.348 121.951 312.548 117.439 312.548 112.063C312.548 106.687 314.348 102.175 317.948 98.5269C321.596 94.8789 326.132 93.0549 331.556 93.0549C335.06 93.0549 338.252 93.8949 341.132 95.5749C344.012 97.2549 346.196 99.5109 347.684 102.343L339.692 107.023C338.972 105.535 337.868 104.359 336.38 103.495C334.94 102.631 333.308 102.199 331.484 102.199C328.7 102.199 326.396 103.135 324.572 105.007C322.748 106.831 321.836 109.183 321.836 112.063C321.836 114.895 322.748 117.247 324.572 119.119C326.396 120.943 328.7 121.855 331.484 121.855C333.356 121.855 335.012 121.447 336.452 120.631C337.94 119.767 339.044 118.591 339.764 117.103L347.828 121.711C346.244 124.543 344.012 126.823 341.132 128.551C338.252 130.231 335.06 131.071 331.556 131.071Z" fill="#2F3343"/>
<path d="M379.537 94.0629H388.825V130.063H379.537V125.815C376.753 129.319 372.841 131.071 367.801 131.071C363.001 131.071 358.873 129.247 355.417 125.599C352.009 121.903 350.305 117.391 350.305 112.063C350.305 106.735 352.009 102.247 355.417 98.5989C358.873 94.9029 363.001 93.0549 367.801 93.0549C372.841 93.0549 376.753 94.8069 379.537 98.3109V94.0629ZM362.401 119.407C364.273 121.279 366.649 122.215 369.529 122.215C372.409 122.215 374.785 121.279 376.657 119.407C378.577 117.487 379.537 115.039 379.537 112.063C379.537 109.087 378.577 106.663 376.657 104.791C374.785 102.871 372.409 101.911 369.529 101.911C366.649 101.911 364.273 102.871 362.401 104.791C360.529 106.663 359.593 109.087 359.593 112.063C359.593 115.039 360.529 117.487 362.401 119.407Z" fill="#2F3343"/>
<path d="M397.248 130.063V77.5029H406.536V130.063H397.248Z" fill="#2F3343"/>
<path d="M448.805 79.6629V89.1669H435.197V130.063H425.261V89.1669H411.725V79.6629H448.805Z" fill="#2F3343"/>
<path d="M458.637 100.255C459.501 97.9509 460.917 96.2229 462.885 95.0709C464.901 93.9189 467.133 93.3429 469.581 93.3429V103.711C466.749 103.375 464.205 103.951 461.949 105.439C459.741 106.927 458.637 109.399 458.637 112.855V130.063H449.349V94.0629H458.637V100.255Z" fill="#2F3343"/>
<path d="M501.037 94.0629H510.325V130.063H501.037V125.815C498.253 129.319 494.341 131.071 489.301 131.071C484.501 131.071 480.373 129.247 476.917 125.599C473.509 121.903 471.805 117.391 471.805 112.063C471.805 106.735 473.509 102.247 476.917 98.5989C480.373 94.9029 484.501 93.0549 489.301 93.0549C494.341 93.0549 498.253 94.8069 501.037 98.3109V94.0629ZM483.901 119.407C485.773 121.279 488.149 122.215 491.029 122.215C493.909 122.215 496.285 121.279 498.157 119.407C500.077 117.487 501.037 115.039 501.037 112.063C501.037 109.087 500.077 106.663 498.157 104.791C496.285 102.871 493.909 101.911 491.029 101.911C488.149 101.911 485.773 102.871 483.901 104.791C482.029 106.663 481.093 109.087 481.093 112.063C481.093 115.039 482.029 117.487 483.901 119.407Z" fill="#2F3343"/>
<path d="M546.036 79.6629H555.324V130.063H546.036V125.815C543.3 129.319 539.412 131.071 534.372 131.071C529.524 131.071 525.372 129.247 521.916 125.599C518.508 121.903 516.804 117.391 516.804 112.063C516.804 106.735 518.508 102.247 521.916 98.5989C525.372 94.9029 529.524 93.0549 534.372 93.0549C539.412 93.0549 543.3 94.8069 546.036 98.3109V79.6629ZM528.9 119.407C530.82 121.279 533.22 122.215 536.1 122.215C538.98 122.215 541.356 121.279 543.228 119.407C545.1 117.487 546.036 115.039 546.036 112.063C546.036 109.087 545.1 106.663 543.228 104.791C541.356 102.871 538.98 101.911 536.1 101.911C533.22 101.911 530.82 102.871 528.9 104.791C527.028 106.663 526.092 109.087 526.092 112.063C526.092 115.039 527.028 117.487 528.9 119.407Z" fill="#2F3343"/>
<path d="M571.666 115.879C572.914 120.391 576.298 122.647 581.818 122.647C585.37 122.647 588.058 121.447 589.882 119.047L597.37 123.367C593.818 128.503 588.586 131.071 581.674 131.071C575.722 131.071 570.946 129.271 567.346 125.671C563.746 122.071 561.946 117.535 561.946 112.063C561.946 106.639 563.722 102.127 567.274 98.5269C570.826 94.8789 575.386 93.0549 580.954 93.0549C586.234 93.0549 590.578 94.8789 593.986 98.5269C597.442 102.175 599.17 106.687 599.17 112.063C599.17 113.263 599.05 114.535 598.81 115.879H571.666ZM571.522 108.679H589.882C589.354 106.231 588.25 104.407 586.57 103.207C584.938 102.007 583.066 101.407 580.954 101.407C578.458 101.407 576.394 102.055 574.762 103.351C573.13 104.599 572.05 106.375 571.522 108.679Z" fill="#2F3343"/>
<path d="M642.878 131.071C637.262 131.071 632.654 129.487 629.054 126.319C625.454 123.151 623.654 118.903 623.654 113.575V79.6629H633.518V112.783C633.518 115.423 634.262 117.511 635.75 119.047C637.286 120.583 639.662 121.351 642.878 121.351C646.094 121.351 648.446 120.583 649.934 119.047C651.47 117.511 652.238 115.423 652.238 112.783V79.6629H662.174V113.575C662.174 118.903 660.374 123.151 656.774 126.319C653.174 129.487 648.542 131.071 642.878 131.071Z" fill="#2F3343"/>
<path d="M690.709 93.0549C694.645 93.0549 697.885 94.3749 700.429 97.0149C703.021 99.6549 704.317 103.303 704.317 107.959V130.063H695.029V109.111C695.029 106.711 694.381 104.887 693.085 103.639C691.789 102.343 690.061 101.695 687.901 101.695C685.501 101.695 683.581 102.439 682.141 103.927C680.701 105.415 679.981 107.647 679.981 110.623V130.063H670.693V94.0629H679.981V98.0949C682.237 94.7349 685.813 93.0549 690.709 93.0549Z" fill="#2F3343"/>
<path d="M716.856 89.7429C715.32 89.7429 713.976 89.1909 712.824 88.0869C711.72 86.9349 711.168 85.5909 711.168 84.0549C711.168 82.5189 711.72 81.1749 712.824 80.0229C713.976 78.8709 715.32 78.2949 716.856 78.2949C718.44 78.2949 719.784 78.8709 720.888 80.0229C722.04 81.1749 722.616 82.5189 722.616 84.0549C722.616 85.5909 722.04 86.9349 720.888 88.0869C719.784 89.1909 718.44 89.7429 716.856 89.7429ZM712.248 130.063V94.0629H721.536V130.063H712.248Z" fill="#2F3343"/>
<path d="M753.725 94.0629H763.949L750.269 130.063H739.685L726.005 94.0629H736.229L744.941 119.263L753.725 94.0629Z" fill="#2F3343"/>
<path d="M774.869 115.879C776.117 120.391 779.501 122.647 785.021 122.647C788.573 122.647 791.261 121.447 793.085 119.047L800.573 123.367C797.021 128.503 791.789 131.071 784.877 131.071C778.925 131.071 774.149 129.271 770.549 125.671C766.949 122.071 765.149 117.535 765.149 112.063C765.149 106.639 766.925 102.127 770.477 98.5269C774.029 94.8789 778.589 93.0549 784.157 93.0549C789.437 93.0549 793.781 94.8789 797.189 98.5269C800.645 102.175 802.373 106.687 802.373 112.063C802.373 113.263 802.253 114.535 802.013 115.879H774.869ZM774.725 108.679H793.085C792.557 106.231 791.453 104.407 789.773 103.207C788.141 102.007 786.269 101.407 784.157 101.407C781.661 101.407 779.597 102.055 777.965 103.351C776.333 104.599 775.253 106.375 774.725 108.679Z" fill="#2F3343"/>
<path d="M818.145 100.255C819.009 97.9509 820.425 96.2229 822.393 95.0709C824.409 93.9189 826.641 93.3429 829.089 93.3429V103.711C826.257 103.375 823.713 103.951 821.457 105.439C819.249 106.927 818.145 109.399 818.145 112.855V130.063H808.857V94.0629H818.145V100.255Z" fill="#2F3343"/>
<path d="M841.964 104.287C841.964 105.247 842.588 106.039 843.836 106.663C845.132 107.239 846.692 107.767 848.516 108.247C850.34 108.679 852.164 109.255 853.988 109.975C855.812 110.647 857.348 111.799 858.596 113.431C859.892 115.063 860.54 117.103 860.54 119.551C860.54 123.247 859.148 126.103 856.364 128.119C853.628 130.087 850.196 131.071 846.068 131.071C838.676 131.071 833.636 128.215 830.948 122.503L839.012 117.967C840.068 121.087 842.42 122.647 846.068 122.647C849.38 122.647 851.036 121.615 851.036 119.551C851.036 118.591 850.388 117.823 849.092 117.247C847.844 116.623 846.308 116.071 844.484 115.591C842.66 115.111 840.836 114.511 839.012 113.791C837.188 113.071 835.628 111.943 834.332 110.407C833.084 108.823 832.46 106.855 832.46 104.503C832.46 100.951 833.756 98.1669 836.348 96.1509C838.988 94.0869 842.252 93.0549 846.14 93.0549C849.068 93.0549 851.732 93.7269 854.132 95.0709C856.532 96.3669 858.428 98.2389 859.82 100.687L851.9 105.007C850.748 102.559 848.828 101.335 846.14 101.335C844.94 101.335 843.932 101.599 843.116 102.127C842.348 102.655 841.964 103.375 841.964 104.287Z" fill="#2F3343"/>
<path d="M871.121 89.7429C869.585 89.7429 868.241 89.1909 867.089 88.0869C865.985 86.9349 865.433 85.5909 865.433 84.0549C865.433 82.5189 865.985 81.1749 867.089 80.0229C868.241 78.8709 869.585 78.2949 871.121 78.2949C872.705 78.2949 874.049 78.8709 875.153 80.0229C876.305 81.1749 876.881 82.5189 876.881 84.0549C876.881 85.5909 876.305 86.9349 875.153 88.0869C874.049 89.1909 872.705 89.7429 871.121 89.7429ZM866.513 130.063V94.0629H875.801V130.063H866.513Z" fill="#2F3343"/>
<path d="M904.894 102.991H896.758V117.967C896.758 119.215 897.07 120.127 897.694 120.703C898.318 121.279 899.23 121.615 900.43 121.711C901.63 121.759 903.118 121.735 904.894 121.639V130.063C898.51 130.783 893.998 130.183 891.358 128.263C888.766 126.343 887.47 122.911 887.47 117.967V102.991H881.206V94.0629H887.47V86.7909L896.758 83.9829V94.0629H904.894V102.991Z" fill="#2F3343"/>
<path d="M935.688 94.0629H945.624L932.52 130.063C930.648 135.247 928.152 138.991 925.032 141.295C921.96 143.647 918.12 144.703 913.512 144.463V135.823C916.008 135.871 917.976 135.343 919.416 134.239C920.904 133.135 922.08 131.359 922.944 128.911L908.184 94.0629H918.336L927.696 118.255L935.688 94.0629Z" fill="#2F3343"/>
</svg>
